<mxfile host="Electron" agent="Mozilla/5.0 (Windows NT 10.0; Win64; x64) AppleWebKit/537.36 (KHTML, like Gecko) draw.io/24.7.17 Chrome/128.0.6613.36 Electron/32.0.1 Safari/537.36" version="24.7.17">
  <diagram name="Trang-1" id="Qd0KeOUWe4UcRtdm8e0A">
    <mxGraphModel dx="4870" dy="3703" grid="1" gridSize="10" guides="1" tooltips="1" connect="1" arrows="1" fold="1" page="0" pageScale="1" pageWidth="827" pageHeight="1169" math="0" shadow="0">
      <root>
        <mxCell id="0" />
        <mxCell id="1" parent="0" />
        <mxCell id="2AO472v2SHZd8yrCc4qn-1" style="rounded=0;orthogonalLoop=1;jettySize=auto;html=1;exitX=0;exitY=0;exitDx=0;exitDy=0;entryX=1;entryY=1;entryDx=0;entryDy=0;startArrow=none;startFill=0;endArrow=none;endFill=0;" parent="1" source="gS9S2C-Xg4bSLg3sg7bz-1" target="gS9S2C-Xg4bSLg3sg7bz-3" edge="1">
          <mxGeometry relative="1" as="geometry" />
        </mxCell>
        <mxCell id="2AO472v2SHZd8yrCc4qn-4" style="edgeStyle=none;shape=connector;rounded=0;orthogonalLoop=1;jettySize=auto;html=1;exitX=0;exitY=1;exitDx=0;exitDy=0;entryX=1;entryY=0;entryDx=0;entryDy=0;strokeColor=default;align=center;verticalAlign=middle;fontFamily=Helvetica;fontSize=11;fontColor=default;labelBackgroundColor=default;startArrow=none;startFill=0;endArrow=none;endFill=0;" parent="1" source="gS9S2C-Xg4bSLg3sg7bz-1" target="gS9S2C-Xg4bSLg3sg7bz-5" edge="1">
          <mxGeometry relative="1" as="geometry" />
        </mxCell>
        <mxCell id="gS9S2C-Xg4bSLg3sg7bz-1" value="Image" style="whiteSpace=wrap;html=1;align=center;" parent="1" vertex="1">
          <mxGeometry x="-210" y="290" width="100" height="40" as="geometry" />
        </mxCell>
        <mxCell id="2AO472v2SHZd8yrCc4qn-2" style="edgeStyle=none;shape=connector;rounded=0;orthogonalLoop=1;jettySize=auto;html=1;exitX=1;exitY=0.5;exitDx=0;exitDy=0;entryX=0;entryY=0.25;entryDx=0;entryDy=0;strokeColor=default;align=center;verticalAlign=middle;fontFamily=Helvetica;fontSize=11;fontColor=default;labelBackgroundColor=default;startArrow=none;startFill=0;endArrow=none;endFill=0;" parent="1" source="gS9S2C-Xg4bSLg3sg7bz-2" target="gS9S2C-Xg4bSLg3sg7bz-1" edge="1">
          <mxGeometry relative="1" as="geometry" />
        </mxCell>
        <mxCell id="gS9S2C-Xg4bSLg3sg7bz-2" value="ImageID" style="ellipse;whiteSpace=wrap;html=1;align=center;fontStyle=4;" parent="1" vertex="1">
          <mxGeometry x="-340" y="257.5" width="100" height="40" as="geometry" />
        </mxCell>
        <mxCell id="gS9S2C-Xg4bSLg3sg7bz-3" value="&lt;span id=&quot;docs-internal-guid-f84d8d00-7fff-414b-e6a0-b6b0118dea40&quot;&gt;&lt;span style=&quot;font-size: 11pt; font-family: Nunito, sans-serif; background-color: transparent; font-variant-numeric: normal; font-variant-east-asian: normal; font-variant-alternates: normal; font-variant-position: normal; vertical-align: baseline; white-space-collapse: preserve;&quot;&gt;BigVersionPath&lt;/span&gt;&lt;/span&gt;" style="ellipse;whiteSpace=wrap;html=1;align=center;" parent="1" vertex="1">
          <mxGeometry x="-310" y="200" width="100" height="40" as="geometry" />
        </mxCell>
        <mxCell id="2AO472v2SHZd8yrCc4qn-3" style="edgeStyle=none;shape=connector;rounded=0;orthogonalLoop=1;jettySize=auto;html=1;exitX=1;exitY=0.5;exitDx=0;exitDy=0;entryX=0;entryY=0.5;entryDx=0;entryDy=0;strokeColor=default;align=center;verticalAlign=middle;fontFamily=Helvetica;fontSize=11;fontColor=default;labelBackgroundColor=default;startArrow=none;startFill=0;endArrow=none;endFill=0;" parent="1" source="gS9S2C-Xg4bSLg3sg7bz-4" target="gS9S2C-Xg4bSLg3sg7bz-1" edge="1">
          <mxGeometry relative="1" as="geometry" />
        </mxCell>
        <mxCell id="gS9S2C-Xg4bSLg3sg7bz-4" value="ImagePath" style="ellipse;whiteSpace=wrap;html=1;align=center;" parent="1" vertex="1">
          <mxGeometry x="-340" y="315" width="100" height="40" as="geometry" />
        </mxCell>
        <mxCell id="gS9S2C-Xg4bSLg3sg7bz-5" value="AltText" style="ellipse;whiteSpace=wrap;html=1;align=center;" parent="1" vertex="1">
          <mxGeometry x="-310" y="370" width="100" height="40" as="geometry" />
        </mxCell>
        <mxCell id="gS9S2C-Xg4bSLg3sg7bz-8" value="ProductID" style="ellipse;whiteSpace=wrap;html=1;align=center;fontStyle=4;" parent="1" vertex="1">
          <mxGeometry x="748.75" y="1098.75" width="100" height="40" as="geometry" />
        </mxCell>
        <mxCell id="gS9S2C-Xg4bSLg3sg7bz-9" value="&lt;span id=&quot;docs-internal-guid-97acb7ee-7fff-b021-696f-eb3cf4967424&quot;&gt;&lt;span style=&quot;font-size: 11pt; font-family: Nunito, sans-serif; background-color: transparent; font-variant-numeric: normal; font-variant-east-asian: normal; font-variant-alternates: normal; font-variant-position: normal; vertical-align: baseline; white-space-collapse: preserve;&quot;&gt;SKU&lt;/span&gt;&lt;/span&gt;" style="ellipse;whiteSpace=wrap;html=1;align=center;" parent="1" vertex="1">
          <mxGeometry x="527.5" y="910" width="100" height="40" as="geometry" />
        </mxCell>
        <mxCell id="gS9S2C-Xg4bSLg3sg7bz-10" value="ProductName" style="ellipse;whiteSpace=wrap;html=1;align=center;" parent="1" vertex="1">
          <mxGeometry x="627.5" y="963.75" width="100" height="40" as="geometry" />
        </mxCell>
        <mxCell id="MBNyQJfrEvlR8FQnQ0IK-11" style="edgeStyle=none;shape=connector;rounded=0;orthogonalLoop=1;jettySize=auto;html=1;exitX=0;exitY=1;exitDx=0;exitDy=0;entryX=1;entryY=0.25;entryDx=0;entryDy=0;strokeColor=default;align=center;verticalAlign=middle;fontFamily=Helvetica;fontSize=11;fontColor=default;labelBackgroundColor=default;endArrow=none;endFill=0;" parent="1" source="gS9S2C-Xg4bSLg3sg7bz-11" target="gS9S2C-Xg4bSLg3sg7bz-34" edge="1">
          <mxGeometry relative="1" as="geometry" />
        </mxCell>
        <mxCell id="gS9S2C-Xg4bSLg3sg7bz-11" value="&lt;span id=&quot;docs-internal-guid-54accb9b-7fff-9d7f-b71c-08c7445ba4ee&quot;&gt;&lt;span style=&quot;font-size: 11pt; font-family: Nunito, sans-serif; background-color: transparent; font-variant-numeric: normal; font-variant-east-asian: normal; font-variant-alternates: normal; font-variant-position: normal; vertical-align: baseline; white-space-collapse: preserve;&quot;&gt;RatingStars&lt;/span&gt;&lt;/span&gt;" style="ellipse;whiteSpace=wrap;html=1;align=center;" parent="1" vertex="1">
          <mxGeometry x="668.75" y="902.5" width="100" height="40" as="geometry" />
        </mxCell>
        <mxCell id="gS9S2C-Xg4bSLg3sg7bz-12" value="&lt;span id=&quot;docs-internal-guid-97acb7ee-7fff-b021-696f-eb3cf4967424&quot;&gt;&lt;span style=&quot;font-size: 11pt; font-family: Nunito, sans-serif; background-color: transparent; font-variant-numeric: normal; font-variant-east-asian: normal; font-variant-alternates: normal; font-variant-position: normal; vertical-align: baseline; white-space-collapse: preserve;&quot;&gt;Price&lt;/span&gt;&lt;/span&gt;" style="ellipse;whiteSpace=wrap;html=1;align=center;" parent="1" vertex="1">
          <mxGeometry x="527.5" y="1195" width="100" height="40" as="geometry" />
        </mxCell>
        <mxCell id="gS9S2C-Xg4bSLg3sg7bz-13" value="&lt;span id=&quot;docs-internal-guid-c9478b46-7fff-bee8-7ce9-edd063fcac5b&quot;&gt;&lt;span style=&quot;font-size: 11pt; font-family: Nunito, sans-serif; background-color: transparent; font-variant-numeric: normal; font-variant-east-asian: normal; font-variant-alternates: normal; font-variant-position: normal; vertical-align: baseline; white-space-collapse: preserve;&quot;&gt;CategoryID&lt;/span&gt;&lt;/span&gt;" style="ellipse;whiteSpace=wrap;html=1;align=center;" parent="1" vertex="1">
          <mxGeometry x="630" y="1126.25" width="100" height="40" as="geometry" />
        </mxCell>
        <mxCell id="MBNyQJfrEvlR8FQnQ0IK-61" style="edgeStyle=none;shape=connector;rounded=0;orthogonalLoop=1;jettySize=auto;html=1;exitX=0;exitY=0.5;exitDx=0;exitDy=0;entryX=1;entryY=0.5;entryDx=0;entryDy=0;strokeColor=default;align=center;verticalAlign=middle;fontFamily=Helvetica;fontSize=11;fontColor=default;labelBackgroundColor=default;endArrow=none;endFill=0;" parent="1" source="gS9S2C-Xg4bSLg3sg7bz-16" target="gS9S2C-Xg4bSLg3sg7bz-34" edge="1">
          <mxGeometry relative="1" as="geometry" />
        </mxCell>
        <mxCell id="gS9S2C-Xg4bSLg3sg7bz-16" value="&lt;span id=&quot;docs-internal-guid-97acb7ee-7fff-b021-696f-eb3cf4967424&quot;&gt;&lt;span style=&quot;font-size: 11pt; font-family: Nunito, sans-serif; background-color: transparent; font-variant-numeric: normal; font-variant-east-asian: normal; font-variant-alternates: normal; font-variant-position: normal; vertical-align: baseline; white-space-collapse: preserve;&quot;&gt;BrandID&lt;/span&gt;&lt;/span&gt;" style="ellipse;whiteSpace=wrap;html=1;align=center;" parent="1" vertex="1">
          <mxGeometry x="748.75" y="990" width="100" height="40" as="geometry" />
        </mxCell>
        <mxCell id="_Pgt-6CAFlhkcNuBajUw-5" style="edgeStyle=none;shape=connector;rounded=0;orthogonalLoop=1;jettySize=auto;html=1;exitX=0.5;exitY=1;exitDx=0;exitDy=0;strokeColor=default;align=center;verticalAlign=middle;fontFamily=Helvetica;fontSize=11;fontColor=default;labelBackgroundColor=default;endArrow=none;endFill=0;" parent="1" source="gS9S2C-Xg4bSLg3sg7bz-23" edge="1">
          <mxGeometry relative="1" as="geometry">
            <mxPoint x="1360" y="1321.25" as="targetPoint" />
          </mxGeometry>
        </mxCell>
        <mxCell id="gS9S2C-Xg4bSLg3sg7bz-23" value="&lt;span id=&quot;docs-internal-guid-453f7120-7fff-6079-0bdd-c34bf141b59f&quot;&gt;&lt;span style=&quot;font-size: 11pt; font-family: Nunito, sans-serif; background-color: transparent; font-variant-numeric: normal; font-variant-east-asian: normal; font-variant-alternates: normal; font-variant-position: normal; vertical-align: baseline; white-space-collapse: preserve;&quot;&gt;DescriptionProduct&lt;/span&gt;&lt;/span&gt;" style="ellipse;whiteSpace=wrap;html=1;align=center;" parent="1" vertex="1">
          <mxGeometry x="1440" y="1055" width="162.5" height="40" as="geometry" />
        </mxCell>
        <mxCell id="MBNyQJfrEvlR8FQnQ0IK-12" style="edgeStyle=none;shape=connector;rounded=0;orthogonalLoop=1;jettySize=auto;html=1;exitX=0;exitY=0.5;exitDx=0;exitDy=0;entryX=1;entryY=0.75;entryDx=0;entryDy=0;strokeColor=default;align=center;verticalAlign=middle;fontFamily=Helvetica;fontSize=11;fontColor=default;labelBackgroundColor=default;endArrow=none;endFill=0;" parent="1" source="gS9S2C-Xg4bSLg3sg7bz-25" target="gS9S2C-Xg4bSLg3sg7bz-34" edge="1">
          <mxGeometry relative="1" as="geometry" />
        </mxCell>
        <mxCell id="gS9S2C-Xg4bSLg3sg7bz-25" value="&lt;span id=&quot;docs-internal-guid-2cda36ea-7fff-71b6-afdb-a2677ee2c5ec&quot;&gt;&lt;span style=&quot;font-size: 11pt; font-family: Nunito, sans-serif; background-color: transparent; font-variant-numeric: normal; font-variant-east-asian: normal; font-variant-alternates: normal; font-variant-position: normal; vertical-align: baseline; white-space-collapse: preserve;&quot;&gt;Uses&lt;/span&gt;&lt;/span&gt;" style="ellipse;whiteSpace=wrap;html=1;align=center;" parent="1" vertex="1">
          <mxGeometry x="670" y="1195" width="100" height="40" as="geometry" />
        </mxCell>
        <mxCell id="gS9S2C-Xg4bSLg3sg7bz-27" value="&lt;span id=&quot;docs-internal-guid-7a9b7bf0-7fff-c99e-e5ac-8dcfb04e37b6&quot;&gt;&lt;span style=&quot;font-size: 11pt; font-family: Nunito, sans-serif; background-color: transparent; font-variant-numeric: normal; font-variant-east-asian: normal; font-variant-alternates: normal; font-variant-position: normal; vertical-align: baseline; white-space-collapse: preserve;&quot;&gt;Ingredients&lt;/span&gt;&lt;/span&gt;" style="ellipse;whiteSpace=wrap;html=1;align=center;" parent="1" vertex="1">
          <mxGeometry x="648.75" y="1048.75" width="100" height="40" as="geometry" />
        </mxCell>
        <mxCell id="RBz3kKcQn3I_CGSztRoB-18" style="edgeStyle=none;shape=connector;rounded=0;orthogonalLoop=1;jettySize=auto;html=1;exitX=0.5;exitY=1;exitDx=0;exitDy=0;strokeColor=default;align=center;verticalAlign=middle;fontFamily=Helvetica;fontSize=11;fontColor=default;labelBackgroundColor=default;endArrow=none;endFill=0;" parent="1" source="gS9S2C-Xg4bSLg3sg7bz-31" edge="1">
          <mxGeometry relative="1" as="geometry">
            <mxPoint x="1360" y="1321.25" as="targetPoint" />
          </mxGeometry>
        </mxCell>
        <mxCell id="gS9S2C-Xg4bSLg3sg7bz-31" value="&lt;span id=&quot;docs-internal-guid-8becedb0-7fff-75dd-85f8-899f638df651&quot;&gt;&lt;span style=&quot;font-size: 11pt; font-family: Nunito, sans-serif; background-color: transparent; font-variant-numeric: normal; font-variant-east-asian: normal; font-variant-alternates: normal; font-variant-position: normal; vertical-align: baseline; white-space-collapse: preserve;&quot;&gt;InstructionManual&lt;/span&gt;&lt;/span&gt;&lt;div&gt;&lt;span&gt;&lt;span style=&quot;font-size: 11pt; font-family: Nunito, sans-serif; background-color: transparent; font-variant-numeric: normal; font-variant-east-asian: normal; font-variant-alternates: normal; font-variant-position: normal; vertical-align: baseline; white-space-collapse: preserve;&quot;&gt;StoreDescription&lt;/span&gt;&lt;/span&gt;&lt;br&gt;&lt;/div&gt;" style="ellipse;whiteSpace=wrap;html=1;align=center;" parent="1" vertex="1">
          <mxGeometry x="1285" y="1135" width="150" height="50" as="geometry" />
        </mxCell>
        <mxCell id="2AO472v2SHZd8yrCc4qn-48" style="edgeStyle=none;shape=connector;rounded=0;orthogonalLoop=1;jettySize=auto;html=1;exitX=0.5;exitY=0;exitDx=0;exitDy=0;entryX=0.5;entryY=1;entryDx=0;entryDy=0;strokeColor=default;align=center;verticalAlign=middle;fontFamily=Helvetica;fontSize=11;fontColor=default;labelBackgroundColor=default;startArrow=none;startFill=0;endArrow=none;endFill=0;" parent="1" source="gS9S2C-Xg4bSLg3sg7bz-34" target="kUGmSK84CxYYmeA2TLVb-106" edge="1">
          <mxGeometry relative="1" as="geometry" />
        </mxCell>
        <mxCell id="0CVmQUVV8QdJMD5xHUxv-2" value="M" style="edgeLabel;html=1;align=center;verticalAlign=middle;resizable=0;points=[];" parent="2AO472v2SHZd8yrCc4qn-48" connectable="0" vertex="1">
          <mxGeometry x="0.9629" relative="1" as="geometry">
            <mxPoint as="offset" />
          </mxGeometry>
        </mxCell>
        <mxCell id="MBNyQJfrEvlR8FQnQ0IK-5" style="edgeStyle=none;shape=connector;rounded=0;orthogonalLoop=1;jettySize=auto;html=1;exitX=1;exitY=0;exitDx=0;exitDy=0;entryX=0;entryY=0.5;entryDx=0;entryDy=0;strokeColor=default;align=center;verticalAlign=middle;fontFamily=Helvetica;fontSize=11;fontColor=default;labelBackgroundColor=default;endArrow=none;endFill=0;" parent="1" source="gS9S2C-Xg4bSLg3sg7bz-34" target="gS9S2C-Xg4bSLg3sg7bz-9" edge="1">
          <mxGeometry relative="1" as="geometry" />
        </mxCell>
        <mxCell id="MBNyQJfrEvlR8FQnQ0IK-7" style="edgeStyle=none;shape=connector;rounded=0;orthogonalLoop=1;jettySize=auto;html=1;exitX=1;exitY=0.25;exitDx=0;exitDy=0;entryX=0;entryY=0.5;entryDx=0;entryDy=0;strokeColor=default;align=center;verticalAlign=middle;fontFamily=Helvetica;fontSize=11;fontColor=default;labelBackgroundColor=default;endArrow=none;endFill=0;" parent="1" source="gS9S2C-Xg4bSLg3sg7bz-34" target="gS9S2C-Xg4bSLg3sg7bz-10" edge="1">
          <mxGeometry relative="1" as="geometry" />
        </mxCell>
        <mxCell id="MBNyQJfrEvlR8FQnQ0IK-8" style="edgeStyle=none;shape=connector;rounded=0;orthogonalLoop=1;jettySize=auto;html=1;exitX=1;exitY=0.75;exitDx=0;exitDy=0;entryX=0;entryY=0.5;entryDx=0;entryDy=0;strokeColor=default;align=center;verticalAlign=middle;fontFamily=Helvetica;fontSize=11;fontColor=default;labelBackgroundColor=default;endArrow=none;endFill=0;" parent="1" source="gS9S2C-Xg4bSLg3sg7bz-34" target="gS9S2C-Xg4bSLg3sg7bz-13" edge="1">
          <mxGeometry relative="1" as="geometry" />
        </mxCell>
        <mxCell id="MBNyQJfrEvlR8FQnQ0IK-9" style="edgeStyle=none;shape=connector;rounded=0;orthogonalLoop=1;jettySize=auto;html=1;exitX=1;exitY=1;exitDx=0;exitDy=0;entryX=0;entryY=0.5;entryDx=0;entryDy=0;strokeColor=default;align=center;verticalAlign=middle;fontFamily=Helvetica;fontSize=11;fontColor=default;labelBackgroundColor=default;endArrow=none;endFill=0;" parent="1" source="gS9S2C-Xg4bSLg3sg7bz-34" target="gS9S2C-Xg4bSLg3sg7bz-12" edge="1">
          <mxGeometry relative="1" as="geometry" />
        </mxCell>
        <mxCell id="MBNyQJfrEvlR8FQnQ0IK-45" style="edgeStyle=none;shape=connector;rounded=0;orthogonalLoop=1;jettySize=auto;html=1;exitX=0;exitY=0;exitDx=0;exitDy=0;entryX=1;entryY=1;entryDx=0;entryDy=0;strokeColor=default;align=center;verticalAlign=middle;fontFamily=Helvetica;fontSize=11;fontColor=default;labelBackgroundColor=default;endArrow=none;endFill=0;" parent="1" source="gS9S2C-Xg4bSLg3sg7bz-34" target="kUGmSK84CxYYmeA2TLVb-1" edge="1">
          <mxGeometry relative="1" as="geometry" />
        </mxCell>
        <mxCell id="qbC479fvlcjgtYi0yi-w-3" value="M" style="edgeLabel;html=1;align=center;verticalAlign=middle;resizable=0;points=[];" parent="MBNyQJfrEvlR8FQnQ0IK-45" connectable="0" vertex="1">
          <mxGeometry x="0.9429" y="3" relative="1" as="geometry">
            <mxPoint as="offset" />
          </mxGeometry>
        </mxCell>
        <mxCell id="MBNyQJfrEvlR8FQnQ0IK-60" style="edgeStyle=none;shape=connector;rounded=0;orthogonalLoop=1;jettySize=auto;html=1;exitX=1;exitY=0.5;exitDx=0;exitDy=0;entryX=0;entryY=0.5;entryDx=0;entryDy=0;strokeColor=default;align=center;verticalAlign=middle;fontFamily=Helvetica;fontSize=11;fontColor=default;labelBackgroundColor=default;endArrow=none;endFill=0;" parent="1" source="gS9S2C-Xg4bSLg3sg7bz-34" target="gS9S2C-Xg4bSLg3sg7bz-27" edge="1">
          <mxGeometry relative="1" as="geometry" />
        </mxCell>
        <mxCell id="MBNyQJfrEvlR8FQnQ0IK-64" style="edgeStyle=none;shape=connector;rounded=0;orthogonalLoop=1;jettySize=auto;html=1;exitX=0;exitY=0.25;exitDx=0;exitDy=0;entryX=1;entryY=0.5;entryDx=0;entryDy=0;strokeColor=default;align=center;verticalAlign=middle;fontFamily=Helvetica;fontSize=11;fontColor=default;labelBackgroundColor=default;endArrow=none;endFill=0;" parent="1" source="gS9S2C-Xg4bSLg3sg7bz-34" target="MBNyQJfrEvlR8FQnQ0IK-1" edge="1">
          <mxGeometry relative="1" as="geometry" />
        </mxCell>
        <mxCell id="yVqubIJeU8RXYRg0h4uB-35" value="M" style="edgeLabel;html=1;align=center;verticalAlign=middle;resizable=0;points=[];fontFamily=Helvetica;fontSize=11;fontColor=default;labelBackgroundColor=default;" parent="MBNyQJfrEvlR8FQnQ0IK-64" vertex="1" connectable="0">
          <mxGeometry x="0.9265" y="-1" relative="1" as="geometry">
            <mxPoint as="offset" />
          </mxGeometry>
        </mxCell>
        <mxCell id="NJM9Babi9aSVDOlBZZWm-20" style="edgeStyle=none;shape=connector;rounded=0;orthogonalLoop=1;jettySize=auto;html=1;exitX=0.5;exitY=0;exitDx=0;exitDy=0;entryX=0;entryY=0.5;entryDx=0;entryDy=0;strokeColor=default;align=center;verticalAlign=middle;fontFamily=Helvetica;fontSize=11;fontColor=default;labelBackgroundColor=default;endArrow=none;endFill=0;" parent="1" source="gS9S2C-Xg4bSLg3sg7bz-34" target="kUGmSK84CxYYmeA2TLVb-38" edge="1">
          <mxGeometry relative="1" as="geometry" />
        </mxCell>
        <mxCell id="o548NBkhyWZEmw0mraJG-13" value="M" style="edgeLabel;html=1;align=center;verticalAlign=middle;resizable=0;points=[];fontFamily=Helvetica;fontSize=11;fontColor=default;labelBackgroundColor=default;" parent="NJM9Babi9aSVDOlBZZWm-20" connectable="0" vertex="1">
          <mxGeometry x="0.9394" relative="1" as="geometry">
            <mxPoint as="offset" />
          </mxGeometry>
        </mxCell>
        <mxCell id="NJM9Babi9aSVDOlBZZWm-26" style="edgeStyle=none;shape=connector;rounded=0;orthogonalLoop=1;jettySize=auto;html=1;exitX=0.5;exitY=0;exitDx=0;exitDy=0;entryX=0;entryY=0.5;entryDx=0;entryDy=0;strokeColor=default;align=center;verticalAlign=middle;fontFamily=Helvetica;fontSize=11;fontColor=default;labelBackgroundColor=default;endArrow=none;endFill=0;" parent="1" source="gS9S2C-Xg4bSLg3sg7bz-34" target="NJM9Babi9aSVDOlBZZWm-24" edge="1">
          <mxGeometry relative="1" as="geometry" />
        </mxCell>
        <mxCell id="NJM9Babi9aSVDOlBZZWm-27" value="M" style="edgeLabel;html=1;align=center;verticalAlign=middle;resizable=0;points=[];fontFamily=Helvetica;fontSize=11;fontColor=default;labelBackgroundColor=default;" parent="NJM9Babi9aSVDOlBZZWm-26" connectable="0" vertex="1">
          <mxGeometry x="0.9639" relative="1" as="geometry">
            <mxPoint as="offset" />
          </mxGeometry>
        </mxCell>
        <mxCell id="o548NBkhyWZEmw0mraJG-2" style="edgeStyle=none;shape=connector;rounded=0;orthogonalLoop=1;jettySize=auto;html=1;exitX=0;exitY=1;exitDx=0;exitDy=0;entryX=0.5;entryY=0;entryDx=0;entryDy=0;strokeColor=default;align=center;verticalAlign=middle;fontFamily=Helvetica;fontSize=11;fontColor=default;labelBackgroundColor=default;endArrow=none;endFill=0;" parent="1" source="gS9S2C-Xg4bSLg3sg7bz-34" target="3paW3BKc-gljnEik5YWG-12" edge="1">
          <mxGeometry relative="1" as="geometry" />
        </mxCell>
        <mxCell id="o548NBkhyWZEmw0mraJG-11" value="1" style="edgeLabel;html=1;align=center;verticalAlign=middle;resizable=0;points=[];fontFamily=Helvetica;fontSize=11;fontColor=default;labelBackgroundColor=default;" parent="o548NBkhyWZEmw0mraJG-2" connectable="0" vertex="1">
          <mxGeometry x="0.8359" y="-1" relative="1" as="geometry">
            <mxPoint as="offset" />
          </mxGeometry>
        </mxCell>
        <mxCell id="o548NBkhyWZEmw0mraJG-3" style="edgeStyle=none;shape=connector;rounded=0;orthogonalLoop=1;jettySize=auto;html=1;exitX=0;exitY=1;exitDx=0;exitDy=0;entryX=1;entryY=0.5;entryDx=0;entryDy=0;strokeColor=default;align=center;verticalAlign=middle;fontFamily=Helvetica;fontSize=11;fontColor=default;labelBackgroundColor=default;endArrow=none;endFill=0;" parent="1" source="gS9S2C-Xg4bSLg3sg7bz-34" target="3paW3BKc-gljnEik5YWG-12" edge="1">
          <mxGeometry relative="1" as="geometry" />
        </mxCell>
        <mxCell id="o548NBkhyWZEmw0mraJG-12" value="M" style="edgeLabel;html=1;align=center;verticalAlign=middle;resizable=0;points=[];fontFamily=Helvetica;fontSize=11;fontColor=default;labelBackgroundColor=default;" parent="o548NBkhyWZEmw0mraJG-3" connectable="0" vertex="1">
          <mxGeometry x="0.8172" y="1" relative="1" as="geometry">
            <mxPoint as="offset" />
          </mxGeometry>
        </mxCell>
        <mxCell id="yVqubIJeU8RXYRg0h4uB-26" style="edgeStyle=none;shape=connector;rounded=0;orthogonalLoop=1;jettySize=auto;html=1;exitX=0;exitY=0.5;exitDx=0;exitDy=0;entryX=1;entryY=0.5;entryDx=0;entryDy=0;strokeColor=default;align=center;verticalAlign=middle;fontFamily=Helvetica;fontSize=11;fontColor=default;labelBackgroundColor=default;endArrow=none;endFill=0;" parent="1" source="gS9S2C-Xg4bSLg3sg7bz-34" target="yVqubIJeU8RXYRg0h4uB-25" edge="1">
          <mxGeometry relative="1" as="geometry" />
        </mxCell>
        <mxCell id="yVqubIJeU8RXYRg0h4uB-34" value="1" style="edgeLabel;html=1;align=center;verticalAlign=middle;resizable=0;points=[];fontFamily=Helvetica;fontSize=11;fontColor=default;labelBackgroundColor=default;" parent="yVqubIJeU8RXYRg0h4uB-26" vertex="1" connectable="0">
          <mxGeometry x="0.8811" y="1" relative="1" as="geometry">
            <mxPoint as="offset" />
          </mxGeometry>
        </mxCell>
        <mxCell id="_Pgt-6CAFlhkcNuBajUw-4" style="edgeStyle=none;shape=connector;rounded=0;orthogonalLoop=1;jettySize=auto;html=1;exitX=1;exitY=0.5;exitDx=0;exitDy=0;entryX=0;entryY=0.5;entryDx=0;entryDy=0;strokeColor=default;align=center;verticalAlign=middle;fontFamily=Helvetica;fontSize=11;fontColor=default;labelBackgroundColor=default;endArrow=none;endFill=0;" parent="1" source="gS9S2C-Xg4bSLg3sg7bz-34" target="gS9S2C-Xg4bSLg3sg7bz-8" edge="1">
          <mxGeometry relative="1" as="geometry" />
        </mxCell>
        <mxCell id="_Pgt-6CAFlhkcNuBajUw-14" style="edgeStyle=none;shape=connector;rounded=0;orthogonalLoop=1;jettySize=auto;html=1;exitX=0.5;exitY=1;exitDx=0;exitDy=0;entryX=1;entryY=0;entryDx=0;entryDy=0;strokeColor=default;align=center;verticalAlign=middle;fontFamily=Helvetica;fontSize=11;fontColor=default;labelBackgroundColor=default;endArrow=none;endFill=0;" parent="1" source="gS9S2C-Xg4bSLg3sg7bz-34" edge="1">
          <mxGeometry relative="1" as="geometry">
            <mxPoint x="320" y="1321.25" as="targetPoint" />
          </mxGeometry>
        </mxCell>
        <mxCell id="gS9S2C-Xg4bSLg3sg7bz-34" value="Product" style="whiteSpace=wrap;html=1;align=center;" parent="1" vertex="1">
          <mxGeometry x="268.75" y="1048.75" width="100" height="40" as="geometry" />
        </mxCell>
        <mxCell id="2AO472v2SHZd8yrCc4qn-6" style="edgeStyle=none;shape=connector;rounded=0;orthogonalLoop=1;jettySize=auto;html=1;exitX=0;exitY=0.5;exitDx=0;exitDy=0;entryX=1;entryY=0.5;entryDx=0;entryDy=0;strokeColor=default;align=center;verticalAlign=middle;fontFamily=Helvetica;fontSize=11;fontColor=default;labelBackgroundColor=default;startArrow=none;startFill=0;endArrow=none;endFill=0;" parent="1" source="kUGmSK84CxYYmeA2TLVb-1" target="gS9S2C-Xg4bSLg3sg7bz-1" edge="1">
          <mxGeometry relative="1" as="geometry" />
        </mxCell>
        <mxCell id="qbC479fvlcjgtYi0yi-w-4" value="1" style="edgeLabel;html=1;align=center;verticalAlign=middle;resizable=0;points=[];" parent="2AO472v2SHZd8yrCc4qn-6" connectable="0" vertex="1">
          <mxGeometry x="-0.8089" y="1" relative="1" as="geometry">
            <mxPoint as="offset" />
          </mxGeometry>
        </mxCell>
        <mxCell id="2AO472v2SHZd8yrCc4qn-9" style="edgeStyle=none;shape=connector;rounded=0;orthogonalLoop=1;jettySize=auto;html=1;exitX=0.5;exitY=0;exitDx=0;exitDy=0;entryX=0.5;entryY=1;entryDx=0;entryDy=0;strokeColor=default;align=center;verticalAlign=middle;fontFamily=Helvetica;fontSize=11;fontColor=default;labelBackgroundColor=default;startArrow=none;startFill=0;endArrow=none;endFill=0;" parent="1" source="kUGmSK84CxYYmeA2TLVb-1" target="kUGmSK84CxYYmeA2TLVb-4" edge="1">
          <mxGeometry relative="1" as="geometry" />
        </mxCell>
        <mxCell id="2AO472v2SHZd8yrCc4qn-10" style="edgeStyle=none;shape=connector;rounded=0;orthogonalLoop=1;jettySize=auto;html=1;exitX=1;exitY=0;exitDx=0;exitDy=0;entryX=0.5;entryY=1;entryDx=0;entryDy=0;strokeColor=default;align=center;verticalAlign=middle;fontFamily=Helvetica;fontSize=11;fontColor=default;labelBackgroundColor=default;startArrow=none;startFill=0;endArrow=none;endFill=0;" parent="1" source="kUGmSK84CxYYmeA2TLVb-1" target="kUGmSK84CxYYmeA2TLVb-3" edge="1">
          <mxGeometry relative="1" as="geometry" />
        </mxCell>
        <mxCell id="kUGmSK84CxYYmeA2TLVb-1" value="ProductImage" style="shape=rhombus;perimeter=rhombusPerimeter;whiteSpace=wrap;html=1;align=center;" parent="1" vertex="1">
          <mxGeometry x="40" y="280" width="120" height="60" as="geometry" />
        </mxCell>
        <mxCell id="2AO472v2SHZd8yrCc4qn-8" style="edgeStyle=none;shape=connector;rounded=0;orthogonalLoop=1;jettySize=auto;html=1;exitX=0.5;exitY=1;exitDx=0;exitDy=0;entryX=0;entryY=0;entryDx=0;entryDy=0;strokeColor=default;align=center;verticalAlign=middle;fontFamily=Helvetica;fontSize=11;fontColor=default;labelBackgroundColor=default;startArrow=none;startFill=0;endArrow=none;endFill=0;" parent="1" source="kUGmSK84CxYYmeA2TLVb-2" target="kUGmSK84CxYYmeA2TLVb-1" edge="1">
          <mxGeometry relative="1" as="geometry" />
        </mxCell>
        <mxCell id="kUGmSK84CxYYmeA2TLVb-2" value="&lt;span id=&quot;docs-internal-guid-50ca5615-7fff-5fb8-83fc-fb592c2700cb&quot;&gt;&lt;span style=&quot;font-size: 11pt; font-family: Nunito, sans-serif; background-color: transparent; font-variant-numeric: normal; font-variant-east-asian: normal; font-variant-alternates: normal; font-variant-position: normal; vertical-align: baseline; white-space-collapse: preserve;&quot;&gt;ProductID&lt;/span&gt;&lt;/span&gt;" style="ellipse;whiteSpace=wrap;html=1;align=center;" parent="1" vertex="1">
          <mxGeometry x="-40" y="200" width="100" height="40" as="geometry" />
        </mxCell>
        <mxCell id="kUGmSK84CxYYmeA2TLVb-3" value="&lt;span id=&quot;docs-internal-guid-34dc0275-7fff-7179-237c-33dafe997787&quot;&gt;&lt;span style=&quot;font-size: 11pt; font-family: Nunito, sans-serif; background-color: transparent; font-variant-numeric: normal; font-variant-east-asian: normal; font-variant-alternates: normal; font-variant-position: normal; vertical-align: baseline; white-space-collapse: preserve;&quot;&gt;ImageID&lt;/span&gt;&lt;/span&gt;" style="ellipse;whiteSpace=wrap;html=1;align=center;" parent="1" vertex="1">
          <mxGeometry x="140" y="197.5" width="100" height="40" as="geometry" />
        </mxCell>
        <mxCell id="kUGmSK84CxYYmeA2TLVb-4" value="Order" style="ellipse;whiteSpace=wrap;html=1;align=center;" parent="1" vertex="1">
          <mxGeometry x="50" y="145" width="100" height="40" as="geometry" />
        </mxCell>
        <mxCell id="2AO472v2SHZd8yrCc4qn-151" style="edgeStyle=none;shape=connector;rounded=0;orthogonalLoop=1;jettySize=auto;html=1;exitX=0;exitY=0;exitDx=0;exitDy=0;entryX=0.5;entryY=1;entryDx=0;entryDy=0;strokeColor=default;align=center;verticalAlign=middle;fontFamily=Helvetica;fontSize=11;fontColor=default;labelBackgroundColor=default;startArrow=none;startFill=0;endArrow=none;endFill=0;" parent="1" source="kUGmSK84CxYYmeA2TLVb-5" target="kUGmSK84CxYYmeA2TLVb-11" edge="1">
          <mxGeometry relative="1" as="geometry" />
        </mxCell>
        <mxCell id="2AO472v2SHZd8yrCc4qn-152" style="edgeStyle=none;shape=connector;rounded=0;orthogonalLoop=1;jettySize=auto;html=1;exitX=0.5;exitY=0;exitDx=0;exitDy=0;entryX=0.5;entryY=1;entryDx=0;entryDy=0;strokeColor=default;align=center;verticalAlign=middle;fontFamily=Helvetica;fontSize=11;fontColor=default;labelBackgroundColor=default;startArrow=none;startFill=0;endArrow=none;endFill=0;" parent="1" source="kUGmSK84CxYYmeA2TLVb-5" target="kUGmSK84CxYYmeA2TLVb-6" edge="1">
          <mxGeometry relative="1" as="geometry" />
        </mxCell>
        <mxCell id="2AO472v2SHZd8yrCc4qn-153" style="edgeStyle=none;shape=connector;rounded=0;orthogonalLoop=1;jettySize=auto;html=1;exitX=1;exitY=0;exitDx=0;exitDy=0;entryX=0.5;entryY=1;entryDx=0;entryDy=0;strokeColor=default;align=center;verticalAlign=middle;fontFamily=Helvetica;fontSize=11;fontColor=default;labelBackgroundColor=default;startArrow=none;startFill=0;endArrow=none;endFill=0;" parent="1" source="kUGmSK84CxYYmeA2TLVb-5" target="kUGmSK84CxYYmeA2TLVb-7" edge="1">
          <mxGeometry relative="1" as="geometry" />
        </mxCell>
        <mxCell id="2AO472v2SHZd8yrCc4qn-154" style="edgeStyle=none;shape=connector;rounded=0;orthogonalLoop=1;jettySize=auto;html=1;exitX=1;exitY=0.25;exitDx=0;exitDy=0;entryX=0;entryY=0.5;entryDx=0;entryDy=0;strokeColor=default;align=center;verticalAlign=middle;fontFamily=Helvetica;fontSize=11;fontColor=default;labelBackgroundColor=default;startArrow=none;startFill=0;endArrow=none;endFill=0;" parent="1" source="kUGmSK84CxYYmeA2TLVb-5" target="kUGmSK84CxYYmeA2TLVb-8" edge="1">
          <mxGeometry relative="1" as="geometry" />
        </mxCell>
        <mxCell id="2AO472v2SHZd8yrCc4qn-155" style="edgeStyle=none;shape=connector;rounded=0;orthogonalLoop=1;jettySize=auto;html=1;exitX=1;exitY=0.75;exitDx=0;exitDy=0;entryX=0;entryY=0.5;entryDx=0;entryDy=0;strokeColor=default;align=center;verticalAlign=middle;fontFamily=Helvetica;fontSize=11;fontColor=default;labelBackgroundColor=default;startArrow=none;startFill=0;endArrow=none;endFill=0;" parent="1" source="kUGmSK84CxYYmeA2TLVb-5" target="kUGmSK84CxYYmeA2TLVb-9" edge="1">
          <mxGeometry relative="1" as="geometry" />
        </mxCell>
        <mxCell id="2AO472v2SHZd8yrCc4qn-156" style="edgeStyle=none;shape=connector;rounded=0;orthogonalLoop=1;jettySize=auto;html=1;exitX=0;exitY=1;exitDx=0;exitDy=0;entryX=0.5;entryY=0;entryDx=0;entryDy=0;strokeColor=default;align=center;verticalAlign=middle;fontFamily=Helvetica;fontSize=11;fontColor=default;labelBackgroundColor=default;startArrow=none;startFill=0;endArrow=none;endFill=0;" parent="1" source="kUGmSK84CxYYmeA2TLVb-5" target="kUGmSK84CxYYmeA2TLVb-10" edge="1">
          <mxGeometry relative="1" as="geometry" />
        </mxCell>
        <mxCell id="2AO472v2SHZd8yrCc4qn-157" style="edgeStyle=none;shape=connector;rounded=0;orthogonalLoop=1;jettySize=auto;html=1;exitX=0.5;exitY=1;exitDx=0;exitDy=0;entryX=0.5;entryY=0;entryDx=0;entryDy=0;strokeColor=default;align=center;verticalAlign=middle;fontFamily=Helvetica;fontSize=11;fontColor=default;labelBackgroundColor=default;startArrow=none;startFill=0;endArrow=none;endFill=0;" parent="1" source="kUGmSK84CxYYmeA2TLVb-5" target="kUGmSK84CxYYmeA2TLVb-12" edge="1">
          <mxGeometry relative="1" as="geometry" />
        </mxCell>
        <mxCell id="2AO472v2SHZd8yrCc4qn-158" style="edgeStyle=none;shape=connector;rounded=0;orthogonalLoop=1;jettySize=auto;html=1;exitX=1;exitY=1;exitDx=0;exitDy=0;entryX=0.5;entryY=0;entryDx=0;entryDy=0;strokeColor=default;align=center;verticalAlign=middle;fontFamily=Helvetica;fontSize=11;fontColor=default;labelBackgroundColor=default;startArrow=none;startFill=0;endArrow=none;endFill=0;" parent="1" source="kUGmSK84CxYYmeA2TLVb-5" target="kUGmSK84CxYYmeA2TLVb-13" edge="1">
          <mxGeometry relative="1" as="geometry" />
        </mxCell>
        <mxCell id="kUGmSK84CxYYmeA2TLVb-5" value="Address" style="whiteSpace=wrap;html=1;align=center;" parent="1" vertex="1">
          <mxGeometry x="2240" y="330" width="100" height="40" as="geometry" />
        </mxCell>
        <mxCell id="kUGmSK84CxYYmeA2TLVb-6" value="AddressID" style="ellipse;whiteSpace=wrap;html=1;align=center;fontStyle=4;" parent="1" vertex="1">
          <mxGeometry x="2240" y="253.75" width="100" height="40" as="geometry" />
        </mxCell>
        <mxCell id="kUGmSK84CxYYmeA2TLVb-7" value="&lt;span id=&quot;docs-internal-guid-bff331e8-7fff-2504-f6a5-90838a1ded57&quot;&gt;&lt;span style=&quot;font-size: 11pt; font-family: Nunito, sans-serif; background-color: transparent; font-variant-numeric: normal; font-variant-east-asian: normal; font-variant-alternates: normal; font-variant-position: normal; vertical-align: baseline; white-space-collapse: preserve;&quot;&gt;Ward&lt;/span&gt;&lt;/span&gt;" style="ellipse;whiteSpace=wrap;html=1;align=center;" parent="1" vertex="1">
          <mxGeometry x="2380" y="253.75" width="100" height="40" as="geometry" />
        </mxCell>
        <mxCell id="kUGmSK84CxYYmeA2TLVb-8" value="&lt;span id=&quot;docs-internal-guid-4ee9a436-7fff-fa1c-c87c-d8c797173422&quot;&gt;&lt;span style=&quot;font-size: 11pt; font-family: Nunito, sans-serif; background-color: transparent; font-variant-numeric: normal; font-variant-east-asian: normal; font-variant-alternates: normal; font-variant-position: normal; vertical-align: baseline; white-space-collapse: preserve;&quot;&gt;PhoneNumber&lt;/span&gt;&lt;/span&gt;" style="ellipse;whiteSpace=wrap;html=1;align=center;" parent="1" vertex="1">
          <mxGeometry x="2460" y="313.75" width="100" height="40" as="geometry" />
        </mxCell>
        <mxCell id="kUGmSK84CxYYmeA2TLVb-9" value="&lt;span id=&quot;docs-internal-guid-edd15792-7fff-0951-70d1-f42b536ed619&quot;&gt;&lt;span style=&quot;font-size: 11pt; font-family: Nunito, sans-serif; background-color: transparent; font-variant-numeric: normal; font-variant-east-asian: normal; font-variant-alternates: normal; font-variant-position: normal; vertical-align: baseline; white-space-collapse: preserve;&quot;&gt;HouseNumber&lt;/span&gt;&lt;/span&gt;" style="ellipse;whiteSpace=wrap;html=1;align=center;" parent="1" vertex="1">
          <mxGeometry x="2460" y="370" width="100" height="40" as="geometry" />
        </mxCell>
        <mxCell id="kUGmSK84CxYYmeA2TLVb-10" value="&lt;span id=&quot;docs-internal-guid-1a675846-7fff-56e3-9de9-c93011ee3b3d&quot;&gt;&lt;span style=&quot;font-size: 11pt; font-family: Nunito, sans-serif; background-color: transparent; font-variant-numeric: normal; font-variant-east-asian: normal; font-variant-alternates: normal; font-variant-position: normal; vertical-align: baseline; white-space-collapse: preserve;&quot;&gt;District&lt;/span&gt;&lt;/span&gt;" style="ellipse;whiteSpace=wrap;html=1;align=center;" parent="1" vertex="1">
          <mxGeometry x="2110" y="417.5" width="100" height="40" as="geometry" />
        </mxCell>
        <mxCell id="kUGmSK84CxYYmeA2TLVb-11" value="&lt;span id=&quot;docs-internal-guid-e30afadd-7fff-18fc-b344-9ea702e20f42&quot;&gt;&lt;span style=&quot;font-size: 11pt; font-family: Nunito, sans-serif; background-color: transparent; font-variant-numeric: normal; font-variant-east-asian: normal; font-variant-alternates: normal; font-variant-position: normal; vertical-align: baseline; white-space-collapse: preserve;&quot;&gt;Street&lt;/span&gt;&lt;/span&gt;" style="ellipse;whiteSpace=wrap;html=1;align=center;" parent="1" vertex="1">
          <mxGeometry x="2110" y="253.75" width="100" height="40" as="geometry" />
        </mxCell>
        <mxCell id="kUGmSK84CxYYmeA2TLVb-12" value="&lt;span id=&quot;docs-internal-guid-c3c4727b-7fff-ac90-3217-b7871fd4b6b3&quot;&gt;&lt;span style=&quot;font-size: 11pt; font-family: Nunito, sans-serif; background-color: transparent; font-variant-numeric: normal; font-variant-east-asian: normal; font-variant-alternates: normal; font-variant-position: normal; vertical-align: baseline; white-space-collapse: preserve;&quot;&gt;City&lt;/span&gt;&lt;/span&gt;" style="ellipse;whiteSpace=wrap;html=1;align=center;" parent="1" vertex="1">
          <mxGeometry x="2240" y="417.5" width="100" height="40" as="geometry" />
        </mxCell>
        <mxCell id="kUGmSK84CxYYmeA2TLVb-13" value="&lt;span id=&quot;docs-internal-guid-a8c1c350-7fff-b9f8-10df-a88d4421dd1d&quot;&gt;&lt;span style=&quot;font-size: 11pt; font-family: Nunito, sans-serif; background-color: transparent; font-variant-numeric: normal; font-variant-east-asian: normal; font-variant-alternates: normal; font-variant-position: normal; vertical-align: baseline; white-space-collapse: preserve;&quot;&gt;Country&lt;/span&gt;&lt;/span&gt;" style="ellipse;whiteSpace=wrap;html=1;align=center;" parent="1" vertex="1">
          <mxGeometry x="2380" y="417.5" width="100" height="40" as="geometry" />
        </mxCell>
        <mxCell id="2AO472v2SHZd8yrCc4qn-125" style="edgeStyle=none;shape=connector;rounded=0;orthogonalLoop=1;jettySize=auto;html=1;exitX=1;exitY=0.5;exitDx=0;exitDy=0;entryX=0;entryY=0.5;entryDx=0;entryDy=0;strokeColor=default;align=center;verticalAlign=middle;fontFamily=Helvetica;fontSize=11;fontColor=default;labelBackgroundColor=default;startArrow=none;startFill=0;endArrow=none;endFill=0;" parent="1" source="kUGmSK84CxYYmeA2TLVb-14" target="kUGmSK84CxYYmeA2TLVb-46" edge="1">
          <mxGeometry relative="1" as="geometry" />
        </mxCell>
        <mxCell id="qbC479fvlcjgtYi0yi-w-5" value="M" style="edgeLabel;html=1;align=center;verticalAlign=middle;resizable=0;points=[];" parent="2AO472v2SHZd8yrCc4qn-125" connectable="0" vertex="1">
          <mxGeometry x="0.915" y="-3" relative="1" as="geometry">
            <mxPoint as="offset" />
          </mxGeometry>
        </mxCell>
        <mxCell id="2AO472v2SHZd8yrCc4qn-138" style="edgeStyle=none;shape=connector;rounded=0;orthogonalLoop=1;jettySize=auto;html=1;exitX=0;exitY=0;exitDx=0;exitDy=0;entryX=1;entryY=1;entryDx=0;entryDy=0;strokeColor=default;align=center;verticalAlign=middle;fontFamily=Helvetica;fontSize=11;fontColor=default;labelBackgroundColor=default;startArrow=none;startFill=0;endArrow=none;endFill=0;" parent="1" source="kUGmSK84CxYYmeA2TLVb-14" target="kUGmSK84CxYYmeA2TLVb-15" edge="1">
          <mxGeometry relative="1" as="geometry" />
        </mxCell>
        <mxCell id="2AO472v2SHZd8yrCc4qn-139" style="edgeStyle=none;shape=connector;rounded=0;orthogonalLoop=1;jettySize=auto;html=1;exitX=1;exitY=0;exitDx=0;exitDy=0;entryX=0;entryY=1;entryDx=0;entryDy=0;strokeColor=default;align=center;verticalAlign=middle;fontFamily=Helvetica;fontSize=11;fontColor=default;labelBackgroundColor=default;startArrow=none;startFill=0;endArrow=none;endFill=0;" parent="1" source="kUGmSK84CxYYmeA2TLVb-14" target="kUGmSK84CxYYmeA2TLVb-17" edge="1">
          <mxGeometry relative="1" as="geometry" />
        </mxCell>
        <mxCell id="2AO472v2SHZd8yrCc4qn-140" style="edgeStyle=none;shape=connector;rounded=0;orthogonalLoop=1;jettySize=auto;html=1;exitX=0.25;exitY=0;exitDx=0;exitDy=0;entryX=1;entryY=1;entryDx=0;entryDy=0;strokeColor=default;align=center;verticalAlign=middle;fontFamily=Helvetica;fontSize=11;fontColor=default;labelBackgroundColor=default;startArrow=none;startFill=0;endArrow=none;endFill=0;" parent="1" source="kUGmSK84CxYYmeA2TLVb-14" target="kUGmSK84CxYYmeA2TLVb-18" edge="1">
          <mxGeometry relative="1" as="geometry" />
        </mxCell>
        <mxCell id="2AO472v2SHZd8yrCc4qn-141" style="edgeStyle=none;shape=connector;rounded=0;orthogonalLoop=1;jettySize=auto;html=1;exitX=0.75;exitY=0;exitDx=0;exitDy=0;entryX=0;entryY=1;entryDx=0;entryDy=0;strokeColor=default;align=center;verticalAlign=middle;fontFamily=Helvetica;fontSize=11;fontColor=default;labelBackgroundColor=default;startArrow=none;startFill=0;endArrow=none;endFill=0;" parent="1" source="kUGmSK84CxYYmeA2TLVb-14" target="kUGmSK84CxYYmeA2TLVb-20" edge="1">
          <mxGeometry relative="1" as="geometry" />
        </mxCell>
        <mxCell id="2AO472v2SHZd8yrCc4qn-147" style="edgeStyle=none;shape=connector;rounded=0;orthogonalLoop=1;jettySize=auto;html=1;exitX=0.5;exitY=1;exitDx=0;exitDy=0;entryX=0.5;entryY=0;entryDx=0;entryDy=0;strokeColor=default;align=center;verticalAlign=middle;fontFamily=Helvetica;fontSize=11;fontColor=default;labelBackgroundColor=default;startArrow=none;startFill=0;endArrow=none;endFill=0;" parent="1" source="kUGmSK84CxYYmeA2TLVb-14" target="kUGmSK84CxYYmeA2TLVb-23" edge="1">
          <mxGeometry relative="1" as="geometry" />
        </mxCell>
        <mxCell id="2AO472v2SHZd8yrCc4qn-148" style="edgeStyle=none;shape=connector;rounded=0;orthogonalLoop=1;jettySize=auto;html=1;exitX=0.5;exitY=1;exitDx=0;exitDy=0;entryX=0;entryY=0.5;entryDx=0;entryDy=0;strokeColor=default;align=center;verticalAlign=middle;fontFamily=Helvetica;fontSize=11;fontColor=default;labelBackgroundColor=default;startArrow=none;startFill=0;endArrow=none;endFill=0;" parent="1" source="kUGmSK84CxYYmeA2TLVb-14" target="kUGmSK84CxYYmeA2TLVb-19" edge="1">
          <mxGeometry relative="1" as="geometry" />
        </mxCell>
        <mxCell id="2AO472v2SHZd8yrCc4qn-149" style="edgeStyle=none;shape=connector;rounded=0;orthogonalLoop=1;jettySize=auto;html=1;exitX=0.75;exitY=1;exitDx=0;exitDy=0;entryX=0;entryY=0.5;entryDx=0;entryDy=0;strokeColor=default;align=center;verticalAlign=middle;fontFamily=Helvetica;fontSize=11;fontColor=default;labelBackgroundColor=default;startArrow=none;startFill=0;endArrow=none;endFill=0;" parent="1" source="kUGmSK84CxYYmeA2TLVb-14" target="kUGmSK84CxYYmeA2TLVb-25" edge="1">
          <mxGeometry relative="1" as="geometry" />
        </mxCell>
        <mxCell id="2AO472v2SHZd8yrCc4qn-150" style="edgeStyle=none;shape=connector;rounded=0;orthogonalLoop=1;jettySize=auto;html=1;exitX=1;exitY=1;exitDx=0;exitDy=0;entryX=0;entryY=0.5;entryDx=0;entryDy=0;strokeColor=default;align=center;verticalAlign=middle;fontFamily=Helvetica;fontSize=11;fontColor=default;labelBackgroundColor=default;startArrow=none;startFill=0;endArrow=none;endFill=0;" parent="1" source="kUGmSK84CxYYmeA2TLVb-14" target="kUGmSK84CxYYmeA2TLVb-22" edge="1">
          <mxGeometry relative="1" as="geometry" />
        </mxCell>
        <mxCell id="KNh2fPOEmaXS--vwUIk--4" style="edgeStyle=none;rounded=0;orthogonalLoop=1;jettySize=auto;html=1;exitX=0.5;exitY=1;exitDx=0;exitDy=0;entryX=0.5;entryY=0;entryDx=0;entryDy=0;endArrow=none;endFill=0;" parent="1" source="kUGmSK84CxYYmeA2TLVb-14" target="KNh2fPOEmaXS--vwUIk--1" edge="1">
          <mxGeometry relative="1" as="geometry" />
        </mxCell>
        <mxCell id="o548NBkhyWZEmw0mraJG-10" style="edgeStyle=none;shape=connector;rounded=0;orthogonalLoop=1;jettySize=auto;html=1;exitX=0.5;exitY=1;exitDx=0;exitDy=0;entryX=0;entryY=0;entryDx=0;entryDy=0;strokeColor=default;align=center;verticalAlign=middle;fontFamily=Helvetica;fontSize=11;fontColor=default;labelBackgroundColor=default;endArrow=none;endFill=0;" parent="1" source="kUGmSK84CxYYmeA2TLVb-14" edge="1">
          <mxGeometry relative="1" as="geometry">
            <mxPoint x="1360" y="640" as="targetPoint" />
          </mxGeometry>
        </mxCell>
        <mxCell id="kUGmSK84CxYYmeA2TLVb-14" value="User" style="whiteSpace=wrap;html=1;align=center;" parent="1" vertex="1">
          <mxGeometry x="1310" y="330" width="100" height="40" as="geometry" />
        </mxCell>
        <mxCell id="kUGmSK84CxYYmeA2TLVb-15" value="UserID" style="ellipse;whiteSpace=wrap;html=1;align=center;fontStyle=4;" parent="1" vertex="1">
          <mxGeometry x="1180" y="273.75" width="100" height="40" as="geometry" />
        </mxCell>
        <mxCell id="kUGmSK84CxYYmeA2TLVb-17" value="&lt;span id=&quot;docs-internal-guid-6342c37f-7fff-91fa-eaf1-92a81c77c665&quot;&gt;&lt;span style=&quot;font-size: 11pt; font-family: Nunito, sans-serif; background-color: transparent; font-variant-numeric: normal; font-variant-east-asian: normal; font-variant-alternates: normal; font-variant-position: normal; vertical-align: baseline; white-space-collapse: preserve;&quot;&gt;FirstName&lt;/span&gt;&lt;/span&gt;" style="ellipse;whiteSpace=wrap;html=1;align=center;" parent="1" vertex="1">
          <mxGeometry x="1440" y="273.75" width="100" height="40" as="geometry" />
        </mxCell>
        <mxCell id="kUGmSK84CxYYmeA2TLVb-18" value="&lt;span style=&quot;font-family: Nunito, sans-serif; font-size: 14.6667px; white-space-collapse: preserve;&quot;&gt;PhoneNumber&lt;/span&gt;" style="ellipse;whiteSpace=wrap;html=1;align=center;" parent="1" vertex="1">
          <mxGeometry x="1210" y="205" width="100" height="40" as="geometry" />
        </mxCell>
        <mxCell id="kUGmSK84CxYYmeA2TLVb-19" value="&lt;font face=&quot;Nunito, sans-serif&quot;&gt;&lt;span style=&quot;font-size: 14.6667px; white-space-collapse: preserve;&quot;&gt;UserPassword&lt;/span&gt;&lt;/font&gt;" style="ellipse;whiteSpace=wrap;html=1;align=center;" parent="1" vertex="1">
          <mxGeometry x="1475" y="503.75" width="115" height="40" as="geometry" />
        </mxCell>
        <mxCell id="kUGmSK84CxYYmeA2TLVb-20" value="&lt;span id=&quot;docs-internal-guid-aa1b66dc-7fff-b7d0-15f6-23c17bc85488&quot;&gt;&lt;span style=&quot;font-size: 11pt; font-family: Nunito, sans-serif; background-color: transparent; font-variant-numeric: normal; font-variant-east-asian: normal; font-variant-alternates: normal; font-variant-position: normal; vertical-align: baseline; white-space-collapse: preserve;&quot;&gt;LastName&lt;/span&gt;&lt;/span&gt;" style="ellipse;whiteSpace=wrap;html=1;align=center;" parent="1" vertex="1">
          <mxGeometry x="1400" y="205" width="100" height="40" as="geometry" />
        </mxCell>
        <mxCell id="2AO472v2SHZd8yrCc4qn-143" style="edgeStyle=none;shape=connector;rounded=0;orthogonalLoop=1;jettySize=auto;html=1;exitX=1;exitY=0;exitDx=0;exitDy=0;entryX=0;entryY=1;entryDx=0;entryDy=0;strokeColor=default;align=center;verticalAlign=middle;fontFamily=Helvetica;fontSize=11;fontColor=default;labelBackgroundColor=default;startArrow=none;startFill=0;endArrow=none;endFill=0;" parent="1" source="kUGmSK84CxYYmeA2TLVb-21" target="kUGmSK84CxYYmeA2TLVb-14" edge="1">
          <mxGeometry relative="1" as="geometry" />
        </mxCell>
        <mxCell id="kUGmSK84CxYYmeA2TLVb-21" value="&lt;font face=&quot;Nunito, sans-serif&quot;&gt;&lt;span style=&quot;font-size: 14.6667px; white-space-collapse: preserve;&quot;&gt;Point&lt;/span&gt;&lt;/font&gt;" style="ellipse;whiteSpace=wrap;html=1;align=center;" parent="1" vertex="1">
          <mxGeometry x="1150" y="382.5" width="100" height="40" as="geometry" />
        </mxCell>
        <mxCell id="kUGmSK84CxYYmeA2TLVb-22" value="&lt;span id=&quot;docs-internal-guid-a8c1c350-7fff-b9f8-10df-a88d4421dd1d&quot;&gt;&lt;span style=&quot;font-size: 11pt; font-family: Nunito, sans-serif; background-color: transparent; font-variant-numeric: normal; font-variant-east-asian: normal; font-variant-alternates: normal; font-variant-position: normal; vertical-align: baseline; white-space-collapse: preserve;&quot;&gt;RankID&lt;/span&gt;&lt;/span&gt;" style="ellipse;whiteSpace=wrap;html=1;align=center;" parent="1" vertex="1">
          <mxGeometry x="1475" y="382.5" width="100" height="40" as="geometry" />
        </mxCell>
        <mxCell id="kUGmSK84CxYYmeA2TLVb-23" value="&lt;span id=&quot;docs-internal-guid-26c3d11f-7fff-5bf1-35b5-0568e2e1c3c4&quot;&gt;&lt;span style=&quot;font-size: 11pt; font-family: Nunito, sans-serif; background-color: transparent; font-variant-numeric: normal; font-variant-east-asian: normal; font-variant-alternates: normal; font-variant-position: normal; vertical-align: baseline; white-space-collapse: preserve;&quot;&gt;DefaultAddressID&lt;/span&gt;&lt;/span&gt;" style="ellipse;whiteSpace=wrap;html=1;align=center;" parent="1" vertex="1">
          <mxGeometry x="1220" y="568.75" width="130" height="40" as="geometry" />
        </mxCell>
        <mxCell id="2AO472v2SHZd8yrCc4qn-144" style="edgeStyle=none;shape=connector;rounded=0;orthogonalLoop=1;jettySize=auto;html=1;exitX=1;exitY=0.5;exitDx=0;exitDy=0;entryX=0.25;entryY=1;entryDx=0;entryDy=0;strokeColor=default;align=center;verticalAlign=middle;fontFamily=Helvetica;fontSize=11;fontColor=default;labelBackgroundColor=default;startArrow=none;startFill=0;endArrow=none;endFill=0;" parent="1" source="kUGmSK84CxYYmeA2TLVb-24" target="kUGmSK84CxYYmeA2TLVb-14" edge="1">
          <mxGeometry relative="1" as="geometry" />
        </mxCell>
        <mxCell id="kUGmSK84CxYYmeA2TLVb-24" value="&lt;span id=&quot;docs-internal-guid-2e74f4ca-7fff-12ec-06d2-c3a0a8481d4d&quot;&gt;&lt;span style=&quot;font-size: 11pt; font-family: Nunito, sans-serif; background-color: transparent; font-variant-numeric: normal; font-variant-east-asian: normal; font-variant-alternates: normal; font-variant-position: normal; vertical-align: baseline; white-space-collapse: preserve;&quot;&gt;TotalOrder&lt;/span&gt;&lt;/span&gt;" style="ellipse;whiteSpace=wrap;html=1;align=center;" parent="1" vertex="1">
          <mxGeometry x="1150" y="445" width="100" height="40" as="geometry" />
        </mxCell>
        <mxCell id="kUGmSK84CxYYmeA2TLVb-25" value="&lt;span id=&quot;docs-internal-guid-270c8280-7fff-2e02-9d2c-ec39dd92efa6&quot;&gt;&lt;span style=&quot;font-size: 11pt; font-family: Nunito, sans-serif; background-color: transparent; font-variant-numeric: normal; font-variant-east-asian: normal; font-variant-alternates: normal; font-variant-position: normal; vertical-align: baseline; white-space-collapse: preserve;&quot;&gt;Birthdate&lt;/span&gt;&lt;/span&gt;" style="ellipse;whiteSpace=wrap;html=1;align=center;" parent="1" vertex="1">
          <mxGeometry x="1475" y="445" width="100" height="40" as="geometry" />
        </mxCell>
        <mxCell id="2AO472v2SHZd8yrCc4qn-145" style="edgeStyle=none;shape=connector;rounded=0;orthogonalLoop=1;jettySize=auto;html=1;exitX=1;exitY=0.5;exitDx=0;exitDy=0;entryX=0.5;entryY=1;entryDx=0;entryDy=0;strokeColor=default;align=center;verticalAlign=middle;fontFamily=Helvetica;fontSize=11;fontColor=default;labelBackgroundColor=default;startArrow=none;startFill=0;endArrow=none;endFill=0;" parent="1" source="kUGmSK84CxYYmeA2TLVb-26" target="kUGmSK84CxYYmeA2TLVb-14" edge="1">
          <mxGeometry relative="1" as="geometry" />
        </mxCell>
        <mxCell id="kUGmSK84CxYYmeA2TLVb-26" value="&lt;span id=&quot;docs-internal-guid-2eb6ecae-7fff-5aa6-c594-037ab27fa70f&quot;&gt;&lt;span style=&quot;font-size: 11pt; font-family: Nunito, sans-serif; background-color: transparent; font-variant-numeric: normal; font-variant-east-asian: normal; font-variant-alternates: normal; font-variant-position: normal; vertical-align: baseline; white-space-collapse: preserve;&quot;&gt;Sex&lt;/span&gt;&lt;/span&gt;" style="ellipse;whiteSpace=wrap;html=1;align=center;" parent="1" vertex="1">
          <mxGeometry x="1150" y="503.75" width="100" height="40" as="geometry" />
        </mxCell>
        <mxCell id="2AO472v2SHZd8yrCc4qn-78" style="edgeStyle=none;shape=connector;rounded=0;orthogonalLoop=1;jettySize=auto;html=1;exitX=1;exitY=0.5;exitDx=0;exitDy=0;entryX=0;entryY=0.5;entryDx=0;entryDy=0;strokeColor=default;align=center;verticalAlign=middle;fontFamily=Helvetica;fontSize=11;fontColor=default;labelBackgroundColor=default;startArrow=none;startFill=0;endArrow=none;endFill=0;" parent="1" source="kUGmSK84CxYYmeA2TLVb-28" target="kUGmSK84CxYYmeA2TLVb-54" edge="1">
          <mxGeometry relative="1" as="geometry" />
        </mxCell>
        <mxCell id="HPnxTQOR68N8aq0mR1YZ-4" value="M" style="edgeLabel;html=1;align=center;verticalAlign=middle;resizable=0;points=[];" parent="2AO472v2SHZd8yrCc4qn-78" connectable="0" vertex="1">
          <mxGeometry x="0.9536" y="-3" relative="1" as="geometry">
            <mxPoint as="offset" />
          </mxGeometry>
        </mxCell>
        <mxCell id="3paW3BKc-gljnEik5YWG-42" style="edgeStyle=none;shape=connector;rounded=0;orthogonalLoop=1;jettySize=auto;html=1;exitX=0;exitY=1;exitDx=0;exitDy=0;entryX=1;entryY=0.5;entryDx=0;entryDy=0;strokeColor=default;align=center;verticalAlign=middle;fontFamily=Helvetica;fontSize=11;fontColor=default;labelBackgroundColor=default;endArrow=none;endFill=0;" parent="1" source="kUGmSK84CxYYmeA2TLVb-28" target="kUGmSK84CxYYmeA2TLVb-30" edge="1">
          <mxGeometry relative="1" as="geometry" />
        </mxCell>
        <mxCell id="3paW3BKc-gljnEik5YWG-45" style="edgeStyle=none;shape=connector;rounded=0;orthogonalLoop=1;jettySize=auto;html=1;exitX=0;exitY=0;exitDx=0;exitDy=0;entryX=1;entryY=0.5;entryDx=0;entryDy=0;strokeColor=default;align=center;verticalAlign=middle;fontFamily=Helvetica;fontSize=11;fontColor=default;labelBackgroundColor=default;endArrow=none;endFill=0;" parent="1" source="kUGmSK84CxYYmeA2TLVb-28" target="kUGmSK84CxYYmeA2TLVb-31" edge="1">
          <mxGeometry relative="1" as="geometry" />
        </mxCell>
        <mxCell id="3paW3BKc-gljnEik5YWG-47" style="edgeStyle=none;shape=connector;rounded=0;orthogonalLoop=1;jettySize=auto;html=1;exitX=0;exitY=0.25;exitDx=0;exitDy=0;entryX=1;entryY=0.5;entryDx=0;entryDy=0;strokeColor=default;align=center;verticalAlign=middle;fontFamily=Helvetica;fontSize=11;fontColor=default;labelBackgroundColor=default;endArrow=none;endFill=0;" parent="1" source="kUGmSK84CxYYmeA2TLVb-28" target="kUGmSK84CxYYmeA2TLVb-34" edge="1">
          <mxGeometry relative="1" as="geometry" />
        </mxCell>
        <mxCell id="3paW3BKc-gljnEik5YWG-48" style="edgeStyle=none;shape=connector;rounded=0;orthogonalLoop=1;jettySize=auto;html=1;exitX=0;exitY=0.75;exitDx=0;exitDy=0;entryX=1;entryY=0.5;entryDx=0;entryDy=0;strokeColor=default;align=center;verticalAlign=middle;fontFamily=Helvetica;fontSize=11;fontColor=default;labelBackgroundColor=default;endArrow=none;endFill=0;" parent="1" source="kUGmSK84CxYYmeA2TLVb-28" target="kUGmSK84CxYYmeA2TLVb-32" edge="1">
          <mxGeometry relative="1" as="geometry" />
        </mxCell>
        <mxCell id="NJM9Babi9aSVDOlBZZWm-23" style="edgeStyle=none;shape=connector;rounded=0;orthogonalLoop=1;jettySize=auto;html=1;exitX=1;exitY=1;exitDx=0;exitDy=0;entryX=0;entryY=0.5;entryDx=0;entryDy=0;strokeColor=default;align=center;verticalAlign=middle;fontFamily=Helvetica;fontSize=11;fontColor=default;labelBackgroundColor=default;endArrow=none;endFill=0;" parent="1" source="kUGmSK84CxYYmeA2TLVb-28" target="kUGmSK84CxYYmeA2TLVb-101" edge="1">
          <mxGeometry relative="1" as="geometry" />
        </mxCell>
        <mxCell id="NJM9Babi9aSVDOlBZZWm-36" value="1" style="edgeLabel;html=1;align=center;verticalAlign=middle;resizable=0;points=[];fontFamily=Helvetica;fontSize=11;fontColor=default;labelBackgroundColor=default;" parent="NJM9Babi9aSVDOlBZZWm-23" connectable="0" vertex="1">
          <mxGeometry x="0.831" y="-1" relative="1" as="geometry">
            <mxPoint as="offset" />
          </mxGeometry>
        </mxCell>
        <mxCell id="u3LLhQfRynHV-R4hmsTc-2" style="rounded=0;orthogonalLoop=1;jettySize=auto;html=1;exitX=0;exitY=0;exitDx=0;exitDy=0;entryX=1;entryY=0.5;entryDx=0;entryDy=0;endArrow=none;endFill=0;" edge="1" parent="1" source="kUGmSK84CxYYmeA2TLVb-28" target="u3LLhQfRynHV-R4hmsTc-1">
          <mxGeometry relative="1" as="geometry" />
        </mxCell>
        <mxCell id="kUGmSK84CxYYmeA2TLVb-28" value="Voucher" style="whiteSpace=wrap;html=1;align=center;" parent="1" vertex="1">
          <mxGeometry x="268.75" y="-465" width="100" height="40" as="geometry" />
        </mxCell>
        <mxCell id="u3LLhQfRynHV-R4hmsTc-3" value="" style="edgeStyle=none;shape=connector;rounded=0;orthogonalLoop=1;jettySize=auto;html=1;strokeColor=default;align=center;verticalAlign=middle;fontFamily=Helvetica;fontSize=11;fontColor=default;labelBackgroundColor=default;endArrow=none;endFill=0;" edge="1" parent="1" source="kUGmSK84CxYYmeA2TLVb-29" target="kUGmSK84CxYYmeA2TLVb-28">
          <mxGeometry relative="1" as="geometry" />
        </mxCell>
        <mxCell id="kUGmSK84CxYYmeA2TLVb-29" value="VoucherID" style="ellipse;whiteSpace=wrap;html=1;align=center;fontStyle=4;" parent="1" vertex="1">
          <mxGeometry x="110" y="-465" width="100" height="40" as="geometry" />
        </mxCell>
        <mxCell id="kUGmSK84CxYYmeA2TLVb-30" value="&lt;span id=&quot;docs-internal-guid-ce05ee34-7fff-f6b4-1346-9f48e13e8913&quot;&gt;&lt;span style=&quot;font-size: 11pt; font-family: Nunito, sans-serif; background-color: transparent; font-variant-numeric: normal; font-variant-east-asian: normal; font-variant-alternates: normal; font-variant-position: normal; vertical-align: baseline; white-space-collapse: preserve;&quot;&gt;DiscountPrice&lt;/span&gt;&lt;/span&gt;" style="ellipse;whiteSpace=wrap;html=1;align=center;" parent="1" vertex="1">
          <mxGeometry x="110" y="-340" width="100" height="40" as="geometry" />
        </mxCell>
        <mxCell id="kUGmSK84CxYYmeA2TLVb-31" value="&lt;span id=&quot;docs-internal-guid-060eb275-7fff-ccdc-f362-1feeb6e65920&quot;&gt;&lt;span style=&quot;font-size: 11pt; font-family: Nunito, sans-serif; background-color: transparent; font-variant-numeric: normal; font-variant-east-asian: normal; font-variant-alternates: normal; font-variant-position: normal; vertical-align: baseline; white-space-collapse: preserve;&quot;&gt;Code&lt;/span&gt;&lt;/span&gt;" style="ellipse;whiteSpace=wrap;html=1;align=center;" parent="1" vertex="1">
          <mxGeometry x="110" y="-590" width="100" height="40" as="geometry" />
        </mxCell>
        <mxCell id="kUGmSK84CxYYmeA2TLVb-32" value="&lt;span id=&quot;docs-internal-guid-8e447cd2-7fff-da41-a101-6d5c373583c6&quot;&gt;&lt;span style=&quot;font-size: 11pt; font-family: Nunito, sans-serif; background-color: transparent; font-variant-numeric: normal; font-variant-east-asian: normal; font-variant-alternates: normal; font-variant-position: normal; vertical-align: baseline; white-space-collapse: preserve;&quot;&gt;Name&lt;/span&gt;&lt;/span&gt;" style="ellipse;whiteSpace=wrap;html=1;align=center;" parent="1" vertex="1">
          <mxGeometry x="110" y="-400" width="100" height="40" as="geometry" />
        </mxCell>
        <mxCell id="kUGmSK84CxYYmeA2TLVb-34" value="&lt;span id=&quot;docs-internal-guid-9152c729-7fff-e894-6ff4-c0a54cc9636b&quot;&gt;&lt;span style=&quot;font-size: 11pt; font-family: Nunito, sans-serif; background-color: transparent; font-variant-numeric: normal; font-variant-east-asian: normal; font-variant-alternates: normal; font-variant-position: normal; vertical-align: baseline; white-space-collapse: preserve;&quot;&gt;MinimumPrice&lt;/span&gt;&lt;/span&gt;" style="ellipse;whiteSpace=wrap;html=1;align=center;" parent="1" vertex="1">
          <mxGeometry x="110" y="-530" width="100" height="40" as="geometry" />
        </mxCell>
        <mxCell id="u3LLhQfRynHV-R4hmsTc-4" style="edgeStyle=none;shape=connector;rounded=0;orthogonalLoop=1;jettySize=auto;html=1;exitX=1;exitY=0.5;exitDx=0;exitDy=0;entryX=0;entryY=1;entryDx=0;entryDy=0;strokeColor=default;align=center;verticalAlign=middle;fontFamily=Helvetica;fontSize=11;fontColor=default;labelBackgroundColor=default;endArrow=none;endFill=0;" edge="1" parent="1" source="kUGmSK84CxYYmeA2TLVb-37" target="kUGmSK84CxYYmeA2TLVb-28">
          <mxGeometry relative="1" as="geometry" />
        </mxCell>
        <mxCell id="kUGmSK84CxYYmeA2TLVb-37" value="&lt;span id=&quot;docs-internal-guid-b1704f43-7fff-2a74-e56f-b5cce0c26c2b&quot;&gt;&lt;span style=&quot;font-size: 11pt; font-family: Nunito, sans-serif; background-color: transparent; font-variant-numeric: normal; font-variant-east-asian: normal; font-variant-alternates: normal; font-variant-position: normal; vertical-align: baseline; white-space-collapse: preserve;&quot;&gt;DiscountPercentage&lt;/span&gt;&lt;/span&gt;" style="ellipse;whiteSpace=wrap;html=1;align=center;" parent="1" vertex="1">
          <mxGeometry x="90" y="-280" width="140" height="40" as="geometry" />
        </mxCell>
        <mxCell id="3paW3BKc-gljnEik5YWG-23" style="edgeStyle=none;shape=connector;rounded=0;orthogonalLoop=1;jettySize=auto;html=1;exitX=0.5;exitY=0;exitDx=0;exitDy=0;entryX=0.5;entryY=1;entryDx=0;entryDy=0;strokeColor=default;align=center;verticalAlign=middle;fontFamily=Helvetica;fontSize=11;fontColor=default;labelBackgroundColor=default;endArrow=none;endFill=0;" parent="1" source="kUGmSK84CxYYmeA2TLVb-38" target="kUGmSK84CxYYmeA2TLVb-43" edge="1">
          <mxGeometry relative="1" as="geometry" />
        </mxCell>
        <mxCell id="3paW3BKc-gljnEik5YWG-26" style="edgeStyle=none;shape=connector;rounded=0;orthogonalLoop=1;jettySize=auto;html=1;exitX=0.5;exitY=0;exitDx=0;exitDy=0;entryX=0;entryY=0.5;entryDx=0;entryDy=0;strokeColor=default;align=center;verticalAlign=middle;fontFamily=Helvetica;fontSize=11;fontColor=default;labelBackgroundColor=default;endArrow=none;endFill=0;" parent="1" source="kUGmSK84CxYYmeA2TLVb-38" target="kUGmSK84CxYYmeA2TLVb-41" edge="1">
          <mxGeometry relative="1" as="geometry" />
        </mxCell>
        <mxCell id="3paW3BKc-gljnEik5YWG-34" style="edgeStyle=none;shape=connector;rounded=0;orthogonalLoop=1;jettySize=auto;html=1;exitX=0.5;exitY=0;exitDx=0;exitDy=0;entryX=1;entryY=0.5;entryDx=0;entryDy=0;strokeColor=default;align=center;verticalAlign=middle;fontFamily=Helvetica;fontSize=11;fontColor=default;labelBackgroundColor=default;endArrow=none;endFill=0;" parent="1" source="kUGmSK84CxYYmeA2TLVb-38" target="kUGmSK84CxYYmeA2TLVb-40" edge="1">
          <mxGeometry relative="1" as="geometry" />
        </mxCell>
        <mxCell id="NJM9Babi9aSVDOlBZZWm-14" style="edgeStyle=none;shape=connector;rounded=0;orthogonalLoop=1;jettySize=auto;html=1;exitX=1;exitY=0.5;exitDx=0;exitDy=0;strokeColor=default;align=center;verticalAlign=middle;fontFamily=Helvetica;fontSize=11;fontColor=default;labelBackgroundColor=default;endArrow=none;endFill=0;" parent="1" source="kUGmSK84CxYYmeA2TLVb-38" edge="1">
          <mxGeometry relative="1" as="geometry">
            <mxPoint x="1360" y="640" as="targetPoint" />
          </mxGeometry>
        </mxCell>
        <mxCell id="o548NBkhyWZEmw0mraJG-14" value="M" style="edgeLabel;html=1;align=center;verticalAlign=middle;resizable=0;points=[];fontFamily=Helvetica;fontSize=11;fontColor=default;labelBackgroundColor=default;" parent="NJM9Babi9aSVDOlBZZWm-14" connectable="0" vertex="1">
          <mxGeometry x="-0.9539" relative="1" as="geometry">
            <mxPoint as="offset" />
          </mxGeometry>
        </mxCell>
        <mxCell id="kUGmSK84CxYYmeA2TLVb-38" value="Cart" style="shape=rhombus;perimeter=rhombusPerimeter;whiteSpace=wrap;html=1;align=center;" parent="1" vertex="1">
          <mxGeometry x="666.25" y="610" width="120" height="60" as="geometry" />
        </mxCell>
        <mxCell id="kUGmSK84CxYYmeA2TLVb-40" value="&lt;span id=&quot;docs-internal-guid-8151a7b8-7fff-1199-eb5f-2012eda36199&quot;&gt;&lt;span style=&quot;font-size: 11pt; font-family: Nunito, sans-serif; background-color: transparent; font-variant-numeric: normal; font-variant-east-asian: normal; font-variant-alternates: normal; font-variant-position: normal; vertical-align: baseline; white-space-collapse: preserve;&quot;&gt;ProductID&lt;/span&gt;&lt;/span&gt;" style="ellipse;whiteSpace=wrap;html=1;align=center;" parent="1" vertex="1">
          <mxGeometry x="576.25" y="542.5" width="100" height="40" as="geometry" />
        </mxCell>
        <mxCell id="kUGmSK84CxYYmeA2TLVb-41" value="&lt;span id=&quot;docs-internal-guid-d5b92939-7fff-6d2a-617b-34784ba4c5b0&quot;&gt;&lt;span style=&quot;font-size: 11pt; font-family: Nunito, sans-serif; background-color: transparent; font-variant-numeric: normal; font-variant-east-asian: normal; font-variant-alternates: normal; font-variant-position: normal; vertical-align: baseline; white-space-collapse: preserve;&quot;&gt;UserID&lt;/span&gt;&lt;/span&gt;" style="ellipse;whiteSpace=wrap;html=1;align=center;" parent="1" vertex="1">
          <mxGeometry x="776.25" y="542.5" width="100" height="40" as="geometry" />
        </mxCell>
        <mxCell id="kUGmSK84CxYYmeA2TLVb-43" value="&lt;span id=&quot;docs-internal-guid-cbc29f0b-7fff-72ab-5a6a-ffc555cf7ec3&quot;&gt;&lt;span style=&quot;font-size: 11pt; font-family: Nunito, sans-serif; background-color: transparent; font-variant-numeric: normal; font-variant-east-asian: normal; font-variant-alternates: normal; font-variant-position: normal; vertical-align: baseline; white-space-collapse: preserve;&quot;&gt;Quantity&lt;/span&gt;&lt;/span&gt;" style="ellipse;whiteSpace=wrap;html=1;align=center;" parent="1" vertex="1">
          <mxGeometry x="676.25" y="470" width="100" height="40" as="geometry" />
        </mxCell>
        <mxCell id="2AO472v2SHZd8yrCc4qn-126" style="edgeStyle=none;shape=connector;rounded=0;orthogonalLoop=1;jettySize=auto;html=1;exitX=0;exitY=0;exitDx=0;exitDy=0;entryX=1;entryY=1;entryDx=0;entryDy=0;strokeColor=default;align=center;verticalAlign=middle;fontFamily=Helvetica;fontSize=11;fontColor=default;labelBackgroundColor=default;startArrow=none;startFill=0;endArrow=none;endFill=0;" parent="1" source="kUGmSK84CxYYmeA2TLVb-46" target="kUGmSK84CxYYmeA2TLVb-48" edge="1">
          <mxGeometry relative="1" as="geometry" />
        </mxCell>
        <mxCell id="2AO472v2SHZd8yrCc4qn-127" style="edgeStyle=none;shape=connector;rounded=0;orthogonalLoop=1;jettySize=auto;html=1;exitX=1;exitY=0;exitDx=0;exitDy=0;entryX=0;entryY=1;entryDx=0;entryDy=0;strokeColor=default;align=center;verticalAlign=middle;fontFamily=Helvetica;fontSize=11;fontColor=default;labelBackgroundColor=default;startArrow=none;startFill=0;endArrow=none;endFill=0;" parent="1" source="kUGmSK84CxYYmeA2TLVb-46" target="kUGmSK84CxYYmeA2TLVb-50" edge="1">
          <mxGeometry relative="1" as="geometry" />
        </mxCell>
        <mxCell id="2AO472v2SHZd8yrCc4qn-128" style="edgeStyle=none;shape=connector;rounded=0;orthogonalLoop=1;jettySize=auto;html=1;exitX=0.5;exitY=0;exitDx=0;exitDy=0;entryX=1;entryY=1;entryDx=0;entryDy=0;strokeColor=default;align=center;verticalAlign=middle;fontFamily=Helvetica;fontSize=11;fontColor=default;labelBackgroundColor=default;startArrow=none;startFill=0;endArrow=none;endFill=0;" parent="1" source="kUGmSK84CxYYmeA2TLVb-46" target="kUGmSK84CxYYmeA2TLVb-49" edge="1">
          <mxGeometry relative="1" as="geometry" />
        </mxCell>
        <mxCell id="2AO472v2SHZd8yrCc4qn-129" style="edgeStyle=none;shape=connector;rounded=0;orthogonalLoop=1;jettySize=auto;html=1;exitX=0.5;exitY=0;exitDx=0;exitDy=0;entryX=0;entryY=1;entryDx=0;entryDy=0;strokeColor=default;align=center;verticalAlign=middle;fontFamily=Helvetica;fontSize=11;fontColor=default;labelBackgroundColor=default;startArrow=none;startFill=0;endArrow=none;endFill=0;" parent="1" source="kUGmSK84CxYYmeA2TLVb-46" target="kUGmSK84CxYYmeA2TLVb-47" edge="1">
          <mxGeometry relative="1" as="geometry" />
        </mxCell>
        <mxCell id="2AO472v2SHZd8yrCc4qn-134" style="edgeStyle=none;shape=connector;rounded=0;orthogonalLoop=1;jettySize=auto;html=1;exitX=1;exitY=0.5;exitDx=0;exitDy=0;entryX=0;entryY=0.5;entryDx=0;entryDy=0;strokeColor=default;align=center;verticalAlign=middle;fontFamily=Helvetica;fontSize=11;fontColor=default;labelBackgroundColor=default;startArrow=none;startFill=0;endArrow=none;endFill=0;" parent="1" source="kUGmSK84CxYYmeA2TLVb-46" target="kUGmSK84CxYYmeA2TLVb-5" edge="1">
          <mxGeometry relative="1" as="geometry" />
        </mxCell>
        <mxCell id="HPnxTQOR68N8aq0mR1YZ-2" value="1" style="edgeLabel;html=1;align=center;verticalAlign=middle;resizable=0;points=[];" parent="2AO472v2SHZd8yrCc4qn-134" connectable="0" vertex="1">
          <mxGeometry x="-0.9226" relative="1" as="geometry">
            <mxPoint as="offset" />
          </mxGeometry>
        </mxCell>
        <mxCell id="kUGmSK84CxYYmeA2TLVb-46" value="UserAddress" style="shape=rhombus;perimeter=rhombusPerimeter;whiteSpace=wrap;html=1;align=center;" parent="1" vertex="1">
          <mxGeometry x="1810" y="320" width="120" height="60" as="geometry" />
        </mxCell>
        <mxCell id="kUGmSK84CxYYmeA2TLVb-47" value="&lt;span id=&quot;docs-internal-guid-860a6e9a-7fff-ea28-1a8f-5e93c87e9858&quot;&gt;&lt;span style=&quot;font-size: 11pt; font-family: Nunito, sans-serif; background-color: transparent; font-variant-numeric: normal; font-variant-east-asian: normal; font-variant-alternates: normal; font-variant-position: normal; vertical-align: baseline; white-space-collapse: preserve;&quot;&gt;AddressID&lt;/span&gt;&lt;/span&gt;" style="ellipse;whiteSpace=wrap;html=1;align=center;" parent="1" vertex="1">
          <mxGeometry x="1900" y="215" width="105" height="30" as="geometry" />
        </mxCell>
        <mxCell id="kUGmSK84CxYYmeA2TLVb-48" value="&lt;span id=&quot;docs-internal-guid-0d1ff501-7fff-fb7a-e9b3-701d03f8036d&quot;&gt;&lt;span style=&quot;font-size: 11pt; font-family: Nunito, sans-serif; background-color: transparent; font-variant-numeric: normal; font-variant-east-asian: normal; font-variant-alternates: normal; font-variant-position: normal; vertical-align: baseline; white-space-collapse: preserve;&quot;&gt;UserID&lt;/span&gt;&lt;/span&gt;" style="ellipse;whiteSpace=wrap;html=1;align=center;" parent="1" vertex="1">
          <mxGeometry x="1710" y="265" width="100" height="40" as="geometry" />
        </mxCell>
        <mxCell id="kUGmSK84CxYYmeA2TLVb-49" value="&lt;span id=&quot;docs-internal-guid-a123bae7-7fff-0bb3-52dc-92b589a950ed&quot;&gt;&lt;span style=&quot;font-size: 11pt; font-family: Nunito, sans-serif; background-color: transparent; font-variant-numeric: normal; font-variant-east-asian: normal; font-variant-alternates: normal; font-variant-position: normal; vertical-align: baseline; white-space-collapse: preserve;&quot;&gt;isDefault&lt;/span&gt;&lt;/span&gt;" style="ellipse;whiteSpace=wrap;html=1;align=center;" parent="1" vertex="1">
          <mxGeometry x="1740" y="210" width="100" height="40" as="geometry" />
        </mxCell>
        <mxCell id="kUGmSK84CxYYmeA2TLVb-50" value="&lt;span id=&quot;docs-internal-guid-5178028f-7fff-51a7-2f19-0ef32babc197&quot;&gt;&lt;span style=&quot;font-size: 11pt; font-family: Nunito, sans-serif; background-color: transparent; font-variant-numeric: normal; font-variant-east-asian: normal; font-variant-alternates: normal; font-variant-position: normal; vertical-align: baseline; white-space-collapse: preserve;&quot;&gt;Type&lt;/span&gt;&lt;/span&gt;" style="ellipse;whiteSpace=wrap;html=1;align=center;" parent="1" vertex="1">
          <mxGeometry x="1930" y="265" width="100" height="40" as="geometry" />
        </mxCell>
        <mxCell id="2AO472v2SHZd8yrCc4qn-121" style="edgeStyle=none;shape=connector;rounded=0;orthogonalLoop=1;jettySize=auto;html=1;exitX=0.5;exitY=1;exitDx=0;exitDy=0;entryX=0.5;entryY=0;entryDx=0;entryDy=0;strokeColor=default;align=center;verticalAlign=middle;fontFamily=Helvetica;fontSize=11;fontColor=default;labelBackgroundColor=default;startArrow=none;startFill=0;endArrow=none;endFill=0;" parent="1" source="kUGmSK84CxYYmeA2TLVb-54" target="kUGmSK84CxYYmeA2TLVb-14" edge="1">
          <mxGeometry relative="1" as="geometry" />
        </mxCell>
        <mxCell id="HPnxTQOR68N8aq0mR1YZ-3" value="M" style="edgeLabel;html=1;align=center;verticalAlign=middle;resizable=0;points=[];" parent="2AO472v2SHZd8yrCc4qn-121" connectable="0" vertex="1">
          <mxGeometry x="-0.9309" y="1" relative="1" as="geometry">
            <mxPoint as="offset" />
          </mxGeometry>
        </mxCell>
        <mxCell id="2AO472v2SHZd8yrCc4qn-131" style="edgeStyle=none;shape=connector;rounded=0;orthogonalLoop=1;jettySize=auto;html=1;exitX=1;exitY=0.5;exitDx=0;exitDy=0;entryX=0;entryY=0.5;entryDx=0;entryDy=0;strokeColor=default;align=center;verticalAlign=middle;fontFamily=Helvetica;fontSize=11;fontColor=default;labelBackgroundColor=default;startArrow=none;startFill=0;endArrow=none;endFill=0;" parent="1" source="kUGmSK84CxYYmeA2TLVb-54" target="kUGmSK84CxYYmeA2TLVb-57" edge="1">
          <mxGeometry relative="1" as="geometry" />
        </mxCell>
        <mxCell id="2AO472v2SHZd8yrCc4qn-132" style="edgeStyle=none;shape=connector;rounded=0;orthogonalLoop=1;jettySize=auto;html=1;exitX=1;exitY=0;exitDx=0;exitDy=0;entryX=0;entryY=1;entryDx=0;entryDy=0;strokeColor=default;align=center;verticalAlign=middle;fontFamily=Helvetica;fontSize=11;fontColor=default;labelBackgroundColor=default;startArrow=none;startFill=0;endArrow=none;endFill=0;" parent="1" source="kUGmSK84CxYYmeA2TLVb-54" target="kUGmSK84CxYYmeA2TLVb-55" edge="1">
          <mxGeometry relative="1" as="geometry" />
        </mxCell>
        <mxCell id="kUGmSK84CxYYmeA2TLVb-54" value="UserVoucher" style="shape=rhombus;perimeter=rhombusPerimeter;whiteSpace=wrap;html=1;align=center;" parent="1" vertex="1">
          <mxGeometry x="1300" y="-479.37" width="120" height="60" as="geometry" />
        </mxCell>
        <mxCell id="kUGmSK84CxYYmeA2TLVb-55" value="&lt;span id=&quot;docs-internal-guid-e4fe3c99-7fff-af80-c840-95bb250e1b15&quot;&gt;&lt;span style=&quot;font-size: 11pt; font-family: Nunito, sans-serif; background-color: transparent; font-variant-numeric: normal; font-variant-east-asian: normal; font-variant-alternates: normal; font-variant-position: normal; vertical-align: baseline; white-space-collapse: preserve;&quot;&gt;VoucherID&lt;/span&gt;&lt;/span&gt;" style="ellipse;whiteSpace=wrap;html=1;align=center;" parent="1" vertex="1">
          <mxGeometry x="1420" y="-530.62" width="105" height="40" as="geometry" />
        </mxCell>
        <mxCell id="2AO472v2SHZd8yrCc4qn-130" style="edgeStyle=none;shape=connector;rounded=0;orthogonalLoop=1;jettySize=auto;html=1;exitX=0.5;exitY=1;exitDx=0;exitDy=0;entryX=0.5;entryY=0;entryDx=0;entryDy=0;strokeColor=default;align=center;verticalAlign=middle;fontFamily=Helvetica;fontSize=11;fontColor=default;labelBackgroundColor=default;startArrow=none;startFill=0;endArrow=none;endFill=0;" parent="1" source="kUGmSK84CxYYmeA2TLVb-56" target="kUGmSK84CxYYmeA2TLVb-54" edge="1">
          <mxGeometry relative="1" as="geometry" />
        </mxCell>
        <mxCell id="kUGmSK84CxYYmeA2TLVb-56" value="&lt;span id=&quot;docs-internal-guid-fd8716b4-7fff-c107-dd2f-75d1bb2484d3&quot;&gt;&lt;span style=&quot;font-size: 11pt; font-family: Nunito, sans-serif; background-color: transparent; font-variant-numeric: normal; font-variant-east-asian: normal; font-variant-alternates: normal; font-variant-position: normal; vertical-align: baseline; white-space-collapse: preserve;&quot;&gt;UserID&lt;/span&gt;&lt;/span&gt;" style="ellipse;whiteSpace=wrap;html=1;align=center;" parent="1" vertex="1">
          <mxGeometry x="1310" y="-570.62" width="100" height="40" as="geometry" />
        </mxCell>
        <mxCell id="kUGmSK84CxYYmeA2TLVb-57" value="&lt;span id=&quot;docs-internal-guid-a123bae7-7fff-0bb3-52dc-92b589a950ed&quot;&gt;&lt;span style=&quot;font-size: 11pt; font-family: Nunito, sans-serif; background-color: transparent; font-variant-numeric: normal; font-variant-east-asian: normal; font-variant-alternates: normal; font-variant-position: normal; vertical-align: baseline; white-space-collapse: preserve;&quot;&gt;isUsed&lt;/span&gt;&lt;/span&gt;" style="ellipse;whiteSpace=wrap;html=1;align=center;" parent="1" vertex="1">
          <mxGeometry x="1475" y="-469.37" width="100" height="40" as="geometry" />
        </mxCell>
        <mxCell id="MBNyQJfrEvlR8FQnQ0IK-47" style="edgeStyle=none;shape=connector;rounded=0;orthogonalLoop=1;jettySize=auto;html=1;exitX=0.25;exitY=0;exitDx=0;exitDy=0;entryX=1;entryY=1;entryDx=0;entryDy=0;strokeColor=default;align=center;verticalAlign=middle;fontFamily=Helvetica;fontSize=11;fontColor=default;labelBackgroundColor=default;endArrow=none;endFill=0;" parent="1" source="kUGmSK84CxYYmeA2TLVb-69" target="kUGmSK84CxYYmeA2TLVb-73" edge="1">
          <mxGeometry relative="1" as="geometry" />
        </mxCell>
        <mxCell id="MBNyQJfrEvlR8FQnQ0IK-48" style="edgeStyle=none;shape=connector;rounded=0;orthogonalLoop=1;jettySize=auto;html=1;exitX=0.25;exitY=1;exitDx=0;exitDy=0;entryX=1;entryY=0;entryDx=0;entryDy=0;strokeColor=default;align=center;verticalAlign=middle;fontFamily=Helvetica;fontSize=11;fontColor=default;labelBackgroundColor=default;endArrow=none;endFill=0;" parent="1" target="kUGmSK84CxYYmeA2TLVb-72" edge="1">
          <mxGeometry relative="1" as="geometry">
            <mxPoint x="-295" y="1808.75" as="sourcePoint" />
          </mxGeometry>
        </mxCell>
        <mxCell id="MBNyQJfrEvlR8FQnQ0IK-58" style="edgeStyle=none;shape=connector;rounded=0;orthogonalLoop=1;jettySize=auto;html=1;exitX=1;exitY=0.5;exitDx=0;exitDy=0;entryX=0;entryY=0.5;entryDx=0;entryDy=0;strokeColor=default;align=center;verticalAlign=middle;fontFamily=Helvetica;fontSize=11;fontColor=default;labelBackgroundColor=default;endArrow=none;endFill=0;" parent="1" source="kUGmSK84CxYYmeA2TLVb-69" target="kUGmSK84CxYYmeA2TLVb-117" edge="1">
          <mxGeometry relative="1" as="geometry" />
        </mxCell>
        <mxCell id="HPnxTQOR68N8aq0mR1YZ-9" style="rounded=0;orthogonalLoop=1;jettySize=auto;html=1;exitX=0;exitY=0.5;exitDx=0;exitDy=0;entryX=1;entryY=0.5;entryDx=0;entryDy=0;endArrow=none;endFill=0;" parent="1" source="kUGmSK84CxYYmeA2TLVb-69" target="kUGmSK84CxYYmeA2TLVb-70" edge="1">
          <mxGeometry relative="1" as="geometry" />
        </mxCell>
        <mxCell id="HPnxTQOR68N8aq0mR1YZ-10" style="edgeStyle=none;shape=connector;rounded=0;orthogonalLoop=1;jettySize=auto;html=1;exitX=0;exitY=0.5;exitDx=0;exitDy=0;entryX=1;entryY=0.5;entryDx=0;entryDy=0;strokeColor=default;align=center;verticalAlign=middle;fontFamily=Helvetica;fontSize=11;fontColor=default;labelBackgroundColor=default;endArrow=none;endFill=0;" parent="1" source="kUGmSK84CxYYmeA2TLVb-69" target="kUGmSK84CxYYmeA2TLVb-77" edge="1">
          <mxGeometry relative="1" as="geometry" />
        </mxCell>
        <mxCell id="HPnxTQOR68N8aq0mR1YZ-11" style="edgeStyle=none;shape=connector;rounded=0;orthogonalLoop=1;jettySize=auto;html=1;exitX=0;exitY=0.75;exitDx=0;exitDy=0;entryX=1;entryY=0.5;entryDx=0;entryDy=0;strokeColor=default;align=center;verticalAlign=middle;fontFamily=Helvetica;fontSize=11;fontColor=default;labelBackgroundColor=default;endArrow=none;endFill=0;" parent="1" source="kUGmSK84CxYYmeA2TLVb-69" target="kUGmSK84CxYYmeA2TLVb-74" edge="1">
          <mxGeometry relative="1" as="geometry" />
        </mxCell>
        <mxCell id="HPnxTQOR68N8aq0mR1YZ-12" style="edgeStyle=none;shape=connector;rounded=0;orthogonalLoop=1;jettySize=auto;html=1;exitX=0;exitY=0.25;exitDx=0;exitDy=0;entryX=1;entryY=0.5;entryDx=0;entryDy=0;strokeColor=default;align=center;verticalAlign=middle;fontFamily=Helvetica;fontSize=11;fontColor=default;labelBackgroundColor=default;endArrow=none;endFill=0;" parent="1" source="kUGmSK84CxYYmeA2TLVb-69" target="kUGmSK84CxYYmeA2TLVb-71" edge="1">
          <mxGeometry relative="1" as="geometry" />
        </mxCell>
        <mxCell id="JpRZJyVsBUKwa7XbCyLB-3" style="edgeStyle=none;shape=connector;rounded=0;orthogonalLoop=1;jettySize=auto;html=1;exitX=1;exitY=0;exitDx=0;exitDy=0;entryX=0;entryY=1;entryDx=0;entryDy=0;strokeColor=default;align=center;verticalAlign=middle;fontFamily=Helvetica;fontSize=11;fontColor=default;labelBackgroundColor=default;endArrow=none;endFill=0;" parent="1" source="kUGmSK84CxYYmeA2TLVb-69" target="3m3aPgfmtLn6Pp9jb0K6-4" edge="1">
          <mxGeometry relative="1" as="geometry" />
        </mxCell>
        <mxCell id="yVqubIJeU8RXYRg0h4uB-39" value="M" style="edgeLabel;html=1;align=center;verticalAlign=middle;resizable=0;points=[];fontFamily=Helvetica;fontSize=11;fontColor=default;labelBackgroundColor=default;" parent="JpRZJyVsBUKwa7XbCyLB-3" vertex="1" connectable="0">
          <mxGeometry x="0.7404" y="1" relative="1" as="geometry">
            <mxPoint as="offset" />
          </mxGeometry>
        </mxCell>
        <mxCell id="u3LLhQfRynHV-R4hmsTc-8" style="edgeStyle=none;shape=connector;rounded=0;orthogonalLoop=1;jettySize=auto;html=1;exitX=0.5;exitY=1;exitDx=0;exitDy=0;entryX=0.5;entryY=0;entryDx=0;entryDy=0;strokeColor=default;align=center;verticalAlign=middle;fontFamily=Helvetica;fontSize=11;fontColor=default;labelBackgroundColor=default;endArrow=none;endFill=0;" edge="1" parent="1" source="kUGmSK84CxYYmeA2TLVb-69" target="u3LLhQfRynHV-R4hmsTc-7">
          <mxGeometry relative="1" as="geometry" />
        </mxCell>
        <mxCell id="kUGmSK84CxYYmeA2TLVb-69" value="Order" style="whiteSpace=wrap;html=1;align=center;" parent="1" vertex="1">
          <mxGeometry x="-320" y="1788.75" width="100" height="40" as="geometry" />
        </mxCell>
        <mxCell id="kUGmSK84CxYYmeA2TLVb-70" value="OrderID" style="ellipse;whiteSpace=wrap;html=1;align=center;fontStyle=4;" parent="1" vertex="1">
          <mxGeometry x="-677.5" y="1760" width="136.25" height="40" as="geometry" />
        </mxCell>
        <mxCell id="kUGmSK84CxYYmeA2TLVb-71" value="&lt;span id=&quot;docs-internal-guid-a82fd9c0-7fff-511f-fed2-78c3a616331d&quot;&gt;&lt;span style=&quot;font-size: 11pt; font-family: Nunito, sans-serif; background-color: transparent; font-variant-numeric: normal; font-variant-east-asian: normal; font-variant-alternates: normal; font-variant-position: normal; vertical-align: baseline; white-space-collapse: preserve;&quot;&gt;OrderStatusID&lt;/span&gt;&lt;/span&gt;" style="ellipse;whiteSpace=wrap;html=1;align=center;" parent="1" vertex="1">
          <mxGeometry x="-530" y="1730" width="112.5" height="40" as="geometry" />
        </mxCell>
        <mxCell id="kUGmSK84CxYYmeA2TLVb-72" value="&lt;span id=&quot;docs-internal-guid-fb8ceb70-7fff-069b-1b77-6b62fb9bafd8&quot;&gt;&lt;span style=&quot;font-size: 11pt; font-family: Nunito, sans-serif; background-color: transparent; font-variant-numeric: normal; font-variant-east-asian: normal; font-variant-alternates: normal; font-variant-position: normal; vertical-align: baseline; white-space-collapse: preserve;&quot;&gt;UserID&lt;/span&gt;&lt;/span&gt;" style="ellipse;whiteSpace=wrap;html=1;align=center;" parent="1" vertex="1">
          <mxGeometry x="-427.5" y="1900" width="100" height="40" as="geometry" />
        </mxCell>
        <mxCell id="kUGmSK84CxYYmeA2TLVb-73" value="&lt;span id=&quot;docs-internal-guid-3d519b05-7fff-1494-5707-b6e36891d1b5&quot;&gt;&lt;span style=&quot;font-size: 11pt; font-family: Nunito, sans-serif; background-color: transparent; font-variant-numeric: normal; font-variant-east-asian: normal; font-variant-alternates: normal; font-variant-position: normal; vertical-align: baseline; white-space-collapse: preserve;&quot;&gt;TotalPrice&lt;/span&gt;&lt;/span&gt;" style="ellipse;whiteSpace=wrap;html=1;align=center;" parent="1" vertex="1">
          <mxGeometry x="-427.5" y="1690" width="100" height="40" as="geometry" />
        </mxCell>
        <mxCell id="kUGmSK84CxYYmeA2TLVb-74" value="&lt;span id=&quot;docs-internal-guid-8f3e76c0-7fff-6279-02ed-b64e002400ef&quot;&gt;&lt;span style=&quot;font-size: 11pt; font-family: Nunito, sans-serif; background-color: transparent; font-variant-numeric: normal; font-variant-east-asian: normal; font-variant-alternates: normal; font-variant-position: normal; vertical-align: baseline; white-space-collapse: preserve;&quot;&gt;DateOrdered&lt;/span&gt;&lt;/span&gt;" style="ellipse;whiteSpace=wrap;html=1;align=center;" parent="1" vertex="1">
          <mxGeometry x="-530" y="1860" width="112.5" height="40" as="geometry" />
        </mxCell>
        <mxCell id="kUGmSK84CxYYmeA2TLVb-77" value="&lt;span id=&quot;docs-internal-guid-eae00db4-7fff-935a-a030-5759fe1238f2&quot;&gt;&lt;span style=&quot;font-size: 11pt; font-family: Nunito, sans-serif; background-color: transparent; font-variant-numeric: normal; font-variant-east-asian: normal; font-variant-alternates: normal; font-variant-position: normal; vertical-align: baseline; white-space-collapse: preserve;&quot;&gt;DeliveryAddressID&lt;/span&gt;&lt;/span&gt;" style="ellipse;whiteSpace=wrap;html=1;align=center;" parent="1" vertex="1">
          <mxGeometry x="-677.5" y="1820" width="135" height="40" as="geometry" />
        </mxCell>
        <mxCell id="MBNyQJfrEvlR8FQnQ0IK-26" style="edgeStyle=none;shape=connector;rounded=0;orthogonalLoop=1;jettySize=auto;html=1;exitX=1;exitY=0.5;exitDx=0;exitDy=0;entryX=0;entryY=0.5;entryDx=0;entryDy=0;strokeColor=default;align=center;verticalAlign=middle;fontFamily=Helvetica;fontSize=11;fontColor=default;labelBackgroundColor=default;endArrow=none;endFill=0;" parent="1" source="kUGmSK84CxYYmeA2TLVb-78" target="gS9S2C-Xg4bSLg3sg7bz-34" edge="1">
          <mxGeometry relative="1" as="geometry" />
        </mxCell>
        <mxCell id="HPnxTQOR68N8aq0mR1YZ-13" value="M" style="edgeLabel;html=1;align=center;verticalAlign=middle;resizable=0;points=[];fontFamily=Helvetica;fontSize=11;fontColor=default;labelBackgroundColor=default;" parent="MBNyQJfrEvlR8FQnQ0IK-26" connectable="0" vertex="1">
          <mxGeometry x="-0.9245" y="2" relative="1" as="geometry">
            <mxPoint as="offset" />
          </mxGeometry>
        </mxCell>
        <mxCell id="MBNyQJfrEvlR8FQnQ0IK-56" style="edgeStyle=none;shape=connector;rounded=0;orthogonalLoop=1;jettySize=auto;html=1;exitX=0.5;exitY=1;exitDx=0;exitDy=0;entryX=0.5;entryY=0;entryDx=0;entryDy=0;strokeColor=default;align=center;verticalAlign=middle;fontFamily=Helvetica;fontSize=11;fontColor=default;labelBackgroundColor=default;endArrow=none;endFill=0;" parent="1" source="kUGmSK84CxYYmeA2TLVb-78" target="kUGmSK84CxYYmeA2TLVb-69" edge="1">
          <mxGeometry relative="1" as="geometry" />
        </mxCell>
        <mxCell id="HPnxTQOR68N8aq0mR1YZ-14" value="M" style="edgeLabel;html=1;align=center;verticalAlign=middle;resizable=0;points=[];fontFamily=Helvetica;fontSize=11;fontColor=default;labelBackgroundColor=default;" parent="MBNyQJfrEvlR8FQnQ0IK-56" connectable="0" vertex="1">
          <mxGeometry x="-0.9053" y="-1" relative="1" as="geometry">
            <mxPoint as="offset" />
          </mxGeometry>
        </mxCell>
        <mxCell id="NJM9Babi9aSVDOlBZZWm-3" style="edgeStyle=none;shape=connector;rounded=0;orthogonalLoop=1;jettySize=auto;html=1;exitX=0.5;exitY=1;exitDx=0;exitDy=0;entryX=1;entryY=0;entryDx=0;entryDy=0;strokeColor=default;align=center;verticalAlign=middle;fontFamily=Helvetica;fontSize=11;fontColor=default;labelBackgroundColor=default;endArrow=none;endFill=0;" parent="1" source="kUGmSK84CxYYmeA2TLVb-78" target="HPnxTQOR68N8aq0mR1YZ-18" edge="1">
          <mxGeometry relative="1" as="geometry" />
        </mxCell>
        <mxCell id="NJM9Babi9aSVDOlBZZWm-5" style="edgeStyle=none;shape=connector;rounded=0;orthogonalLoop=1;jettySize=auto;html=1;exitX=0;exitY=0;exitDx=0;exitDy=0;entryX=1;entryY=0.5;entryDx=0;entryDy=0;strokeColor=default;align=center;verticalAlign=middle;fontFamily=Helvetica;fontSize=11;fontColor=default;labelBackgroundColor=default;endArrow=none;endFill=0;" parent="1" source="kUGmSK84CxYYmeA2TLVb-78" target="kUGmSK84CxYYmeA2TLVb-80" edge="1">
          <mxGeometry relative="1" as="geometry" />
        </mxCell>
        <mxCell id="NJM9Babi9aSVDOlBZZWm-7" style="edgeStyle=none;shape=connector;rounded=0;orthogonalLoop=1;jettySize=auto;html=1;exitX=0;exitY=0.5;exitDx=0;exitDy=0;entryX=1;entryY=0.5;entryDx=0;entryDy=0;strokeColor=default;align=center;verticalAlign=middle;fontFamily=Helvetica;fontSize=11;fontColor=default;labelBackgroundColor=default;endArrow=none;endFill=0;" parent="1" source="kUGmSK84CxYYmeA2TLVb-78" target="HPnxTQOR68N8aq0mR1YZ-15" edge="1">
          <mxGeometry relative="1" as="geometry" />
        </mxCell>
        <mxCell id="NJM9Babi9aSVDOlBZZWm-8" style="edgeStyle=none;shape=connector;rounded=0;orthogonalLoop=1;jettySize=auto;html=1;exitX=0;exitY=0.5;exitDx=0;exitDy=0;entryX=1;entryY=0.5;entryDx=0;entryDy=0;strokeColor=default;align=center;verticalAlign=middle;fontFamily=Helvetica;fontSize=11;fontColor=default;labelBackgroundColor=default;endArrow=none;endFill=0;" parent="1" source="kUGmSK84CxYYmeA2TLVb-78" target="HPnxTQOR68N8aq0mR1YZ-16" edge="1">
          <mxGeometry relative="1" as="geometry" />
        </mxCell>
        <mxCell id="kUGmSK84CxYYmeA2TLVb-78" value="ProductOrder" style="shape=rhombus;perimeter=rhombusPerimeter;whiteSpace=wrap;html=1;align=center;" parent="1" vertex="1">
          <mxGeometry x="-331.25" y="1038.75" width="120" height="60" as="geometry" />
        </mxCell>
        <mxCell id="kUGmSK84CxYYmeA2TLVb-80" value="&lt;span id=&quot;docs-internal-guid-0d1ff501-7fff-fb7a-e9b3-701d03f8036d&quot;&gt;&lt;span style=&quot;font-size: 11pt; font-family: Nunito, sans-serif; background-color: transparent; font-variant-numeric: normal; font-variant-east-asian: normal; font-variant-alternates: normal; font-variant-position: normal; vertical-align: baseline; white-space-collapse: preserve;&quot;&gt;Quantity&lt;/span&gt;&lt;/span&gt;" style="ellipse;whiteSpace=wrap;html=1;align=center;" parent="1" vertex="1">
          <mxGeometry x="-470" y="960" width="100" height="40" as="geometry" />
        </mxCell>
        <mxCell id="HPnxTQOR68N8aq0mR1YZ-19" style="edgeStyle=none;shape=connector;rounded=0;orthogonalLoop=1;jettySize=auto;html=1;exitX=0.75;exitY=0;exitDx=0;exitDy=0;entryX=0.5;entryY=1;entryDx=0;entryDy=0;strokeColor=default;align=center;verticalAlign=middle;fontFamily=Helvetica;fontSize=11;fontColor=default;labelBackgroundColor=default;endArrow=none;endFill=0;" parent="1" source="kUGmSK84CxYYmeA2TLVb-91" target="kUGmSK84CxYYmeA2TLVb-99" edge="1">
          <mxGeometry relative="1" as="geometry" />
        </mxCell>
        <mxCell id="HPnxTQOR68N8aq0mR1YZ-21" style="edgeStyle=none;shape=connector;rounded=0;orthogonalLoop=1;jettySize=auto;html=1;exitX=1;exitY=0;exitDx=0;exitDy=0;entryX=0;entryY=1;entryDx=0;entryDy=0;strokeColor=default;align=center;verticalAlign=middle;fontFamily=Helvetica;fontSize=11;fontColor=default;labelBackgroundColor=default;endArrow=none;endFill=0;" parent="1" source="kUGmSK84CxYYmeA2TLVb-91" target="kUGmSK84CxYYmeA2TLVb-92" edge="1">
          <mxGeometry relative="1" as="geometry" />
        </mxCell>
        <mxCell id="kUGmSK84CxYYmeA2TLVb-91" value="Event" style="whiteSpace=wrap;html=1;align=center;" parent="1" vertex="1">
          <mxGeometry x="1003.75" y="-247.5" width="100" height="40" as="geometry" />
        </mxCell>
        <mxCell id="kUGmSK84CxYYmeA2TLVb-92" value="EventID" style="ellipse;whiteSpace=wrap;html=1;align=center;fontStyle=4;" parent="1" vertex="1">
          <mxGeometry x="1123.75" y="-330" width="100" height="40" as="geometry" />
        </mxCell>
        <mxCell id="2AO472v2SHZd8yrCc4qn-95" style="edgeStyle=none;shape=connector;rounded=0;orthogonalLoop=1;jettySize=auto;html=1;exitX=1;exitY=1;exitDx=0;exitDy=0;entryX=0;entryY=0;entryDx=0;entryDy=0;strokeColor=default;align=center;verticalAlign=middle;fontFamily=Helvetica;fontSize=11;fontColor=default;labelBackgroundColor=default;startArrow=none;startFill=0;endArrow=none;endFill=0;" parent="1" source="kUGmSK84CxYYmeA2TLVb-94" target="kUGmSK84CxYYmeA2TLVb-91" edge="1">
          <mxGeometry relative="1" as="geometry" />
        </mxCell>
        <mxCell id="kUGmSK84CxYYmeA2TLVb-94" value="&lt;span id=&quot;docs-internal-guid-fb8ceb70-7fff-069b-1b77-6b62fb9bafd8&quot;&gt;&lt;span style=&quot;font-size: 11pt; font-family: Nunito, sans-serif; background-color: transparent; font-variant-numeric: normal; font-variant-east-asian: normal; font-variant-alternates: normal; font-variant-position: normal; vertical-align: baseline; white-space-collapse: preserve;&quot;&gt;EventName&lt;/span&gt;&lt;/span&gt;" style="ellipse;whiteSpace=wrap;html=1;align=center;" parent="1" vertex="1">
          <mxGeometry x="883.75" y="-330" width="100" height="40" as="geometry" />
        </mxCell>
        <mxCell id="2AO472v2SHZd8yrCc4qn-102" style="edgeStyle=none;shape=connector;rounded=0;orthogonalLoop=1;jettySize=auto;html=1;exitX=0.5;exitY=1;exitDx=0;exitDy=0;entryX=0.25;entryY=0;entryDx=0;entryDy=0;strokeColor=default;align=center;verticalAlign=middle;fontFamily=Helvetica;fontSize=11;fontColor=default;labelBackgroundColor=default;startArrow=none;startFill=0;endArrow=none;endFill=0;" parent="1" source="kUGmSK84CxYYmeA2TLVb-95" target="kUGmSK84CxYYmeA2TLVb-91" edge="1">
          <mxGeometry relative="1" as="geometry" />
        </mxCell>
        <mxCell id="kUGmSK84CxYYmeA2TLVb-95" value="&lt;span id=&quot;docs-internal-guid-3d4ae451-7fff-9413-c3eb-af902b38ef29&quot;&gt;&lt;span style=&quot;font-size: 11pt; font-family: Nunito, sans-serif; background-color: transparent; font-variant-numeric: normal; font-variant-east-asian: normal; font-variant-alternates: normal; font-variant-position: normal; vertical-align: baseline; white-space-collapse: preserve;&quot;&gt;StartDate&lt;/span&gt;&lt;/span&gt;" style="ellipse;whiteSpace=wrap;html=1;align=center;" parent="1" vertex="1">
          <mxGeometry x="948.75" y="-390" width="100" height="40" as="geometry" />
        </mxCell>
        <mxCell id="kUGmSK84CxYYmeA2TLVb-99" value="&lt;span id=&quot;docs-internal-guid-3d4ae451-7fff-9413-c3eb-af902b38ef29&quot;&gt;&lt;span style=&quot;font-size: 11pt; font-family: Nunito, sans-serif; background-color: transparent; font-variant-numeric: normal; font-variant-east-asian: normal; font-variant-alternates: normal; font-variant-position: normal; vertical-align: baseline; white-space-collapse: preserve;&quot;&gt;EndDate&lt;/span&gt;&lt;/span&gt;" style="ellipse;whiteSpace=wrap;html=1;align=center;" parent="1" vertex="1">
          <mxGeometry x="1063.75" y="-390" width="100" height="40" as="geometry" />
        </mxCell>
        <mxCell id="2AO472v2SHZd8yrCc4qn-80" style="edgeStyle=none;shape=connector;rounded=0;orthogonalLoop=1;jettySize=auto;html=1;exitX=1;exitY=0.5;exitDx=0;exitDy=0;entryX=0;entryY=0.5;entryDx=0;entryDy=0;strokeColor=default;align=center;verticalAlign=middle;fontFamily=Helvetica;fontSize=11;fontColor=default;labelBackgroundColor=default;startArrow=none;startFill=0;endArrow=none;endFill=0;" parent="1" source="kUGmSK84CxYYmeA2TLVb-101" target="kUGmSK84CxYYmeA2TLVb-91" edge="1">
          <mxGeometry relative="1" as="geometry" />
        </mxCell>
        <mxCell id="qbC479fvlcjgtYi0yi-w-9" value="M" style="edgeLabel;html=1;align=center;verticalAlign=middle;resizable=0;points=[];" parent="2AO472v2SHZd8yrCc4qn-80" connectable="0" vertex="1">
          <mxGeometry x="-0.9213" y="1" relative="1" as="geometry">
            <mxPoint as="offset" />
          </mxGeometry>
        </mxCell>
        <mxCell id="2AO472v2SHZd8yrCc4qn-87" style="edgeStyle=none;shape=connector;rounded=0;orthogonalLoop=1;jettySize=auto;html=1;exitX=0.5;exitY=0;exitDx=0;exitDy=0;entryX=0.5;entryY=1;entryDx=0;entryDy=0;strokeColor=default;align=center;verticalAlign=middle;fontFamily=Helvetica;fontSize=11;fontColor=default;labelBackgroundColor=default;startArrow=none;startFill=0;endArrow=none;endFill=0;" parent="1" source="kUGmSK84CxYYmeA2TLVb-101" target="kUGmSK84CxYYmeA2TLVb-102" edge="1">
          <mxGeometry relative="1" as="geometry" />
        </mxCell>
        <mxCell id="kUGmSK84CxYYmeA2TLVb-101" value="EventVoucher" style="shape=rhombus;perimeter=rhombusPerimeter;whiteSpace=wrap;html=1;align=center;" parent="1" vertex="1">
          <mxGeometry x="526.25" y="-257.5" width="120" height="60" as="geometry" />
        </mxCell>
        <mxCell id="kUGmSK84CxYYmeA2TLVb-102" value="&lt;span id=&quot;docs-internal-guid-860a6e9a-7fff-ea28-1a8f-5e93c87e9858&quot;&gt;&lt;span style=&quot;font-size: 11pt; font-family: Nunito, sans-serif; background-color: transparent; font-variant-numeric: normal; font-variant-east-asian: normal; font-variant-alternates: normal; font-variant-position: normal; vertical-align: baseline; white-space-collapse: preserve;&quot;&gt;EventID&lt;/span&gt;&lt;/span&gt;" style="ellipse;whiteSpace=wrap;html=1;align=center;" parent="1" vertex="1">
          <mxGeometry x="600" y="-360" width="105" height="40" as="geometry" />
        </mxCell>
        <mxCell id="2AO472v2SHZd8yrCc4qn-85" style="edgeStyle=none;shape=connector;rounded=0;orthogonalLoop=1;jettySize=auto;html=1;exitX=0.5;exitY=1;exitDx=0;exitDy=0;entryX=0.5;entryY=0;entryDx=0;entryDy=0;strokeColor=default;align=center;verticalAlign=middle;fontFamily=Helvetica;fontSize=11;fontColor=default;labelBackgroundColor=default;startArrow=none;startFill=0;endArrow=none;endFill=0;" parent="1" source="kUGmSK84CxYYmeA2TLVb-103" target="kUGmSK84CxYYmeA2TLVb-101" edge="1">
          <mxGeometry relative="1" as="geometry" />
        </mxCell>
        <mxCell id="kUGmSK84CxYYmeA2TLVb-103" value="&lt;font face=&quot;Nunito, sans-serif&quot;&gt;&lt;span style=&quot;font-size: 14.6667px; white-space-collapse: preserve;&quot;&gt;VoucherID&lt;/span&gt;&lt;/font&gt;" style="ellipse;whiteSpace=wrap;html=1;align=center;" parent="1" vertex="1">
          <mxGeometry x="476.25" y="-360" width="100" height="40" as="geometry" />
        </mxCell>
        <mxCell id="2AO472v2SHZd8yrCc4qn-47" style="edgeStyle=none;shape=connector;rounded=0;orthogonalLoop=1;jettySize=auto;html=1;exitX=1;exitY=0.5;exitDx=0;exitDy=0;entryX=0;entryY=0.5;entryDx=0;entryDy=0;strokeColor=default;align=center;verticalAlign=middle;fontFamily=Helvetica;fontSize=11;fontColor=default;labelBackgroundColor=default;startArrow=none;startFill=0;endArrow=none;endFill=0;" parent="1" source="kUGmSK84CxYYmeA2TLVb-106" target="kUGmSK84CxYYmeA2TLVb-108" edge="1">
          <mxGeometry relative="1" as="geometry" />
        </mxCell>
        <mxCell id="2AO472v2SHZd8yrCc4qn-49" style="edgeStyle=none;shape=connector;rounded=0;orthogonalLoop=1;jettySize=auto;html=1;exitX=0.5;exitY=0;exitDx=0;exitDy=0;entryX=0.5;entryY=1;entryDx=0;entryDy=0;strokeColor=default;align=center;verticalAlign=middle;fontFamily=Helvetica;fontSize=11;fontColor=default;labelBackgroundColor=default;startArrow=none;startFill=0;endArrow=none;endFill=0;" parent="1" source="kUGmSK84CxYYmeA2TLVb-106" target="kUGmSK84CxYYmeA2TLVb-28" edge="1">
          <mxGeometry relative="1" as="geometry" />
        </mxCell>
        <mxCell id="NJM9Babi9aSVDOlBZZWm-38" value="M" style="edgeLabel;html=1;align=center;verticalAlign=middle;resizable=0;points=[];fontFamily=Helvetica;fontSize=11;fontColor=default;labelBackgroundColor=default;" parent="2AO472v2SHZd8yrCc4qn-49" connectable="0" vertex="1">
          <mxGeometry x="-0.9058" y="2" relative="1" as="geometry">
            <mxPoint as="offset" />
          </mxGeometry>
        </mxCell>
        <mxCell id="kUGmSK84CxYYmeA2TLVb-106" value="VoucherProduct" style="shape=rhombus;perimeter=rhombusPerimeter;whiteSpace=wrap;html=1;align=center;" parent="1" vertex="1">
          <mxGeometry x="260" y="-88.75" width="120" height="60" as="geometry" />
        </mxCell>
        <mxCell id="2AO472v2SHZd8yrCc4qn-46" style="edgeStyle=none;shape=connector;rounded=0;orthogonalLoop=1;jettySize=auto;html=1;exitX=1;exitY=0.5;exitDx=0;exitDy=0;entryX=0;entryY=0.5;entryDx=0;entryDy=0;strokeColor=default;align=center;verticalAlign=middle;fontFamily=Helvetica;fontSize=11;fontColor=default;labelBackgroundColor=default;startArrow=none;startFill=0;endArrow=none;endFill=0;" parent="1" source="kUGmSK84CxYYmeA2TLVb-107" target="kUGmSK84CxYYmeA2TLVb-106" edge="1">
          <mxGeometry relative="1" as="geometry" />
        </mxCell>
        <mxCell id="kUGmSK84CxYYmeA2TLVb-107" value="&lt;span id=&quot;docs-internal-guid-860a6e9a-7fff-ea28-1a8f-5e93c87e9858&quot;&gt;&lt;span style=&quot;font-size: 11pt; font-family: Nunito, sans-serif; background-color: transparent; font-variant-numeric: normal; font-variant-east-asian: normal; font-variant-alternates: normal; font-variant-position: normal; vertical-align: baseline; white-space-collapse: preserve;&quot;&gt;ProductID&lt;/span&gt;&lt;/span&gt;" style="ellipse;whiteSpace=wrap;html=1;align=center;" parent="1" vertex="1">
          <mxGeometry x="100" y="-78.75" width="105" height="40" as="geometry" />
        </mxCell>
        <mxCell id="kUGmSK84CxYYmeA2TLVb-108" value="&lt;font face=&quot;Nunito, sans-serif&quot;&gt;&lt;span style=&quot;font-size: 14.6667px; white-space-collapse: preserve;&quot;&gt;VoucherID&lt;/span&gt;&lt;/font&gt;" style="ellipse;whiteSpace=wrap;html=1;align=center;" parent="1" vertex="1">
          <mxGeometry x="417.5" y="-78.75" width="100" height="40" as="geometry" />
        </mxCell>
        <mxCell id="MBNyQJfrEvlR8FQnQ0IK-66" style="edgeStyle=none;shape=connector;rounded=0;orthogonalLoop=1;jettySize=auto;html=1;exitX=1;exitY=0.5;exitDx=0;exitDy=0;entryX=0;entryY=0.5;entryDx=0;entryDy=0;strokeColor=default;align=center;verticalAlign=middle;fontFamily=Helvetica;fontSize=11;fontColor=default;labelBackgroundColor=default;endArrow=none;endFill=0;" parent="1" source="kUGmSK84CxYYmeA2TLVb-111" target="MBNyQJfrEvlR8FQnQ0IK-1" edge="1">
          <mxGeometry relative="1" as="geometry" />
        </mxCell>
        <mxCell id="yVqubIJeU8RXYRg0h4uB-36" value="M" style="edgeLabel;html=1;align=center;verticalAlign=middle;resizable=0;points=[];fontFamily=Helvetica;fontSize=11;fontColor=default;labelBackgroundColor=default;" parent="MBNyQJfrEvlR8FQnQ0IK-66" vertex="1" connectable="0">
          <mxGeometry x="0.7011" y="1" relative="1" as="geometry">
            <mxPoint as="offset" />
          </mxGeometry>
        </mxCell>
        <mxCell id="kUGmSK84CxYYmeA2TLVb-111" value="Category" style="whiteSpace=wrap;html=1;align=center;" parent="1" vertex="1">
          <mxGeometry x="-300" y="525" width="100" height="40" as="geometry" />
        </mxCell>
        <mxCell id="MBNyQJfrEvlR8FQnQ0IK-68" style="edgeStyle=none;shape=connector;rounded=0;orthogonalLoop=1;jettySize=auto;html=1;exitX=1;exitY=0.5;exitDx=0;exitDy=0;entryX=0;entryY=0.5;entryDx=0;entryDy=0;strokeColor=default;align=center;verticalAlign=middle;fontFamily=Helvetica;fontSize=11;fontColor=default;labelBackgroundColor=default;endArrow=none;endFill=0;" parent="1" source="kUGmSK84CxYYmeA2TLVb-112" target="kUGmSK84CxYYmeA2TLVb-111" edge="1">
          <mxGeometry relative="1" as="geometry" />
        </mxCell>
        <mxCell id="kUGmSK84CxYYmeA2TLVb-112" value="CategoryID" style="ellipse;whiteSpace=wrap;html=1;align=center;fontStyle=4;" parent="1" vertex="1">
          <mxGeometry x="-470" y="485" width="130" height="40" as="geometry" />
        </mxCell>
        <mxCell id="NJM9Babi9aSVDOlBZZWm-47" style="edgeStyle=none;shape=connector;rounded=0;orthogonalLoop=1;jettySize=auto;html=1;exitX=0;exitY=0.5;exitDx=0;exitDy=0;entryX=1;entryY=0;entryDx=0;entryDy=0;strokeColor=default;align=center;verticalAlign=middle;fontFamily=Helvetica;fontSize=11;fontColor=default;labelBackgroundColor=default;endArrow=none;endFill=0;" parent="1" source="kUGmSK84CxYYmeA2TLVb-117" target="NJM9Babi9aSVDOlBZZWm-39" edge="1">
          <mxGeometry relative="1" as="geometry" />
        </mxCell>
        <mxCell id="yVqubIJeU8RXYRg0h4uB-3" style="rounded=0;orthogonalLoop=1;jettySize=auto;html=1;exitX=0;exitY=0.75;exitDx=0;exitDy=0;entryX=1;entryY=0.5;entryDx=0;entryDy=0;endArrow=none;endFill=0;" parent="1" source="kUGmSK84CxYYmeA2TLVb-117" target="kUGmSK84CxYYmeA2TLVb-128" edge="1">
          <mxGeometry relative="1" as="geometry" />
        </mxCell>
        <mxCell id="yVqubIJeU8RXYRg0h4uB-4" style="edgeStyle=none;shape=connector;rounded=0;orthogonalLoop=1;jettySize=auto;html=1;exitX=0.25;exitY=1;exitDx=0;exitDy=0;entryX=1;entryY=0;entryDx=0;entryDy=0;strokeColor=default;align=center;verticalAlign=middle;fontFamily=Helvetica;fontSize=11;fontColor=default;labelBackgroundColor=default;endArrow=none;endFill=0;" parent="1" source="kUGmSK84CxYYmeA2TLVb-117" target="kUGmSK84CxYYmeA2TLVb-118" edge="1">
          <mxGeometry relative="1" as="geometry" />
        </mxCell>
        <mxCell id="yVqubIJeU8RXYRg0h4uB-6" style="edgeStyle=none;shape=connector;rounded=0;orthogonalLoop=1;jettySize=auto;html=1;exitX=0.5;exitY=1;exitDx=0;exitDy=0;entryX=0.5;entryY=0;entryDx=0;entryDy=0;strokeColor=default;align=center;verticalAlign=middle;fontFamily=Helvetica;fontSize=11;fontColor=default;labelBackgroundColor=default;endArrow=none;endFill=0;" parent="1" source="kUGmSK84CxYYmeA2TLVb-117" target="NJM9Babi9aSVDOlBZZWm-46" edge="1">
          <mxGeometry relative="1" as="geometry" />
        </mxCell>
        <mxCell id="yVqubIJeU8RXYRg0h4uB-7" style="edgeStyle=none;shape=connector;rounded=0;orthogonalLoop=1;jettySize=auto;html=1;exitX=0.5;exitY=1;exitDx=0;exitDy=0;entryX=0.5;entryY=0;entryDx=0;entryDy=0;strokeColor=default;align=center;verticalAlign=middle;fontFamily=Helvetica;fontSize=11;fontColor=default;labelBackgroundColor=default;endArrow=none;endFill=0;" parent="1" source="kUGmSK84CxYYmeA2TLVb-117" target="kUGmSK84CxYYmeA2TLVb-120" edge="1">
          <mxGeometry relative="1" as="geometry" />
        </mxCell>
        <mxCell id="yVqubIJeU8RXYRg0h4uB-8" style="edgeStyle=none;shape=connector;rounded=0;orthogonalLoop=1;jettySize=auto;html=1;exitX=0.5;exitY=1;exitDx=0;exitDy=0;entryX=0.5;entryY=0;entryDx=0;entryDy=0;strokeColor=default;align=center;verticalAlign=middle;fontFamily=Helvetica;fontSize=11;fontColor=default;labelBackgroundColor=default;endArrow=none;endFill=0;" parent="1" source="kUGmSK84CxYYmeA2TLVb-117" target="kUGmSK84CxYYmeA2TLVb-126" edge="1">
          <mxGeometry relative="1" as="geometry" />
        </mxCell>
        <mxCell id="yVqubIJeU8RXYRg0h4uB-9" style="edgeStyle=none;shape=connector;rounded=0;orthogonalLoop=1;jettySize=auto;html=1;exitX=0.75;exitY=1;exitDx=0;exitDy=0;entryX=0.5;entryY=0;entryDx=0;entryDy=0;strokeColor=default;align=center;verticalAlign=middle;fontFamily=Helvetica;fontSize=11;fontColor=default;labelBackgroundColor=default;endArrow=none;endFill=0;" parent="1" source="kUGmSK84CxYYmeA2TLVb-117" target="kUGmSK84CxYYmeA2TLVb-127" edge="1">
          <mxGeometry relative="1" as="geometry" />
        </mxCell>
        <mxCell id="yVqubIJeU8RXYRg0h4uB-10" style="edgeStyle=none;shape=connector;rounded=0;orthogonalLoop=1;jettySize=auto;html=1;exitX=1;exitY=1;exitDx=0;exitDy=0;entryX=0;entryY=0.5;entryDx=0;entryDy=0;strokeColor=default;align=center;verticalAlign=middle;fontFamily=Helvetica;fontSize=11;fontColor=default;labelBackgroundColor=default;endArrow=none;endFill=0;" parent="1" source="kUGmSK84CxYYmeA2TLVb-117" target="NJM9Babi9aSVDOlBZZWm-43" edge="1">
          <mxGeometry relative="1" as="geometry" />
        </mxCell>
        <mxCell id="yVqubIJeU8RXYRg0h4uB-11" style="edgeStyle=none;shape=connector;rounded=0;orthogonalLoop=1;jettySize=auto;html=1;exitX=1;exitY=0.75;exitDx=0;exitDy=0;entryX=0;entryY=0.5;entryDx=0;entryDy=0;strokeColor=default;align=center;verticalAlign=middle;fontFamily=Helvetica;fontSize=11;fontColor=default;labelBackgroundColor=default;endArrow=none;endFill=0;" parent="1" source="kUGmSK84CxYYmeA2TLVb-117" target="kUGmSK84CxYYmeA2TLVb-119" edge="1">
          <mxGeometry relative="1" as="geometry" />
        </mxCell>
        <mxCell id="yVqubIJeU8RXYRg0h4uB-21" style="edgeStyle=none;shape=connector;rounded=0;orthogonalLoop=1;jettySize=auto;html=1;exitX=1;exitY=0.5;exitDx=0;exitDy=0;entryX=0;entryY=0.5;entryDx=0;entryDy=0;strokeColor=default;align=center;verticalAlign=middle;fontFamily=Helvetica;fontSize=11;fontColor=default;labelBackgroundColor=default;endArrow=none;endFill=0;" parent="1" source="kUGmSK84CxYYmeA2TLVb-117" target="yVqubIJeU8RXYRg0h4uB-12" edge="1">
          <mxGeometry relative="1" as="geometry" />
        </mxCell>
        <mxCell id="yVqubIJeU8RXYRg0h4uB-42" value="1" style="edgeLabel;html=1;align=center;verticalAlign=middle;resizable=0;points=[];fontFamily=Helvetica;fontSize=11;fontColor=default;labelBackgroundColor=default;" parent="yVqubIJeU8RXYRg0h4uB-21" vertex="1" connectable="0">
          <mxGeometry x="0.9065" y="-2" relative="1" as="geometry">
            <mxPoint as="offset" />
          </mxGeometry>
        </mxCell>
        <mxCell id="yVqubIJeU8RXYRg0h4uB-47" style="edgeStyle=none;shape=connector;rounded=0;orthogonalLoop=1;jettySize=auto;html=1;exitX=1;exitY=0;exitDx=0;exitDy=0;entryX=0;entryY=0.5;entryDx=0;entryDy=0;strokeColor=default;align=center;verticalAlign=middle;fontFamily=Helvetica;fontSize=11;fontColor=default;labelBackgroundColor=default;endArrow=none;endFill=0;" parent="1" source="kUGmSK84CxYYmeA2TLVb-117" target="yVqubIJeU8RXYRg0h4uB-45" edge="1">
          <mxGeometry relative="1" as="geometry" />
        </mxCell>
        <mxCell id="kUGmSK84CxYYmeA2TLVb-117" value="Invoice" style="whiteSpace=wrap;html=1;align=center;" parent="1" vertex="1">
          <mxGeometry x="268.75" y="1788.75" width="100" height="40" as="geometry" />
        </mxCell>
        <mxCell id="kUGmSK84CxYYmeA2TLVb-118" value="InvoiceKey" style="ellipse;whiteSpace=wrap;html=1;align=center;fontStyle=4;" parent="1" vertex="1">
          <mxGeometry x="50" y="1940" width="100" height="40" as="geometry" />
        </mxCell>
        <mxCell id="kUGmSK84CxYYmeA2TLVb-119" value="&lt;font face=&quot;Nunito, sans-serif&quot;&gt;&lt;span style=&quot;font-size: 14.6667px; white-space-collapse: preserve;&quot;&gt;InvoiceNumber&lt;/span&gt;&lt;/font&gt;" style="ellipse;whiteSpace=wrap;html=1;align=center;" parent="1" vertex="1">
          <mxGeometry x="576.25" y="1852.5" width="120" height="40" as="geometry" />
        </mxCell>
        <mxCell id="kUGmSK84CxYYmeA2TLVb-120" value="&lt;span id=&quot;docs-internal-guid-35b728d3-7fff-a6e8-cffc-373600ebfb04&quot;&gt;&lt;span style=&quot;font-size: 11pt; font-family: Nunito, sans-serif; background-color: transparent; font-variant-numeric: normal; font-variant-east-asian: normal; font-variant-alternates: normal; font-variant-position: normal; vertical-align: baseline; white-space-collapse: preserve;&quot;&gt;Serial&lt;/span&gt;&lt;/span&gt;" style="ellipse;whiteSpace=wrap;html=1;align=center;" parent="1" vertex="1">
          <mxGeometry x="258.75" y="1980" width="100" height="40" as="geometry" />
        </mxCell>
        <mxCell id="kUGmSK84CxYYmeA2TLVb-126" value="&lt;span id=&quot;docs-internal-guid-a134d009-7fff-2960-c151-09f0dd8b8b1f&quot;&gt;&lt;span style=&quot;font-size: 11pt; font-family: Nunito, sans-serif; background-color: transparent; font-variant-numeric: normal; font-variant-east-asian: normal; font-variant-alternates: normal; font-variant-position: normal; vertical-align: baseline; white-space-collapse: preserve;&quot;&gt;InvoiceDate&lt;/span&gt;&lt;/span&gt;" style="ellipse;whiteSpace=wrap;html=1;align=center;" parent="1" vertex="1">
          <mxGeometry x="376.25" y="1980" width="100" height="40" as="geometry" />
        </mxCell>
        <mxCell id="kUGmSK84CxYYmeA2TLVb-127" value="&lt;span id=&quot;docs-internal-guid-a134d009-7fff-2960-c151-09f0dd8b8b1f&quot;&gt;&lt;span style=&quot;font-size: 11pt; font-family: Nunito, sans-serif; background-color: transparent; font-variant-numeric: normal; font-variant-east-asian: normal; font-variant-alternates: normal; font-variant-position: normal; vertical-align: baseline; white-space-collapse: preserve;&quot;&gt;MCQT&lt;/span&gt;&lt;/span&gt;" style="ellipse;whiteSpace=wrap;html=1;align=center;" parent="1" vertex="1">
          <mxGeometry x="482.5" y="1962.5" width="100" height="40" as="geometry" />
        </mxCell>
        <mxCell id="kUGmSK84CxYYmeA2TLVb-128" value="&lt;span id=&quot;docs-internal-guid-a134d009-7fff-2960-c151-09f0dd8b8b1f&quot;&gt;&lt;span style=&quot;font-size: 11pt; font-family: Nunito, sans-serif; background-color: transparent; font-variant-numeric: normal; font-variant-east-asian: normal; font-variant-alternates: normal; font-variant-position: normal; vertical-align: baseline; white-space-collapse: preserve;&quot;&gt;BrandID&lt;/span&gt;&lt;/span&gt;" style="ellipse;whiteSpace=wrap;html=1;align=center;" parent="1" vertex="1">
          <mxGeometry x="10" y="1892.5" width="100" height="40" as="geometry" />
        </mxCell>
        <mxCell id="KNh2fPOEmaXS--vwUIk--1" value="&lt;span id=&quot;docs-internal-guid-26c3d11f-7fff-5bf1-35b5-0568e2e1c3c4&quot;&gt;&lt;span style=&quot;font-size: 11pt; font-family: Nunito, sans-serif; background-color: transparent; font-variant-numeric: normal; font-variant-east-asian: normal; font-variant-alternates: normal; font-variant-position: normal; vertical-align: baseline; white-space-collapse: preserve;&quot;&gt;Email&lt;/span&gt;&lt;/span&gt;" style="ellipse;whiteSpace=wrap;html=1;align=center;" parent="1" vertex="1">
          <mxGeometry x="1370" y="568.75" width="130" height="40" as="geometry" />
        </mxCell>
        <mxCell id="T2vwmPO06v1hPodI_Ly6-13" style="edgeStyle=none;shape=connector;rounded=0;orthogonalLoop=1;jettySize=auto;html=1;exitX=0.5;exitY=1;exitDx=0;exitDy=0;strokeColor=default;align=center;verticalAlign=middle;fontFamily=Helvetica;fontSize=11;fontColor=default;labelBackgroundColor=default;endArrow=none;endFill=0;" parent="1" source="gS9S2C-Xg4bSLg3sg7bz-25" target="gS9S2C-Xg4bSLg3sg7bz-25" edge="1">
          <mxGeometry relative="1" as="geometry" />
        </mxCell>
        <mxCell id="MBNyQJfrEvlR8FQnQ0IK-1" value="BelongsTo" style="shape=rhombus;perimeter=rhombusPerimeter;whiteSpace=wrap;html=1;align=center;" parent="1" vertex="1">
          <mxGeometry x="-100" y="515" width="120" height="60" as="geometry" />
        </mxCell>
        <mxCell id="MBNyQJfrEvlR8FQnQ0IK-67" style="edgeStyle=none;shape=connector;rounded=0;orthogonalLoop=1;jettySize=auto;html=1;exitX=1;exitY=0.5;exitDx=0;exitDy=0;entryX=0;entryY=0.5;entryDx=0;entryDy=0;strokeColor=default;align=center;verticalAlign=middle;fontFamily=Helvetica;fontSize=11;fontColor=default;labelBackgroundColor=default;endArrow=none;endFill=0;" parent="1" source="MBNyQJfrEvlR8FQnQ0IK-25" target="kUGmSK84CxYYmeA2TLVb-111" edge="1">
          <mxGeometry relative="1" as="geometry" />
        </mxCell>
        <mxCell id="MBNyQJfrEvlR8FQnQ0IK-25" value="&lt;span style=&quot;font-family: Nunito, sans-serif; font-size: 14.6667px; white-space-collapse: preserve;&quot;&gt;CategoryName&lt;/span&gt;" style="ellipse;whiteSpace=wrap;html=1;align=center;" parent="1" vertex="1">
          <mxGeometry x="-470" y="561.25" width="130" height="40" as="geometry" />
        </mxCell>
        <mxCell id="yVqubIJeU8RXYRg0h4uB-30" style="edgeStyle=none;shape=connector;rounded=0;orthogonalLoop=1;jettySize=auto;html=1;exitX=0;exitY=1;exitDx=0;exitDy=0;entryX=1;entryY=0.5;entryDx=0;entryDy=0;strokeColor=default;align=center;verticalAlign=middle;fontFamily=Helvetica;fontSize=11;fontColor=default;labelBackgroundColor=default;endArrow=none;endFill=0;" parent="1" source="3paW3BKc-gljnEik5YWG-1" target="3paW3BKc-gljnEik5YWG-4" edge="1">
          <mxGeometry relative="1" as="geometry" />
        </mxCell>
        <mxCell id="3paW3BKc-gljnEik5YWG-1" value="Brand" style="whiteSpace=wrap;html=1;align=center;" parent="1" vertex="1">
          <mxGeometry x="-300" y="720" width="100" height="40" as="geometry" />
        </mxCell>
        <mxCell id="yVqubIJeU8RXYRg0h4uB-28" style="edgeStyle=none;shape=connector;rounded=0;orthogonalLoop=1;jettySize=auto;html=1;exitX=1;exitY=0.5;exitDx=0;exitDy=0;entryX=0;entryY=0.5;entryDx=0;entryDy=0;strokeColor=default;align=center;verticalAlign=middle;fontFamily=Helvetica;fontSize=11;fontColor=default;labelBackgroundColor=default;endArrow=none;endFill=0;" parent="1" source="3paW3BKc-gljnEik5YWG-3" target="3paW3BKc-gljnEik5YWG-1" edge="1">
          <mxGeometry relative="1" as="geometry" />
        </mxCell>
        <mxCell id="3paW3BKc-gljnEik5YWG-3" value="BrandName" style="ellipse;whiteSpace=wrap;html=1;align=center;" parent="1" vertex="1">
          <mxGeometry x="-440" y="720" width="100" height="40" as="geometry" />
        </mxCell>
        <mxCell id="3paW3BKc-gljnEik5YWG-4" value="isTopBrand" style="ellipse;whiteSpace=wrap;html=1;align=center;" parent="1" vertex="1">
          <mxGeometry x="-440" y="770" width="100" height="40" as="geometry" />
        </mxCell>
        <mxCell id="yVqubIJeU8RXYRg0h4uB-29" style="edgeStyle=none;shape=connector;rounded=0;orthogonalLoop=1;jettySize=auto;html=1;exitX=1;exitY=0.5;exitDx=0;exitDy=0;entryX=0;entryY=0;entryDx=0;entryDy=0;strokeColor=default;align=center;verticalAlign=middle;fontFamily=Helvetica;fontSize=11;fontColor=default;labelBackgroundColor=default;endArrow=none;endFill=0;" parent="1" source="3paW3BKc-gljnEik5YWG-5" target="3paW3BKc-gljnEik5YWG-1" edge="1">
          <mxGeometry relative="1" as="geometry" />
        </mxCell>
        <mxCell id="3paW3BKc-gljnEik5YWG-5" value="BrandID" style="ellipse;whiteSpace=wrap;html=1;align=center;fontStyle=4;" parent="1" vertex="1">
          <mxGeometry x="-440" y="670" width="100" height="40" as="geometry" />
        </mxCell>
        <mxCell id="yVqubIJeU8RXYRg0h4uB-15" style="edgeStyle=none;shape=connector;rounded=0;orthogonalLoop=1;jettySize=auto;html=1;exitX=1;exitY=0.25;exitDx=0;exitDy=0;entryX=0;entryY=0.5;entryDx=0;entryDy=0;strokeColor=default;align=center;verticalAlign=middle;fontFamily=Helvetica;fontSize=11;fontColor=default;labelBackgroundColor=default;endArrow=none;endFill=0;" parent="1" source="3paW3BKc-gljnEik5YWG-6" target="3paW3BKc-gljnEik5YWG-9" edge="1">
          <mxGeometry relative="1" as="geometry" />
        </mxCell>
        <mxCell id="yVqubIJeU8RXYRg0h4uB-16" style="edgeStyle=none;shape=connector;rounded=0;orthogonalLoop=1;jettySize=auto;html=1;exitX=1;exitY=0.75;exitDx=0;exitDy=0;entryX=0;entryY=0.5;entryDx=0;entryDy=0;strokeColor=default;align=center;verticalAlign=middle;fontFamily=Helvetica;fontSize=11;fontColor=default;labelBackgroundColor=default;endArrow=none;endFill=0;" parent="1" source="3paW3BKc-gljnEik5YWG-6" target="3paW3BKc-gljnEik5YWG-7" edge="1">
          <mxGeometry relative="1" as="geometry" />
        </mxCell>
        <mxCell id="3paW3BKc-gljnEik5YWG-6" value="Rank" style="whiteSpace=wrap;html=1;align=center;" parent="1" vertex="1">
          <mxGeometry x="980" y="1788.75" width="100" height="40" as="geometry" />
        </mxCell>
        <mxCell id="3paW3BKc-gljnEik5YWG-7" value="RankName" style="ellipse;whiteSpace=wrap;html=1;align=center;" parent="1" vertex="1">
          <mxGeometry x="1110" y="1818.75" width="100" height="40" as="geometry" />
        </mxCell>
        <mxCell id="3paW3BKc-gljnEik5YWG-9" value="RankID" style="ellipse;whiteSpace=wrap;html=1;align=center;fontStyle=4;" parent="1" vertex="1">
          <mxGeometry x="1110" y="1758.75" width="100" height="40" as="geometry" />
        </mxCell>
        <mxCell id="3paW3BKc-gljnEik5YWG-10" value="" style="edgeStyle=none;shape=connector;rounded=0;orthogonalLoop=1;jettySize=auto;html=1;exitX=0.5;exitY=1;exitDx=0;exitDy=0;strokeColor=default;align=center;verticalAlign=middle;fontFamily=Helvetica;fontSize=11;fontColor=default;labelBackgroundColor=default;endArrow=none;endFill=0;" parent="1" target="gS9S2C-Xg4bSLg3sg7bz-30" edge="1">
          <mxGeometry relative="1" as="geometry">
            <mxPoint x="1359.9999999999995" y="1331.25" as="targetPoint" />
            <mxPoint x="1195" y="1095" as="sourcePoint" />
          </mxGeometry>
        </mxCell>
        <mxCell id="RBz3kKcQn3I_CGSztRoB-15" style="edgeStyle=none;shape=connector;rounded=0;orthogonalLoop=1;jettySize=auto;html=1;exitX=0.5;exitY=1;exitDx=0;exitDy=0;entryX=0;entryY=0;entryDx=0;entryDy=0;strokeColor=default;align=center;verticalAlign=middle;fontFamily=Helvetica;fontSize=11;fontColor=default;labelBackgroundColor=default;endArrow=none;endFill=0;" parent="1" source="gS9S2C-Xg4bSLg3sg7bz-30" edge="1">
          <mxGeometry relative="1" as="geometry">
            <mxPoint x="1359.9999999999995" y="1321.25" as="targetPoint" />
          </mxGeometry>
        </mxCell>
        <mxCell id="gS9S2C-Xg4bSLg3sg7bz-30" value="&lt;span id=&quot;docs-internal-guid-ccec5bcd-7fff-8125-1967-158cb4725fef&quot;&gt;&lt;span style=&quot;font-size: 11pt; font-family: Nunito, sans-serif; background-color: transparent; font-variant-numeric: normal; font-variant-east-asian: normal; font-variant-alternates: normal; font-variant-position: normal; vertical-align: baseline; white-space-collapse: preserve;&quot;&gt;InstructionManual&lt;/span&gt;&lt;/span&gt;&lt;div&gt;&lt;span&gt;&lt;span style=&quot;font-size: 11pt; font-family: Nunito, sans-serif; background-color: transparent; font-variant-numeric: normal; font-variant-east-asian: normal; font-variant-alternates: normal; font-variant-position: normal; vertical-align: baseline; white-space-collapse: preserve;&quot;&gt;Description&lt;/span&gt;&lt;/span&gt;&lt;/div&gt;" style="ellipse;whiteSpace=wrap;html=1;align=center;" parent="1" vertex="1">
          <mxGeometry x="1130" y="1050" width="150" height="50" as="geometry" />
        </mxCell>
        <mxCell id="o548NBkhyWZEmw0mraJG-4" style="edgeStyle=none;shape=connector;rounded=0;orthogonalLoop=1;jettySize=auto;html=1;exitX=0;exitY=0.5;exitDx=0;exitDy=0;entryX=1;entryY=0.5;entryDx=0;entryDy=0;strokeColor=default;align=center;verticalAlign=middle;fontFamily=Helvetica;fontSize=11;fontColor=default;labelBackgroundColor=default;endArrow=none;endFill=0;" parent="1" source="3paW3BKc-gljnEik5YWG-12" target="3paW3BKc-gljnEik5YWG-13" edge="1">
          <mxGeometry relative="1" as="geometry" />
        </mxCell>
        <mxCell id="o548NBkhyWZEmw0mraJG-5" style="edgeStyle=none;shape=connector;rounded=0;orthogonalLoop=1;jettySize=auto;html=1;exitX=0.5;exitY=1;exitDx=0;exitDy=0;entryX=0.5;entryY=0;entryDx=0;entryDy=0;strokeColor=default;align=center;verticalAlign=middle;fontFamily=Helvetica;fontSize=11;fontColor=default;labelBackgroundColor=default;endArrow=none;endFill=0;" parent="1" source="3paW3BKc-gljnEik5YWG-12" target="3paW3BKc-gljnEik5YWG-17" edge="1">
          <mxGeometry relative="1" as="geometry" />
        </mxCell>
        <mxCell id="3paW3BKc-gljnEik5YWG-12" value="Gift" style="shape=rhombus;perimeter=rhombusPerimeter;whiteSpace=wrap;html=1;align=center;fontFamily=Helvetica;fontSize=11;fontColor=default;labelBackgroundColor=default;" parent="1" vertex="1">
          <mxGeometry x="60" y="1217.5" width="120" height="60" as="geometry" />
        </mxCell>
        <mxCell id="3paW3BKc-gljnEik5YWG-13" value="&lt;span id=&quot;docs-internal-guid-45c4ea91-7fff-e276-e6dc-0d8023de0600&quot;&gt;&lt;span style=&quot;font-size: 11pt; font-family: Nunito, sans-serif; background-color: transparent; font-variant-numeric: normal; font-variant-east-asian: normal; font-variant-alternates: normal; font-variant-position: normal; vertical-align: baseline; white-space-collapse: preserve;&quot;&gt;MainProductID&lt;/span&gt;&lt;/span&gt;" style="ellipse;whiteSpace=wrap;html=1;align=center;" parent="1" vertex="1">
          <mxGeometry x="-100" y="1227.5" width="120" height="40" as="geometry" />
        </mxCell>
        <mxCell id="3paW3BKc-gljnEik5YWG-17" value="&lt;span id=&quot;docs-internal-guid-2d799cde-7fff-2062-de7b-5c9889e8383b&quot;&gt;&lt;span style=&quot;font-size: 11pt; font-family: Nunito, sans-serif; background-color: transparent; font-variant-numeric: normal; font-variant-east-asian: normal; font-variant-alternates: normal; font-variant-position: normal; vertical-align: baseline; white-space-collapse: preserve;&quot;&gt;GiftProductID&lt;/span&gt;&lt;/span&gt;" style="ellipse;whiteSpace=wrap;html=1;align=center;" parent="1" vertex="1">
          <mxGeometry x="60" y="1321.25" width="120" height="40" as="geometry" />
        </mxCell>
        <mxCell id="o548NBkhyWZEmw0mraJG-8" style="edgeStyle=none;shape=connector;rounded=0;orthogonalLoop=1;jettySize=auto;html=1;exitX=0;exitY=0;exitDx=0;exitDy=0;entryX=1;entryY=1;entryDx=0;entryDy=0;strokeColor=default;align=center;verticalAlign=middle;fontFamily=Helvetica;fontSize=11;fontColor=default;labelBackgroundColor=default;endArrow=none;endFill=0;" parent="1" source="3paW3BKc-gljnEik5YWG-19" target="3paW3BKc-gljnEik5YWG-12" edge="1">
          <mxGeometry relative="1" as="geometry" />
        </mxCell>
        <mxCell id="3paW3BKc-gljnEik5YWG-19" value="&lt;span style=&quot;font-family: Nunito, sans-serif; font-size: 14.6667px; white-space-collapse: preserve;&quot;&gt;StartDate&lt;/span&gt;" style="ellipse;whiteSpace=wrap;html=1;align=center;" parent="1" vertex="1">
          <mxGeometry x="166.25" y="1281.25" width="100" height="40" as="geometry" />
        </mxCell>
        <mxCell id="o548NBkhyWZEmw0mraJG-7" style="edgeStyle=none;shape=connector;rounded=0;orthogonalLoop=1;jettySize=auto;html=1;exitX=1;exitY=1;exitDx=0;exitDy=0;entryX=0;entryY=0;entryDx=0;entryDy=0;strokeColor=default;align=center;verticalAlign=middle;fontFamily=Helvetica;fontSize=11;fontColor=default;labelBackgroundColor=default;endArrow=none;endFill=0;" parent="1" source="3paW3BKc-gljnEik5YWG-20" target="3paW3BKc-gljnEik5YWG-12" edge="1">
          <mxGeometry relative="1" as="geometry" />
        </mxCell>
        <mxCell id="3paW3BKc-gljnEik5YWG-20" value="EndDate" style="ellipse;whiteSpace=wrap;html=1;align=center;" parent="1" vertex="1">
          <mxGeometry x="-27.5" y="1177.5" width="100" height="40" as="geometry" />
        </mxCell>
        <mxCell id="3paW3BKc-gljnEik5YWG-35" style="edgeStyle=none;shape=connector;rounded=0;orthogonalLoop=1;jettySize=auto;html=1;exitX=1;exitY=0.5;exitDx=0;exitDy=0;entryX=0;entryY=0.5;entryDx=0;entryDy=0;strokeColor=default;align=center;verticalAlign=middle;fontFamily=Helvetica;fontSize=11;fontColor=default;labelBackgroundColor=default;endArrow=none;endFill=0;" parent="1" source="3paW3BKc-gljnEik5YWG-30" target="kUGmSK84CxYYmeA2TLVb-14" edge="1">
          <mxGeometry relative="1" as="geometry" />
        </mxCell>
        <mxCell id="o548NBkhyWZEmw0mraJG-17" value="M" style="edgeLabel;html=1;align=center;verticalAlign=middle;resizable=0;points=[];fontFamily=Helvetica;fontSize=11;fontColor=default;labelBackgroundColor=default;" parent="3paW3BKc-gljnEik5YWG-35" connectable="0" vertex="1">
          <mxGeometry x="-0.948" y="2" relative="1" as="geometry">
            <mxPoint as="offset" />
          </mxGeometry>
        </mxCell>
        <mxCell id="3paW3BKc-gljnEik5YWG-36" style="edgeStyle=none;shape=connector;rounded=0;orthogonalLoop=1;jettySize=auto;html=1;exitX=0;exitY=0.5;exitDx=0;exitDy=0;strokeColor=default;align=center;verticalAlign=middle;fontFamily=Helvetica;fontSize=11;fontColor=default;labelBackgroundColor=default;endArrow=none;endFill=0;entryX=0.5;entryY=0;entryDx=0;entryDy=0;" parent="1" source="3paW3BKc-gljnEik5YWG-30" target="gS9S2C-Xg4bSLg3sg7bz-34" edge="1">
          <mxGeometry relative="1" as="geometry">
            <mxPoint x="316" y="1050" as="targetPoint" />
          </mxGeometry>
        </mxCell>
        <mxCell id="o548NBkhyWZEmw0mraJG-15" value="M" style="edgeLabel;html=1;align=center;verticalAlign=middle;resizable=0;points=[];fontFamily=Helvetica;fontSize=11;fontColor=default;labelBackgroundColor=default;" parent="3paW3BKc-gljnEik5YWG-36" connectable="0" vertex="1">
          <mxGeometry x="-0.9526" y="-2" relative="1" as="geometry">
            <mxPoint as="offset" />
          </mxGeometry>
        </mxCell>
        <mxCell id="3paW3BKc-gljnEik5YWG-30" value="LikesProducts" style="shape=rhombus;perimeter=rhombusPerimeter;whiteSpace=wrap;html=1;align=center;" parent="1" vertex="1">
          <mxGeometry x="628.75" y="320" width="120" height="60" as="geometry" />
        </mxCell>
        <mxCell id="NJM9Babi9aSVDOlBZZWm-10" style="edgeStyle=none;shape=connector;rounded=0;orthogonalLoop=1;jettySize=auto;html=1;exitX=0.5;exitY=1;exitDx=0;exitDy=0;entryX=0;entryY=0;entryDx=0;entryDy=0;strokeColor=default;align=center;verticalAlign=middle;fontFamily=Helvetica;fontSize=11;fontColor=default;labelBackgroundColor=default;endArrow=none;endFill=0;" parent="1" source="3paW3BKc-gljnEik5YWG-31" target="3paW3BKc-gljnEik5YWG-30" edge="1">
          <mxGeometry relative="1" as="geometry" />
        </mxCell>
        <mxCell id="3paW3BKc-gljnEik5YWG-31" value="&lt;span id=&quot;docs-internal-guid-8151a7b8-7fff-1199-eb5f-2012eda36199&quot;&gt;&lt;span style=&quot;font-size: 11pt; font-family: Nunito, sans-serif; background-color: transparent; font-variant-numeric: normal; font-variant-east-asian: normal; font-variant-alternates: normal; font-variant-position: normal; vertical-align: baseline; white-space-collapse: preserve;&quot;&gt;ProductID&lt;/span&gt;&lt;/span&gt;" style="ellipse;whiteSpace=wrap;html=1;align=center;" parent="1" vertex="1">
          <mxGeometry x="582.5" y="253.75" width="100" height="40" as="geometry" />
        </mxCell>
        <mxCell id="NJM9Babi9aSVDOlBZZWm-11" style="edgeStyle=none;shape=connector;rounded=0;orthogonalLoop=1;jettySize=auto;html=1;exitX=0.5;exitY=1;exitDx=0;exitDy=0;entryX=0.5;entryY=0;entryDx=0;entryDy=0;strokeColor=default;align=center;verticalAlign=middle;fontFamily=Helvetica;fontSize=11;fontColor=default;labelBackgroundColor=default;endArrow=none;endFill=0;" parent="1" source="3paW3BKc-gljnEik5YWG-32" target="3paW3BKc-gljnEik5YWG-30" edge="1">
          <mxGeometry relative="1" as="geometry" />
        </mxCell>
        <mxCell id="3paW3BKc-gljnEik5YWG-32" value="&lt;span id=&quot;docs-internal-guid-d5b92939-7fff-6d2a-617b-34784ba4c5b0&quot;&gt;&lt;span style=&quot;font-size: 11pt; font-family: Nunito, sans-serif; background-color: transparent; font-variant-numeric: normal; font-variant-east-asian: normal; font-variant-alternates: normal; font-variant-position: normal; vertical-align: baseline; white-space-collapse: preserve;&quot;&gt;UserID&lt;/span&gt;&lt;/span&gt;" style="ellipse;whiteSpace=wrap;html=1;align=center;" parent="1" vertex="1">
          <mxGeometry x="666.25" y="200" width="100" height="40" as="geometry" />
        </mxCell>
        <mxCell id="u3LLhQfRynHV-R4hmsTc-10" style="edgeStyle=none;shape=connector;rounded=0;orthogonalLoop=1;jettySize=auto;html=1;exitX=0;exitY=0;exitDx=0;exitDy=0;entryX=1;entryY=1;entryDx=0;entryDy=0;strokeColor=default;align=center;verticalAlign=middle;fontFamily=Helvetica;fontSize=11;fontColor=default;labelBackgroundColor=default;endArrow=none;endFill=0;" edge="1" parent="1" source="3paW3BKc-gljnEik5YWG-49" target="3paW3BKc-gljnEik5YWG-56">
          <mxGeometry relative="1" as="geometry" />
        </mxCell>
        <mxCell id="u3LLhQfRynHV-R4hmsTc-11" style="edgeStyle=none;shape=connector;rounded=0;orthogonalLoop=1;jettySize=auto;html=1;exitX=1;exitY=0;exitDx=0;exitDy=0;entryX=0;entryY=1;entryDx=0;entryDy=0;strokeColor=default;align=center;verticalAlign=middle;fontFamily=Helvetica;fontSize=11;fontColor=default;labelBackgroundColor=default;endArrow=none;endFill=0;" edge="1" parent="1" source="3paW3BKc-gljnEik5YWG-49" target="3paW3BKc-gljnEik5YWG-51">
          <mxGeometry relative="1" as="geometry" />
        </mxCell>
        <mxCell id="u3LLhQfRynHV-R4hmsTc-12" style="edgeStyle=none;shape=connector;rounded=0;orthogonalLoop=1;jettySize=auto;html=1;exitX=1;exitY=0.5;exitDx=0;exitDy=0;entryX=0;entryY=0.5;entryDx=0;entryDy=0;strokeColor=default;align=center;verticalAlign=middle;fontFamily=Helvetica;fontSize=11;fontColor=default;labelBackgroundColor=default;endArrow=none;endFill=0;" edge="1" parent="1" source="3paW3BKc-gljnEik5YWG-49" target="3paW3BKc-gljnEik5YWG-53">
          <mxGeometry relative="1" as="geometry" />
        </mxCell>
        <mxCell id="u3LLhQfRynHV-R4hmsTc-13" style="edgeStyle=none;shape=connector;rounded=0;orthogonalLoop=1;jettySize=auto;html=1;exitX=0;exitY=0.5;exitDx=0;exitDy=0;entryX=1;entryY=0.5;entryDx=0;entryDy=0;strokeColor=default;align=center;verticalAlign=middle;fontFamily=Helvetica;fontSize=11;fontColor=default;labelBackgroundColor=default;endArrow=none;endFill=0;" edge="1" parent="1" source="3paW3BKc-gljnEik5YWG-49" target="3paW3BKc-gljnEik5YWG-55">
          <mxGeometry relative="1" as="geometry" />
        </mxCell>
        <mxCell id="u3LLhQfRynHV-R4hmsTc-14" style="edgeStyle=none;shape=connector;rounded=0;orthogonalLoop=1;jettySize=auto;html=1;exitX=0;exitY=1;exitDx=0;exitDy=0;entryX=1;entryY=0;entryDx=0;entryDy=0;strokeColor=default;align=center;verticalAlign=middle;fontFamily=Helvetica;fontSize=11;fontColor=default;labelBackgroundColor=default;endArrow=none;endFill=0;" edge="1" parent="1" source="3paW3BKc-gljnEik5YWG-49" target="3paW3BKc-gljnEik5YWG-57">
          <mxGeometry relative="1" as="geometry" />
        </mxCell>
        <mxCell id="u3LLhQfRynHV-R4hmsTc-15" style="edgeStyle=none;shape=connector;rounded=0;orthogonalLoop=1;jettySize=auto;html=1;exitX=1;exitY=1;exitDx=0;exitDy=0;entryX=0;entryY=0;entryDx=0;entryDy=0;strokeColor=default;align=center;verticalAlign=middle;fontFamily=Helvetica;fontSize=11;fontColor=default;labelBackgroundColor=default;endArrow=none;endFill=0;" edge="1" parent="1" source="3paW3BKc-gljnEik5YWG-49" target="3paW3BKc-gljnEik5YWG-54">
          <mxGeometry relative="1" as="geometry" />
        </mxCell>
        <mxCell id="u3LLhQfRynHV-R4hmsTc-16" style="edgeStyle=none;shape=connector;rounded=0;orthogonalLoop=1;jettySize=auto;html=1;exitX=0.5;exitY=1;exitDx=0;exitDy=0;entryX=0.5;entryY=0;entryDx=0;entryDy=0;strokeColor=default;align=center;verticalAlign=middle;fontFamily=Helvetica;fontSize=11;fontColor=default;labelBackgroundColor=default;endArrow=none;endFill=0;" edge="1" parent="1" source="3paW3BKc-gljnEik5YWG-49" target="3paW3BKc-gljnEik5YWG-52">
          <mxGeometry relative="1" as="geometry" />
        </mxCell>
        <mxCell id="3paW3BKc-gljnEik5YWG-49" value="Review" style="shape=ext;margin=3;double=1;whiteSpace=wrap;html=1;align=center;fontFamily=Helvetica;fontSize=11;fontColor=default;labelBackgroundColor=default;" parent="1" vertex="1">
          <mxGeometry x="-320" y="2240" width="100" height="40" as="geometry" />
        </mxCell>
        <mxCell id="3paW3BKc-gljnEik5YWG-51" value="OrderID" style="ellipse;whiteSpace=wrap;html=1;align=center;" parent="1" vertex="1">
          <mxGeometry x="-170" y="2160" width="100" height="40" as="geometry" />
        </mxCell>
        <mxCell id="3paW3BKc-gljnEik5YWG-52" value="ReviewID" style="ellipse;whiteSpace=wrap;html=1;align=center;fontStyle=4;" parent="1" vertex="1">
          <mxGeometry x="-320" y="2340" width="100" height="40" as="geometry" />
        </mxCell>
        <mxCell id="3paW3BKc-gljnEik5YWG-53" value="ProductID" style="ellipse;whiteSpace=wrap;html=1;align=center;" parent="1" vertex="1">
          <mxGeometry x="-160" y="2240" width="100" height="40" as="geometry" />
        </mxCell>
        <mxCell id="3paW3BKc-gljnEik5YWG-54" value="UserID" style="ellipse;whiteSpace=wrap;html=1;align=center;" parent="1" vertex="1">
          <mxGeometry x="-170" y="2320" width="100" height="40" as="geometry" />
        </mxCell>
        <mxCell id="3paW3BKc-gljnEik5YWG-55" value="ReviewTime" style="ellipse;whiteSpace=wrap;html=1;align=center;" parent="1" vertex="1">
          <mxGeometry x="-480" y="2240" width="100" height="40" as="geometry" />
        </mxCell>
        <mxCell id="3paW3BKc-gljnEik5YWG-56" value="ReviewContent" style="ellipse;whiteSpace=wrap;html=1;align=center;" parent="1" vertex="1">
          <mxGeometry x="-460" y="2160" width="100" height="40" as="geometry" />
        </mxCell>
        <mxCell id="3paW3BKc-gljnEik5YWG-57" value="Stars" style="ellipse;whiteSpace=wrap;html=1;align=center;" parent="1" vertex="1">
          <mxGeometry x="-450" y="2320" width="100" height="40" as="geometry" />
        </mxCell>
        <mxCell id="JpRZJyVsBUKwa7XbCyLB-5" style="edgeStyle=none;shape=connector;rounded=0;orthogonalLoop=1;jettySize=auto;html=1;exitX=1;exitY=0.5;exitDx=0;exitDy=0;entryX=0;entryY=0.5;entryDx=0;entryDy=0;strokeColor=default;align=center;verticalAlign=middle;fontFamily=Helvetica;fontSize=11;fontColor=default;labelBackgroundColor=default;endArrow=none;endFill=0;" parent="1" source="HPnxTQOR68N8aq0mR1YZ-5" target="RBz3kKcQn3I_CGSztRoB-1" edge="1">
          <mxGeometry relative="1" as="geometry" />
        </mxCell>
        <mxCell id="yVqubIJeU8RXYRg0h4uB-1" value="1" style="edgeLabel;html=1;align=center;verticalAlign=middle;resizable=0;points=[];" parent="JpRZJyVsBUKwa7XbCyLB-5" vertex="1" connectable="0">
          <mxGeometry x="0.8146" y="1" relative="1" as="geometry">
            <mxPoint as="offset" />
          </mxGeometry>
        </mxCell>
        <mxCell id="_Pgt-6CAFlhkcNuBajUw-2" style="edgeStyle=none;shape=connector;rounded=0;orthogonalLoop=1;jettySize=auto;html=1;exitX=0.5;exitY=0;exitDx=0;exitDy=0;entryX=0.5;entryY=1;entryDx=0;entryDy=0;strokeColor=default;align=center;verticalAlign=middle;fontFamily=Helvetica;fontSize=11;fontColor=default;labelBackgroundColor=default;endArrow=none;endFill=0;" parent="1" source="HPnxTQOR68N8aq0mR1YZ-5" target="HPnxTQOR68N8aq0mR1YZ-6" edge="1">
          <mxGeometry relative="1" as="geometry" />
        </mxCell>
        <mxCell id="_Pgt-6CAFlhkcNuBajUw-3" style="edgeStyle=none;shape=connector;rounded=0;orthogonalLoop=1;jettySize=auto;html=1;exitX=0;exitY=0;exitDx=0;exitDy=0;entryX=1;entryY=1;entryDx=0;entryDy=0;strokeColor=default;align=center;verticalAlign=middle;fontFamily=Helvetica;fontSize=11;fontColor=default;labelBackgroundColor=default;endArrow=none;endFill=0;" parent="1" source="HPnxTQOR68N8aq0mR1YZ-5" target="HPnxTQOR68N8aq0mR1YZ-8" edge="1">
          <mxGeometry relative="1" as="geometry" />
        </mxCell>
        <mxCell id="HPnxTQOR68N8aq0mR1YZ-5" value="OrderStatus" style="whiteSpace=wrap;html=1;align=center;" parent="1" vertex="1">
          <mxGeometry x="50" y="1530" width="100" height="40" as="geometry" />
        </mxCell>
        <mxCell id="HPnxTQOR68N8aq0mR1YZ-6" value="OrderStatusName" style="ellipse;whiteSpace=wrap;html=1;align=center;" parent="1" vertex="1">
          <mxGeometry x="50" y="1440" width="100" height="40" as="geometry" />
        </mxCell>
        <mxCell id="HPnxTQOR68N8aq0mR1YZ-8" value="OrderStatusID" style="ellipse;whiteSpace=wrap;html=1;align=center;fontStyle=4;" parent="1" vertex="1">
          <mxGeometry x="-60" y="1470" width="100" height="40" as="geometry" />
        </mxCell>
        <mxCell id="HPnxTQOR68N8aq0mR1YZ-15" value="&lt;font face=&quot;Nunito, sans-serif&quot;&gt;&lt;span style=&quot;font-size: 14.6667px; white-space-collapse: preserve;&quot;&gt;OrderID&lt;/span&gt;&lt;/font&gt;" style="ellipse;whiteSpace=wrap;html=1;align=center;" parent="1" vertex="1">
          <mxGeometry x="-480" y="1022.5" width="100" height="40" as="geometry" />
        </mxCell>
        <mxCell id="HPnxTQOR68N8aq0mR1YZ-16" value="&lt;span id=&quot;docs-internal-guid-0d1ff501-7fff-fb7a-e9b3-701d03f8036d&quot;&gt;&lt;span style=&quot;font-size: 11pt; font-family: Nunito, sans-serif; background-color: transparent; font-variant-numeric: normal; font-variant-east-asian: normal; font-variant-alternates: normal; font-variant-position: normal; vertical-align: baseline; white-space-collapse: preserve;&quot;&gt;ProductID&lt;/span&gt;&lt;/span&gt;" style="ellipse;whiteSpace=wrap;html=1;align=center;" parent="1" vertex="1">
          <mxGeometry x="-480" y="1088.75" width="100" height="40" as="geometry" />
        </mxCell>
        <mxCell id="NJM9Babi9aSVDOlBZZWm-4" style="edgeStyle=none;shape=connector;rounded=0;orthogonalLoop=1;jettySize=auto;html=1;exitX=1;exitY=0.5;exitDx=0;exitDy=0;entryX=0;entryY=1;entryDx=0;entryDy=0;strokeColor=default;align=center;verticalAlign=middle;fontFamily=Helvetica;fontSize=11;fontColor=default;labelBackgroundColor=default;endArrow=none;endFill=0;" parent="1" source="HPnxTQOR68N8aq0mR1YZ-17" target="kUGmSK84CxYYmeA2TLVb-78" edge="1">
          <mxGeometry relative="1" as="geometry" />
        </mxCell>
        <mxCell id="HPnxTQOR68N8aq0mR1YZ-17" value="&lt;span id=&quot;docs-internal-guid-0d1ff501-7fff-fb7a-e9b3-701d03f8036d&quot;&gt;&lt;span style=&quot;font-size: 11pt; font-family: Nunito, sans-serif; background-color: transparent; font-variant-numeric: normal; font-variant-east-asian: normal; font-variant-alternates: normal; font-variant-position: normal; vertical-align: baseline; white-space-collapse: preserve;&quot;&gt;VoucherID&lt;/span&gt;&lt;/span&gt;" style="ellipse;whiteSpace=wrap;html=1;align=center;" parent="1" vertex="1">
          <mxGeometry x="-470" y="1155" width="100" height="40" as="geometry" />
        </mxCell>
        <mxCell id="HPnxTQOR68N8aq0mR1YZ-18" value="&lt;span id=&quot;docs-internal-guid-403ead70-7fff-8c5f-b6af-79d09f1e1ff6&quot;&gt;&lt;span style=&quot;font-size: 11pt; font-family: Nunito, sans-serif; background-color: transparent; font-variant-numeric: normal; font-variant-east-asian: normal; font-variant-alternates: normal; font-variant-position: normal; vertical-align: baseline; white-space-collapse: preserve;&quot;&gt;DiscountedAmount&lt;/span&gt;&lt;/span&gt;" style="ellipse;whiteSpace=wrap;html=1;align=center;" parent="1" vertex="1">
          <mxGeometry x="-450" y="1217.5" width="140" height="40" as="geometry" />
        </mxCell>
        <mxCell id="NJM9Babi9aSVDOlBZZWm-2" style="rounded=0;orthogonalLoop=1;jettySize=auto;html=1;exitX=1;exitY=1;exitDx=0;exitDy=0;entryX=0.5;entryY=0;entryDx=0;entryDy=0;endArrow=none;endFill=0;" parent="1" source="NJM9Babi9aSVDOlBZZWm-1" target="kUGmSK84CxYYmeA2TLVb-78" edge="1">
          <mxGeometry relative="1" as="geometry" />
        </mxCell>
        <mxCell id="NJM9Babi9aSVDOlBZZWm-1" value="&lt;span style=&quot;font-family: Nunito, sans-serif; font-size: 14.6667px; white-space-collapse: preserve;&quot;&gt;FinalPrice&lt;/span&gt;" style="ellipse;whiteSpace=wrap;html=1;align=center;" parent="1" vertex="1">
          <mxGeometry x="-450" y="902.5" width="140" height="40" as="geometry" />
        </mxCell>
        <mxCell id="NJM9Babi9aSVDOlBZZWm-25" style="edgeStyle=none;shape=connector;rounded=0;orthogonalLoop=1;jettySize=auto;html=1;exitX=1;exitY=0.5;exitDx=0;exitDy=0;entryX=0;entryY=1;entryDx=0;entryDy=0;strokeColor=default;align=center;verticalAlign=middle;fontFamily=Helvetica;fontSize=11;fontColor=default;labelBackgroundColor=default;endArrow=none;endFill=0;" parent="1" source="NJM9Babi9aSVDOlBZZWm-24" target="kUGmSK84CxYYmeA2TLVb-91" edge="1">
          <mxGeometry relative="1" as="geometry" />
        </mxCell>
        <mxCell id="NJM9Babi9aSVDOlBZZWm-28" value="M" style="edgeLabel;html=1;align=center;verticalAlign=middle;resizable=0;points=[];fontFamily=Helvetica;fontSize=11;fontColor=default;labelBackgroundColor=default;" parent="NJM9Babi9aSVDOlBZZWm-25" connectable="0" vertex="1">
          <mxGeometry x="-0.8714" relative="1" as="geometry">
            <mxPoint as="offset" />
          </mxGeometry>
        </mxCell>
        <mxCell id="NJM9Babi9aSVDOlBZZWm-32" style="edgeStyle=none;shape=connector;rounded=0;orthogonalLoop=1;jettySize=auto;html=1;exitX=0.5;exitY=0;exitDx=0;exitDy=0;entryX=0.5;entryY=1;entryDx=0;entryDy=0;strokeColor=default;align=center;verticalAlign=middle;fontFamily=Helvetica;fontSize=11;fontColor=default;labelBackgroundColor=default;endArrow=none;endFill=0;" parent="1" source="NJM9Babi9aSVDOlBZZWm-24" target="NJM9Babi9aSVDOlBZZWm-29" edge="1">
          <mxGeometry relative="1" as="geometry" />
        </mxCell>
        <mxCell id="NJM9Babi9aSVDOlBZZWm-33" style="edgeStyle=none;shape=connector;rounded=0;orthogonalLoop=1;jettySize=auto;html=1;exitX=0.5;exitY=1;exitDx=0;exitDy=0;entryX=0.5;entryY=0;entryDx=0;entryDy=0;strokeColor=default;align=center;verticalAlign=middle;fontFamily=Helvetica;fontSize=11;fontColor=default;labelBackgroundColor=default;endArrow=none;endFill=0;" parent="1" source="NJM9Babi9aSVDOlBZZWm-24" target="NJM9Babi9aSVDOlBZZWm-30" edge="1">
          <mxGeometry relative="1" as="geometry" />
        </mxCell>
        <mxCell id="NJM9Babi9aSVDOlBZZWm-34" style="edgeStyle=none;shape=connector;rounded=0;orthogonalLoop=1;jettySize=auto;html=1;exitX=1;exitY=1;exitDx=0;exitDy=0;entryX=0;entryY=0.5;entryDx=0;entryDy=0;strokeColor=default;align=center;verticalAlign=middle;fontFamily=Helvetica;fontSize=11;fontColor=default;labelBackgroundColor=default;endArrow=none;endFill=0;" parent="1" source="NJM9Babi9aSVDOlBZZWm-24" target="NJM9Babi9aSVDOlBZZWm-31" edge="1">
          <mxGeometry relative="1" as="geometry" />
        </mxCell>
        <mxCell id="NJM9Babi9aSVDOlBZZWm-24" value="EventProduct" style="shape=rhombus;perimeter=rhombusPerimeter;whiteSpace=wrap;html=1;align=center;" parent="1" vertex="1">
          <mxGeometry x="630" y="-10" width="120" height="60" as="geometry" />
        </mxCell>
        <mxCell id="NJM9Babi9aSVDOlBZZWm-29" value="&lt;span id=&quot;docs-internal-guid-af57fdd7-7fff-fbc0-98e1-a2dce78b2831&quot;&gt;&lt;span style=&quot;font-size: 11pt; font-family: Nunito, sans-serif; background-color: transparent; font-variant-numeric: normal; font-variant-east-asian: normal; font-variant-alternates: normal; font-variant-position: normal; vertical-align: baseline; white-space-collapse: preserve;&quot;&gt;EventID&lt;/span&gt;&lt;/span&gt;" style="ellipse;whiteSpace=wrap;html=1;align=center;" parent="1" vertex="1">
          <mxGeometry x="640" y="-80" width="100" height="40" as="geometry" />
        </mxCell>
        <mxCell id="NJM9Babi9aSVDOlBZZWm-30" value="&lt;span id=&quot;docs-internal-guid-a04711f0-7fff-0a6e-4447-140cfcfd9dd9&quot;&gt;&lt;span style=&quot;font-size: 11pt; font-family: Nunito, sans-serif; background-color: transparent; font-variant-numeric: normal; font-variant-east-asian: normal; font-variant-alternates: normal; font-variant-position: normal; vertical-align: baseline; white-space-collapse: preserve;&quot;&gt;ProductID&lt;/span&gt;&lt;/span&gt;" style="ellipse;whiteSpace=wrap;html=1;align=center;" parent="1" vertex="1">
          <mxGeometry x="640" y="80" width="100" height="40" as="geometry" />
        </mxCell>
        <mxCell id="NJM9Babi9aSVDOlBZZWm-31" value="&lt;span id=&quot;docs-internal-guid-ab90b17b-7fff-d2fd-0951-5f0604d22ad1&quot;&gt;&lt;span style=&quot;font-size: 11pt; font-family: Nunito, sans-serif; background-color: transparent; font-variant-numeric: normal; font-variant-east-asian: normal; font-variant-alternates: normal; font-variant-position: normal; vertical-align: baseline; white-space-collapse: preserve;&quot;&gt;DiscountPercent&lt;/span&gt;&lt;/span&gt;" style="ellipse;whiteSpace=wrap;html=1;align=center;" parent="1" vertex="1">
          <mxGeometry x="750" y="50" width="121.25" height="40" as="geometry" />
        </mxCell>
        <mxCell id="NJM9Babi9aSVDOlBZZWm-39" value="&lt;font face=&quot;Nunito, sans-serif&quot;&gt;&lt;span style=&quot;font-size: 14.6667px; white-space-collapse: preserve;&quot;&gt;UserID&lt;/span&gt;&lt;/font&gt;" style="ellipse;whiteSpace=wrap;html=1;align=center;" parent="1" vertex="1">
          <mxGeometry x="-10" y="1840" width="100" height="40" as="geometry" />
        </mxCell>
        <mxCell id="NJM9Babi9aSVDOlBZZWm-43" value="&lt;span id=&quot;docs-internal-guid-ea009d98-7fff-2111-46e8-33863f57d880&quot;&gt;&lt;span style=&quot;font-size: 11pt; font-family: Nunito, sans-serif; background-color: transparent; font-variant-numeric: normal; font-variant-east-asian: normal; font-variant-alternates: normal; font-variant-position: normal; vertical-align: baseline; white-space-collapse: preserve;&quot;&gt;PaymentTermID&lt;/span&gt;&lt;/span&gt;&lt;span style=&quot;color: rgba(0, 0, 0, 0); font-family: monospace; font-size: 0px; text-align: start; text-wrap: nowrap;&quot;&gt;3CmxGraphModel%3E%3Croot%3E%3CmxCell%20id%3D%220%22%2F%3E%3CmxCell%20id%3D%221%22%20parent%3D%220%22%2F%3E%3CmxCell%20id%3D%222%22%20value%3D%22%26lt%3Bfont%20face%3D%26quot%3BNunito%2C%20sans-serif%26quot%3B%26gt%3B%26lt%3Bspan%20style%3D%26quot%3Bfont-size%3A%2014.6667px%3B%20white-space-collapse%3A%20preserve%3B%26quot%3B%26gt%3BInvoiceNumber%26lt%3B%2Fspan%26gt%3B%26lt%3B%2Ffont%26gt%3B%22%20style%3D%22ellipse%3BwhiteSpace%3Dwrap%3Bhtml%3D1%3Balign%3Dcenter%3B%22%20vertex%3D%221%22%20parent%3D%221%22%3E%3CmxGeometry%20x%3D%22180%22%20y%3D%221777.5%22%20width%3D%22118.75%22%20height%3D%2240%22%20as%3D%22geometry%22%2F%3E%3C%2FmxCell%3E%3C%2Froot%3E%3C%2FmxGraphModel%3E&lt;/span&gt;" style="ellipse;whiteSpace=wrap;html=1;align=center;" parent="1" vertex="1">
          <mxGeometry x="547.5" y="1910" width="122.5" height="40" as="geometry" />
        </mxCell>
        <mxCell id="NJM9Babi9aSVDOlBZZWm-46" value="&lt;span id=&quot;docs-internal-guid-a134d009-7fff-2960-c151-09f0dd8b8b1f&quot;&gt;&lt;span style=&quot;font-size: 11pt; font-family: Nunito, sans-serif; background-color: transparent; font-variant-numeric: normal; font-variant-east-asian: normal; font-variant-alternates: normal; font-variant-position: normal; vertical-align: baseline; white-space-collapse: preserve;&quot;&gt;Note&lt;/span&gt;&lt;/span&gt;" style="ellipse;whiteSpace=wrap;html=1;align=center;" parent="1" vertex="1">
          <mxGeometry x="140" y="1970" width="100" height="40" as="geometry" />
        </mxCell>
        <mxCell id="o548NBkhyWZEmw0mraJG-6" style="edgeStyle=none;shape=connector;rounded=0;orthogonalLoop=1;jettySize=auto;html=1;exitX=0.5;exitY=1;exitDx=0;exitDy=0;strokeColor=default;align=center;verticalAlign=middle;fontFamily=Helvetica;fontSize=11;fontColor=default;labelBackgroundColor=default;endArrow=none;endFill=0;" parent="1" source="3paW3BKc-gljnEik5YWG-13" target="3paW3BKc-gljnEik5YWG-13" edge="1">
          <mxGeometry relative="1" as="geometry" />
        </mxCell>
        <mxCell id="yVqubIJeU8RXYRg0h4uB-43" style="edgeStyle=none;shape=connector;rounded=0;orthogonalLoop=1;jettySize=auto;html=1;exitX=1;exitY=0.25;exitDx=0;exitDy=0;entryX=0;entryY=0.5;entryDx=0;entryDy=0;strokeColor=default;align=center;verticalAlign=middle;fontFamily=Helvetica;fontSize=11;fontColor=default;labelBackgroundColor=default;endArrow=none;endFill=0;" parent="1" source="rTXkgDkjJw4aOoIfzEr--2" target="rTXkgDkjJw4aOoIfzEr--5" edge="1">
          <mxGeometry relative="1" as="geometry" />
        </mxCell>
        <mxCell id="yVqubIJeU8RXYRg0h4uB-44" style="edgeStyle=none;shape=connector;rounded=0;orthogonalLoop=1;jettySize=auto;html=1;exitX=1;exitY=0.75;exitDx=0;exitDy=0;entryX=0;entryY=0.5;entryDx=0;entryDy=0;strokeColor=default;align=center;verticalAlign=middle;fontFamily=Helvetica;fontSize=11;fontColor=default;labelBackgroundColor=default;endArrow=none;endFill=0;" parent="1" source="rTXkgDkjJw4aOoIfzEr--2" target="rTXkgDkjJw4aOoIfzEr--3" edge="1">
          <mxGeometry relative="1" as="geometry" />
        </mxCell>
        <mxCell id="rTXkgDkjJw4aOoIfzEr--2" value="PaymentTerm" style="whiteSpace=wrap;html=1;align=center;" parent="1" vertex="1">
          <mxGeometry x="980" y="1600" width="100" height="40" as="geometry" />
        </mxCell>
        <mxCell id="rTXkgDkjJw4aOoIfzEr--3" value="PaymentName" style="ellipse;whiteSpace=wrap;html=1;align=center;" parent="1" vertex="1">
          <mxGeometry x="1110" y="1630" width="100" height="40" as="geometry" />
        </mxCell>
        <mxCell id="rTXkgDkjJw4aOoIfzEr--5" value="PaymentID" style="ellipse;whiteSpace=wrap;html=1;align=center;fontStyle=4;" parent="1" vertex="1">
          <mxGeometry x="1110" y="1570" width="100" height="40" as="geometry" />
        </mxCell>
        <mxCell id="JpRZJyVsBUKwa7XbCyLB-4" style="edgeStyle=none;shape=connector;rounded=0;orthogonalLoop=1;jettySize=auto;html=1;exitX=1;exitY=0;exitDx=0;exitDy=0;entryX=0;entryY=1;entryDx=0;entryDy=0;strokeColor=default;align=center;verticalAlign=middle;fontFamily=Helvetica;fontSize=11;fontColor=default;labelBackgroundColor=default;endArrow=none;endFill=0;" parent="1" source="3m3aPgfmtLn6Pp9jb0K6-4" target="HPnxTQOR68N8aq0mR1YZ-5" edge="1">
          <mxGeometry relative="1" as="geometry" />
        </mxCell>
        <mxCell id="yVqubIJeU8RXYRg0h4uB-40" value="1" style="edgeLabel;html=1;align=center;verticalAlign=middle;resizable=0;points=[];fontFamily=Helvetica;fontSize=11;fontColor=default;labelBackgroundColor=default;" parent="JpRZJyVsBUKwa7XbCyLB-4" vertex="1" connectable="0">
          <mxGeometry x="-0.7049" y="1" relative="1" as="geometry">
            <mxPoint as="offset" />
          </mxGeometry>
        </mxCell>
        <mxCell id="3m3aPgfmtLn6Pp9jb0K6-4" value="CurrentStatus" style="shape=rhombus;perimeter=rhombusPerimeter;whiteSpace=wrap;html=1;align=center;fontFamily=Helvetica;fontSize=11;fontColor=default;labelBackgroundColor=default;" parent="1" vertex="1">
          <mxGeometry x="-131.25" y="1640" width="120" height="60" as="geometry" />
        </mxCell>
        <mxCell id="RBz3kKcQn3I_CGSztRoB-21" style="edgeStyle=none;shape=connector;rounded=0;orthogonalLoop=1;jettySize=auto;html=1;exitX=0.5;exitY=1;exitDx=0;exitDy=0;entryX=0.5;entryY=0;entryDx=0;entryDy=0;strokeColor=default;align=center;verticalAlign=middle;fontFamily=Helvetica;fontSize=11;fontColor=default;labelBackgroundColor=default;endArrow=none;endFill=0;" parent="1" source="RBz3kKcQn3I_CGSztRoB-1" target="kUGmSK84CxYYmeA2TLVb-117" edge="1">
          <mxGeometry relative="1" as="geometry" />
        </mxCell>
        <mxCell id="yVqubIJeU8RXYRg0h4uB-2" value="1" style="edgeLabel;html=1;align=center;verticalAlign=middle;resizable=0;points=[];" parent="RBz3kKcQn3I_CGSztRoB-21" vertex="1" connectable="0">
          <mxGeometry x="-0.9206" relative="1" as="geometry">
            <mxPoint as="offset" />
          </mxGeometry>
        </mxCell>
        <mxCell id="JpRZJyVsBUKwa7XbCyLB-10" style="edgeStyle=none;shape=connector;rounded=0;orthogonalLoop=1;jettySize=auto;html=1;exitX=0.5;exitY=0;exitDx=0;exitDy=0;entryX=0.5;entryY=1;entryDx=0;entryDy=0;strokeColor=default;align=center;verticalAlign=middle;fontFamily=Helvetica;fontSize=11;fontColor=default;labelBackgroundColor=default;endArrow=none;endFill=0;" parent="1" source="RBz3kKcQn3I_CGSztRoB-1" target="JpRZJyVsBUKwa7XbCyLB-9" edge="1">
          <mxGeometry relative="1" as="geometry" />
        </mxCell>
        <mxCell id="JpRZJyVsBUKwa7XbCyLB-11" style="edgeStyle=none;shape=connector;rounded=0;orthogonalLoop=1;jettySize=auto;html=1;exitX=1;exitY=0.5;exitDx=0;exitDy=0;entryX=0;entryY=0.5;entryDx=0;entryDy=0;strokeColor=default;align=center;verticalAlign=middle;fontFamily=Helvetica;fontSize=11;fontColor=default;labelBackgroundColor=default;endArrow=none;endFill=0;" parent="1" source="RBz3kKcQn3I_CGSztRoB-1" target="JpRZJyVsBUKwa7XbCyLB-8" edge="1">
          <mxGeometry relative="1" as="geometry" />
        </mxCell>
        <mxCell id="RBz3kKcQn3I_CGSztRoB-1" value="Result" style="shape=rhombus;perimeter=rhombusPerimeter;whiteSpace=wrap;html=1;align=center;" parent="1" vertex="1">
          <mxGeometry x="258.75" y="1520" width="120" height="60" as="geometry" />
        </mxCell>
        <mxCell id="JpRZJyVsBUKwa7XbCyLB-8" value="&lt;span id=&quot;docs-internal-guid-a134d009-7fff-2960-c151-09f0dd8b8b1f&quot;&gt;&lt;span style=&quot;font-size: 11pt; font-family: Nunito, sans-serif; background-color: transparent; font-variant-numeric: normal; font-variant-east-asian: normal; font-variant-alternates: normal; font-variant-position: normal; vertical-align: baseline; white-space-collapse: preserve;&quot;&gt;Fail&lt;/span&gt;&lt;/span&gt;" style="ellipse;whiteSpace=wrap;html=1;align=center;" parent="1" vertex="1">
          <mxGeometry x="408.75" y="1530" width="100" height="40" as="geometry" />
        </mxCell>
        <mxCell id="JpRZJyVsBUKwa7XbCyLB-9" value="&lt;font face=&quot;Nunito, sans-serif&quot;&gt;&lt;span style=&quot;font-size: 14.6667px; white-space-collapse: preserve;&quot;&gt;Success&lt;/span&gt;&lt;/font&gt;" style="ellipse;whiteSpace=wrap;html=1;align=center;" parent="1" vertex="1">
          <mxGeometry x="268.75" y="1440" width="100" height="40" as="geometry" />
        </mxCell>
        <mxCell id="yVqubIJeU8RXYRg0h4uB-31" style="edgeStyle=none;shape=connector;rounded=0;orthogonalLoop=1;jettySize=auto;html=1;exitX=1;exitY=0.5;exitDx=0;exitDy=0;entryX=0;entryY=0.5;entryDx=0;entryDy=0;strokeColor=default;align=center;verticalAlign=middle;fontFamily=Helvetica;fontSize=11;fontColor=default;labelBackgroundColor=default;endArrow=none;endFill=0;" parent="1" source="yVqubIJeU8RXYRg0h4uB-12" target="3paW3BKc-gljnEik5YWG-6" edge="1">
          <mxGeometry relative="1" as="geometry" />
        </mxCell>
        <mxCell id="yVqubIJeU8RXYRg0h4uB-41" value="1" style="edgeLabel;html=1;align=center;verticalAlign=middle;resizable=0;points=[];fontFamily=Helvetica;fontSize=11;fontColor=default;labelBackgroundColor=default;" parent="yVqubIJeU8RXYRg0h4uB-31" vertex="1" connectable="0">
          <mxGeometry x="-0.7849" y="-1" relative="1" as="geometry">
            <mxPoint as="offset" />
          </mxGeometry>
        </mxCell>
        <mxCell id="yVqubIJeU8RXYRg0h4uB-12" value="RankPoint" style="shape=rhombus;perimeter=rhombusPerimeter;whiteSpace=wrap;html=1;align=center;" parent="1" vertex="1">
          <mxGeometry x="738.75" y="1778.75" width="120" height="60" as="geometry" />
        </mxCell>
        <mxCell id="yVqubIJeU8RXYRg0h4uB-27" style="edgeStyle=none;shape=connector;rounded=0;orthogonalLoop=1;jettySize=auto;html=1;exitX=0;exitY=0.5;exitDx=0;exitDy=0;entryX=1;entryY=0.5;entryDx=0;entryDy=0;strokeColor=default;align=center;verticalAlign=middle;fontFamily=Helvetica;fontSize=11;fontColor=default;labelBackgroundColor=default;endArrow=none;endFill=0;" parent="1" source="yVqubIJeU8RXYRg0h4uB-25" target="3paW3BKc-gljnEik5YWG-1" edge="1">
          <mxGeometry relative="1" as="geometry" />
        </mxCell>
        <mxCell id="yVqubIJeU8RXYRg0h4uB-33" value="M" style="edgeLabel;html=1;align=center;verticalAlign=middle;resizable=0;points=[];fontFamily=Helvetica;fontSize=11;fontColor=default;labelBackgroundColor=default;" parent="yVqubIJeU8RXYRg0h4uB-27" vertex="1" connectable="0">
          <mxGeometry x="-0.6067" y="1" relative="1" as="geometry">
            <mxPoint as="offset" />
          </mxGeometry>
        </mxCell>
        <mxCell id="yVqubIJeU8RXYRg0h4uB-25" value="BelongsTo" style="shape=rhombus;perimeter=rhombusPerimeter;whiteSpace=wrap;html=1;align=center;" parent="1" vertex="1">
          <mxGeometry x="-100" y="710" width="120" height="60" as="geometry" />
        </mxCell>
        <mxCell id="yVqubIJeU8RXYRg0h4uB-46" style="edgeStyle=none;shape=connector;rounded=0;orthogonalLoop=1;jettySize=auto;html=1;exitX=1;exitY=0.5;exitDx=0;exitDy=0;entryX=0;entryY=0.5;entryDx=0;entryDy=0;strokeColor=default;align=center;verticalAlign=middle;fontFamily=Helvetica;fontSize=11;fontColor=default;labelBackgroundColor=default;endArrow=none;endFill=0;" parent="1" source="yVqubIJeU8RXYRg0h4uB-45" target="rTXkgDkjJw4aOoIfzEr--2" edge="1">
          <mxGeometry relative="1" as="geometry" />
        </mxCell>
        <mxCell id="yVqubIJeU8RXYRg0h4uB-45" value="InvoicePaymentTerm" style="shape=rhombus;perimeter=rhombusPerimeter;whiteSpace=wrap;html=1;align=center;" parent="1" vertex="1">
          <mxGeometry x="723.13" y="1590" width="151.25" height="60" as="geometry" />
        </mxCell>
        <mxCell id="Cy7x9ge7U_xhxelewLjl-1" value="&lt;span id=&quot;docs-internal-guid-cbc29f0b-7fff-72ab-5a6a-ffc555cf7ec3&quot;&gt;&lt;span style=&quot;font-size: 11pt; font-family: Nunito, sans-serif; background-color: transparent; font-variant-numeric: normal; font-variant-east-asian: normal; font-variant-alternates: normal; font-variant-position: normal; vertical-align: baseline; white-space-collapse: preserve;&quot;&gt;Quantity&lt;/span&gt;&lt;/span&gt;" style="ellipse;whiteSpace=wrap;html=1;align=center;" parent="1" vertex="1">
          <mxGeometry x="800" y="210" width="100" height="40" as="geometry" />
        </mxCell>
        <mxCell id="Cy7x9ge7U_xhxelewLjl-3" style="edgeStyle=none;shape=connector;rounded=0;orthogonalLoop=1;jettySize=auto;html=1;exitX=0.436;exitY=1.028;exitDx=0;exitDy=0;entryX=1;entryY=0;entryDx=0;entryDy=0;strokeColor=default;align=center;verticalAlign=middle;fontFamily=Helvetica;fontSize=11;fontColor=default;labelBackgroundColor=default;endArrow=none;endFill=0;exitPerimeter=0;" parent="1" source="Cy7x9ge7U_xhxelewLjl-1" target="3paW3BKc-gljnEik5YWG-30" edge="1">
          <mxGeometry relative="1" as="geometry">
            <mxPoint x="736" y="620" as="sourcePoint" />
            <mxPoint x="736" y="520" as="targetPoint" />
          </mxGeometry>
        </mxCell>
        <mxCell id="_Pgt-6CAFlhkcNuBajUw-13" style="edgeStyle=none;shape=connector;rounded=0;orthogonalLoop=1;jettySize=auto;html=1;exitX=0;exitY=0;exitDx=0;exitDy=0;entryX=1;entryY=0;entryDx=0;entryDy=0;strokeColor=default;align=center;verticalAlign=middle;fontFamily=Helvetica;fontSize=11;fontColor=default;labelBackgroundColor=default;endArrow=none;endFill=0;" parent="1" edge="1">
          <mxGeometry relative="1" as="geometry">
            <mxPoint x="1360" y="1321.25" as="sourcePoint" />
            <mxPoint x="320" y="1321.25" as="targetPoint" />
          </mxGeometry>
        </mxCell>
        <mxCell id="u3LLhQfRynHV-R4hmsTc-1" value="&lt;span style=&quot;font-family: Nunito, sans-serif; font-size: 14.6667px; white-space-collapse: preserve;&quot;&gt;VoucherDescription&lt;/span&gt;" style="ellipse;whiteSpace=wrap;html=1;align=center;" vertex="1" parent="1">
          <mxGeometry x="90" y="-650" width="140" height="40" as="geometry" />
        </mxCell>
        <mxCell id="u3LLhQfRynHV-R4hmsTc-9" style="edgeStyle=none;shape=connector;rounded=0;orthogonalLoop=1;jettySize=auto;html=1;exitX=0.5;exitY=1;exitDx=0;exitDy=0;entryX=0.5;entryY=0;entryDx=0;entryDy=0;strokeColor=default;align=center;verticalAlign=middle;fontFamily=Helvetica;fontSize=11;fontColor=default;labelBackgroundColor=default;endArrow=none;endFill=0;" edge="1" parent="1" source="u3LLhQfRynHV-R4hmsTc-7" target="3paW3BKc-gljnEik5YWG-49">
          <mxGeometry relative="1" as="geometry" />
        </mxCell>
        <mxCell id="u3LLhQfRynHV-R4hmsTc-7" value="Successful" style="shape=rhombus;perimeter=rhombusPerimeter;whiteSpace=wrap;html=1;align=center;fontFamily=Helvetica;fontSize=11;fontColor=default;labelBackgroundColor=default;" vertex="1" parent="1">
          <mxGeometry x="-330" y="2030" width="120" height="60" as="geometry" />
        </mxCell>
      </root>
    </mxGraphModel>
  </diagram>
</mxfile>
